SplineFontDB: 3.2
FontName: poj-Garamond08-Regular
FullName: poj-Garamond 08 Regular
FamilyName: poj-Garamond 08
Weight: Regular
Copyright: POJ support by Edward Greve <edward.greve@gmail.com>\nCreated by Georg Duffner with FontForge\nBased on Guillaume Vauthier's French One Galliarde, v.1.00 June 6, 2012, initial release
Version: 1.000
ItalicAngle: 0
UnderlinePosition: -66
UnderlineWidth: 70
Ascent: 726
Descent: 274
InvalidEm: 0
sfntRevision: 0x00010000
LayerCount: 2
Layer: 0 0 "Back" 1
Layer: 1 0 "Zeichenebene" 0
XUID: [1021 660 827469224 10601]
UseXUID: 1
FSType: 0
OS2Version: 3
OS2_WeightWidthSlopeOnly: 0
OS2_UseTypoMetrics: 1
CreationTime: 1339019456
ModificationTime: 1598257118
PfmFamily: 17
TTFWeight: 400
TTFWidth: 5
LineGap: 0
VLineGap: 0
Panose: 2 2 5 2 6 2 6 2 4 4
OS2TypoAscent: 726
OS2TypoAOffset: 0
OS2TypoDescent: -274
OS2TypoDOffset: 0
OS2TypoLinegap: 0
OS2WinAscent: 890
OS2WinAOffset: 0
OS2WinDescent: 274
OS2WinDOffset: 0
HheadAscent: 726
HheadAOffset: 0
HheadDescent: -274
HheadDOffset: 0
OS2SubXSize: 688
OS2SubYSize: 638
OS2SubXOff: 0
OS2SubYOff: 136
OS2SupXSize: 688
OS2SupYSize: 638
OS2SupXOff: 0
OS2SupYOff: 468
OS2StrikeYSize: 48
OS2StrikeYPos: 254
OS2FamilyClass: 258
OS2Vendor: 'PfEd'
OS2CodePages: 20000111.41000000
OS2UnicodeRanges: 800000a7.5000004a.00000000.00000000
Lookup: 4 0 0 "'ccmp' Glyph Composition POJ" { "'ccmp' Glyph Composition POJ subtable"  } ['ccmp' ('DFLT' <'dflt' > 'latn' <'dflt' > ) ]
Lookup: 4 0 1 "'liga' Standard Ligatures lookup POJ" { "'liga' Standard Ligatures lookup POJ subtable"  } ['liga' ('DFLT' <'dflt' > 'latn' <'dflt' > ) ]
Lookup: 1 0 0 "loclDEU" { "loclDEU subtable"  } ['locl' ('latn' <'DEU ' > ) ]
Lookup: 1 0 0 "loclTRK" { "loclTRK subtable"  } ['locl' ('latn' <'TRK ' 'AZE ' 'CRT ' > ) ]
Lookup: 6 0 0 "loclCAT" { "loclCAT contextual 0"  "loclCAT contextual 1"  } ['locl' ('latn' <'CAT ' > ) ]
Lookup: 1 0 0 "Single Substitution lookup 3" { "Single Substitution lookup 3 subtable"  } []

StartChar: .notdef
Encoding: 1114112 -1 0
Width: 416
VWidth: 982
Flags: MW
LayerCount: 2
Fore
SplineSet
90 -31 m 1
 326 -31 l 1
 326 424 l 1
 90 424 l 1
 90 -31 l 1
368 -73 m 1
 48 -73 l 1
 48 466 l 1
 368 466 l 1
 368 -73 l 1
EndSplineSet
Validated: 1
EndChar

StartChar: exclam
Encoding: 33 33 3
Width: 207
VWidth: 982
Flags: MW
LayerCount: 2
Fore
SplineSet
111 603 m 0
 136 603 156 590 156 558 c 0
 156 474 147 375 140 341 c 0
 128 278 116 240 103 240 c 0
 93 240 83 252 79 278 c 0
 74 314 56 471 56 548 c 0
 56 577 81 603 111 603 c 0
97 115 m 0
 126 115 155 94 155 65 c 0
 155 31 130 -2 96 -2 c 0
 67 -2 42 21 42 50 c 0
 42 83 64 115 97 115 c 0
EndSplineSet
Validated: 1
Substitution2: "sups subtable" exclam.sups
Substitution2: "sinf subtable" exclam.sinf
Substitution2: "ordn subtable" exclam.ordn
Substitution2: "subs subtable" exclam.subs
EndChar

StartChar: quotedbl
Encoding: 34 34 4
Width: 309
Flags: MW
LayerCount: 2
Fore
SplineSet
183 620 m 0
 183 634 194 648 202 655 c 0
 218 668 238 676 254 676 c 0
 264 676 268 661 268 644 c 0
 268 592 228 505 212 469 c 0
 207 457 198 444 193 444 c 0
 188 444 186 458 186 467 c 0
 187 488 186 506 186 524 c 0
 186 560 183 619 183 620 c 0
52 620 m 0
 52 634 63 648 71 655 c 0
 87 668 107 676 123 676 c 0
 133 676 137 661 137 644 c 0
 137 592 97 505 81 469 c 0
 76 457 67 444 62 444 c 0
 57 444 55 458 55 467 c 0
 56 488 55 506 55 524 c 0
 55 560 52 619 52 620 c 0
EndSplineSet
Validated: 33
Substitution2: "sups subtable" quotedbl.sups
Substitution2: "sinf subtable" quotedbl.sinf
Substitution2: "ordn subtable" quotedbl.ordn
Substitution2: "subs subtable" quotedbl.subs
EndChar

StartChar: numbersign
Encoding: 35 35 5
Width: 728
VWidth: 982
Flags: MW
LayerCount: 2
Fore
SplineSet
312 563 m 2
 323 592 343 626 370 626 c 0
 402 626 384 587 360 524 c 2
 334 454 l 1
 493 454 l 1
 534 563 l 2
 545 592 564 626 583 626 c 0
 614 626 606 587 582 524 c 2
 556 454 l 1
 632 454 l 2
 655 454 701 444 701 420 c 0
 701 406 673 389 617 389 c 2
 531 389 l 1
 474 237 l 1
 563 237 l 2
 586 237 632 227 632 203 c 0
 632 189 604 172 548 172 c 2
 449 172 l 1
 408 62 l 2
 397 33 379 0 348 0 c 0
 330 0 333 30 360 101 c 2
 387 172 l 1
 227 172 l 1
 186 62 l 2
 175 33 157 0 135 0 c 0
 117 0 111 30 138 101 c 2
 165 172 l 1
 112 172 l 2
 83 172 42 183 42 208 c 0
 42 222 69 237 126 237 c 2
 189 237 l 1
 246 389 l 1
 181 389 l 2
 152 389 111 400 111 425 c 0
 111 439 138 454 195 454 c 2
 271 454 l 1
 312 563 l 2
309 389 m 1
 252 237 l 1
 411 237 l 1
 468 389 l 1
 309 389 l 1
EndSplineSet
Validated: 33
Substitution2: "sups subtable" numbersign.sups
Substitution2: "sinf subtable" numbersign.sinf
Substitution2: "ordn subtable" numbersign.ordn
Substitution2: "subs subtable" numbersign.subs
EndChar

StartChar: dollar
Encoding: 36 36 6
Width: 409
VWidth: 982
Flags: MW
LayerCount: 2
Fore
SplineSet
220 601 m 1
 226 673 l 2
 228 693 246 709 263 709 c 0
 272 709 276 702 273 673 c 2
 266 597 l 1
 291 592 317 583 333 574 c 0
 366 555 367 524 367 489 c 0
 367 476 362 462 347 462 c 0
 335 462 328 475 307 508 c 0
 295 527 278 537 261 541 c 1
 244 341 l 1
 338 262 l 2
 368 237 386 198 386 160 c 0
 386 68 305 2 213 -9 c 1
 206 -89 l 2
 205 -106 187 -119 171 -119 c 0
 161 -119 158 -111 159 -91 c 2
 166 -10 l 1
 136 -7 100 2 80 11 c 0
 43 28 34 39 34 71 c 0
 34 103 41 138 61 138 c 0
 77 138 84 123 93 93 c 0
 102 64 129 39 170 31 c 1
 189 252 l 1
 98 327 l 2
 69 350 54 379 54 417 c 0
 54 512 128 594 220 601 c 1
233 216 m 1
 216 29 l 1
 261 38 288 86 288 138 c 0
 288 166 270 186 248 204 c 2
 233 216 l 1
200 378 m 1
 215 543 l 1
 173 536 146 497 146 453 c 0
 146 420 168 406 197 381 c 2
 200 378 l 1
EndSplineSet
Validated: 33
Substitution2: "sups subtable" dollar.sups
Substitution2: "sinf subtable" dollar.sinf
Substitution2: "ordn subtable" dollar.ordn
Substitution2: "subs subtable" dollar.subs
EndChar

StartChar: percent
Encoding: 37 37 7
Width: 763
VWidth: 982
Flags: MW
LayerCount: 2
Fore
SplineSet
606 570 m 2
 184 10 l 2
 172 -6 156 -18 139 -18 c 0
 126 -18 123 14 136 31 c 2
 530 551 l 10
 550 577 571 604 596 604 c 0
 613 604 617 584 606 570 c 2
586 272 m 0
 659 272 731 227 731 154 c 0
 731 71 669 -1 586 -1 c 0
 508 -1 449 65 449 143 c 0
 449 216 513 272 586 272 c 0
506 135 m 0
 506 88 544 51 591 51 c 0
 640 51 676 95 676 144 c 0
 676 190 632 219 586 219 c 0
 541 219 506 180 506 135 c 0
178 620 m 0
 251 620 323 575 323 502 c 0
 323 419 261 347 178 347 c 0
 100 347 41 413 41 491 c 0
 41 564 105 620 178 620 c 0
98 483 m 0
 98 436 136 399 183 399 c 0
 232 399 268 443 268 492 c 0
 268 538 224 567 178 567 c 0
 133 567 98 528 98 483 c 0
EndSplineSet
Validated: 33
Substitution2: "'onum' Minuskelziffern lookup 34 subtable" percent.sc
Substitution2: "sups subtable" percent.sups
Substitution2: "sinf subtable" percent.sinf
Substitution2: "ordn subtable" percent.ordn
Substitution2: "subs subtable" percent.subs
EndChar

StartChar: ampersand
Encoding: 38 38 8
Width: 783
VWidth: 982
Flags: MW
LayerCount: 2
Fore
SplineSet
671 -4 m 0
 609 -4 552 2 514 54 c 1
 514 54 483 103 448 150 c 1
 382 77 l 2
 339 29 294 -12 230 -12 c 0
 122 -12 42 72 42 195 c 0
 42 236 74 293 123 330 c 2
 212 397 l 1
 195 412 l 2
 160 442 138 484 138 524 c 0
 138 598 218 633 292 633 c 0
 351 633 419 611 419 552 c 0
 419 518 399 498 374 477 c 2
 319 431 l 1
 326 425 l 2
 387 372 420 334 471 273 c 0
 475 268 479 264 483 259 c 1
 549 334 l 2
 560 347 563 355 563 362 c 0
 563 372 552 379 546 380 c 0
 531 383 522 387 522 397 c 0
 522 407 531 417 547 417 c 0
 562 417 611 417 626 417 c 0
 641 417 671 423 686 423 c 0
 702 423 710 413 710 403 c 0
 710 393 691 385 676 380 c 0
 665 376 627 351 602 323 c 2
 512 223 l 1
 561 162 612 96 612 96 c 2
 650 49 674 48 731 43 c 0
 742 42 748 34 748 26 c 0
 748 8 701 -4 671 -4 c 0
244 369 m 1
 151 291 l 2
 136 278 131 261 131 239 c 0
 131 160 178 75 250 75 c 0
 313 75 354 113 396 161 c 2
 419 187 l 1
 417 190 414 192 412 195 c 0
 354 261 316 303 253 361 c 1
 244 369 l 1
291 455 m 1
 308 468 l 2
 321 478 339 507 339 526 c 0
 339 563 312 586 278 586 c 0
 258 586 218 564 218 542 c 0
 218 528 263 479 273 471 c 2
 291 455 l 1
EndSplineSet
Validated: 1
Substitution2: "sups subtable" ampersand.sups
Substitution2: "sinf subtable" ampersand.sinf
Substitution2: "ordn subtable" ampersand.ordn
Substitution2: "subs subtable" ampersand.subs
EndChar

StartChar: quotesingle
Encoding: 39 39 9
Width: 178
Flags: MW
LayerCount: 2
Fore
SplineSet
52 620 m 0
 52 634 63 648 71 655 c 0
 87 668 108 676 124 676 c 0
 134 676 138 661 138 644 c 0
 138 592 97 505 81 469 c 0
 76 457 67 444 62 444 c 0
 57 444 55 458 55 467 c 0
 56 488 56 506 56 524 c 0
 56 560 52 619 52 620 c 0
EndSplineSet
Validated: 1
Substitution2: "sups subtable" quotesingle.sups
Substitution2: "sinf subtable" quotesingle.sinf
Substitution2: "ordn subtable" quotesingle.ordn
Substitution2: "subs subtable" quotesingle.subs
EndChar

StartChar: parenleft
Encoding: 40 40 10
Width: 291
VWidth: 982
Flags: MW
LayerCount: 2
Fore
SplineSet
264 723 m 0
 282 723 293 716 293 704 c 0
 293 693 275 682 256 658 c 0
 159 531 96 407 96 190 c 0
 96 52 169 -86 243 -165 c 0
 276 -200 293 -202 293 -236 c 8
 293 -244 284 -249 277 -249 c 0
 249 -249 210 -202 177 -162 c 0
 79 -41 45 102 45 216 c 0
 45 426 118 561 213 684 c 0
 232 709 251 723 264 723 c 0
EndSplineSet
Validated: 1
Substitution2: "sups subtable" parenleft.sups
Substitution2: "sinf subtable" parenleft.sinf
Substitution2: "ordn subtable" parenleft.ordn
Substitution2: "subs subtable" parenleft.subs
EndChar

StartChar: parenright
Encoding: 41 41 11
Width: 291
VWidth: 982
Flags: MW
LayerCount: 2
Fore
SplineSet
29 -249 m 0
 11 -249 0 -242 0 -230 c 0
 0 -219 18 -208 37 -184 c 0
 134 -57 197 67 197 284 c 0
 197 422 124 560 50 639 c 0
 17 674 0 676 0 710 c 8
 0 718 9 723 16 723 c 0
 44 723 83 676 116 636 c 0
 214 515 248 372 248 258 c 0
 248 48 175 -87 80 -210 c 0
 61 -235 42 -249 29 -249 c 0
EndSplineSet
Validated: 1
Substitution2: "sups subtable" parenright.sups
Substitution2: "sinf subtable" parenright.sinf
Substitution2: "ordn subtable" parenright.ordn
Substitution2: "subs subtable" parenright.subs
EndChar

StartChar: asterisk
Encoding: 42 42 12
Width: 395
VWidth: 982
Flags: MW
LayerCount: 2
Fore
SplineSet
235 602 m 0
 235 588 232 569 225 536 c 0
 223 523 222 512 222 510 c 0
 222 503 233 501 246 501 c 0
 266 501 301 500 328 499 c 0
 357 498 372 490 372 478 c 0
 372 459 337 452 281 447 c 0
 238 443 228 435 234 419 c 0
 245 392 264 349 264 318 c 0
 264 307 258 291 246 291 c 0
 218 291 199 353 174 396 c 0
 168 406 167 416 157 405 c 256
 153 400 139 390 120 370 c 0
 98 347 81 333 61 333 c 0
 46 333 37 341 37 356 c 0
 37 363 50 381 76 404 c 0
 105 430 114 449 114 456 c 0
 114 463 99 476 85 484 c 8
 56 501 24 521 24 545 c 8
 24 555 30 560 44 560 c 0
 65 560 79 552 110 537 c 0
 123 530 146 519 151 519 c 0
 158 519 161 536 171 569 c 0
 184 612 200 633 213 633 c 0
 230 633 235 609 235 602 c 0
EndSplineSet
Validated: 33
Substitution2: "sups subtable" asterisk.sups
Substitution2: "sinf subtable" asterisk.sinf
Substitution2: "ordn subtable" asterisk.ordn
Substitution2: "subs subtable" asterisk.subs
EndChar

StartChar: plus
Encoding: 43 43 13
Width: 459
VWidth: 982
Flags: MW
LayerCount: 2
Fore
SplineSet
200 172 m 1
 95 172 l 2
 74 172 42 177 42 202 c 0
 42 220 63 238 95 238 c 2
 200 238 l 1
 200 343 l 2
 200 379 217 396 232 396 c 0
 247 396 265 386 265 354 c 2
 265 238 l 1
 380 238 l 2
 405 238 422 225 422 210 c 0
 422 195 409 173 379 173 c 2
 265 173 l 1
 265 56 l 2
 265 37 258 16 233 16 c 0
 208 16 200 32 200 54 c 2
 200 172 l 1
EndSplineSet
Validated: 1
Substitution2: "sups subtable" plus.sups
Substitution2: "sinf subtable" plus.sinf
Substitution2: "ordn subtable" plus.ordn
Substitution2: "subs subtable" plus.subs
EndChar

StartChar: comma
Encoding: 44 44 14
Width: 250
VWidth: 982
Flags: MW
LayerCount: 2
Fore
SplineSet
97 115 m 0
 159 115 211 65 211 5 c 0
 211 -61 134 -174 75 -174 c 0
 66 -174 61 -169 61 -161 c 0
 61 -144 134 -99 134 -50 c 0
 134 -13 106 -2 80 13 c 0
 58 25 41 40 41 63 c 0
 41 94 68 115 97 115 c 0
EndSplineSet
Validated: 1
Substitution2: "sups subtable" comma.sups
Substitution2: "sinf subtable" comma.sinf
Substitution2: "ordn subtable" comma.ordn
Substitution2: "subs subtable" comma.subs
EndChar

StartChar: period
Encoding: 46 46 15
Width: 206
VWidth: 982
Flags: MW
LayerCount: 2
Fore
SplineSet
114 116 m 0
 142 116 166 88 166 62 c 0
 166 29 138 -4 105 -4 c 0
 68 -4 42 21 42 58 c 0
 42 94 78 116 114 116 c 0
EndSplineSet
Validated: 1
Substitution2: "sups subtable" period.sups
Substitution2: "sinf subtable" period.sinf
Substitution2: "ordn subtable" period.ordn
Substitution2: "subs subtable" period.subs
EndChar

StartChar: slash
Encoding: 47 47 16
Width: 237
VWidth: 982
Flags: MW
LayerCount: 2
Fore
SplineSet
342 667 m 2
 43 -18 l 2
 35 -36 24 -46 7 -46 c 8
 -12 -46 -5 -17 4 3 c 2
 282 648 l 2
 299 687 305 701 330 701 c 0
 347 701 349 683 342 667 c 2
EndSplineSet
Validated: 33
Substitution2: "frac_slash subtable" fraction
Substitution2: "sups subtable" slash.sups
Substitution2: "sinf subtable" slash.sinf
Substitution2: "ordn subtable" slash.ordn
Substitution2: "subs subtable" slash.subs
EndChar

StartChar: zero
Encoding: 48 48 17
Width: 510
VWidth: 982
Flags: MW
LayerCount: 2
Fore
SplineSet
251 430 m 0
 360 430 475 344 475 235 c 0
 475 111 375 -4 251 -4 c 0
 136 -4 41 101 41 217 c 0
 41 326 142 430 251 430 c 0
103 212 m 0
 103 133 177 62 256 62 c 0
 339 62 408 145 408 228 c 0
 408 306 324 375 246 375 c 0
 169 375 103 289 103 212 c 0
EndSplineSet
Validated: 1
Substitution2: "'tnum' Tabular Numbers lookup 35 subtable" zero.taboldstyle
Substitution2: "'lnum' Lining Figures lookup 33 subtable" zero.lnum
Substitution2: "Single Substitution lookup 32 subtable" zero.ordn
Substitution2: "Single Substitution lookup 31 subtable" zero.subs
Substitution2: "sups subtable" zero.sups
Substitution2: "sinf subtable" zero.sinf
Substitution2: "ordn subtable" zero.ordn
Substitution2: "subs subtable" zero.subs
EndChar

StartChar: one
Encoding: 49 49 18
Width: 276
VWidth: 982
Flags: HMW
LayerCount: 2
Fore
SplineSet
180 328 m 2
 180 92 l 2
 180 67 191 52 218 44 c 0
 245 36 261 28 261 18 c 0
 261 8 253 -2 227 -2 c 0
 205 -2 155 4 139 4 c 0
 119 4 72 -2 50 -2 c 0
 24 -2 15 8 15 18 c 0
 15 28 32 36 59 44 c 0
 86 52 97 67 97 92 c 2
 97 328 l 2
 97 353 86 369 59 377 c 0
 32 385 21 393 21 403 c 0
 21 413 29 423 55 423 c 0
 77 423 122 417 138 417 c 0
 158 417 198 423 220 423 c 0
 246 423 255 413 255 403 c 0
 255 393 243 385 216 377 c 0
 189 369 180 353 180 328 c 2
EndSplineSet
Validated: 1
Substitution2: "one_variants subtable" one.01
Substitution2: "'tnum' Tabular Numbers lookup 35 subtable" one.taboldstyle
Substitution2: "'lnum' Lining Figures lookup 33 subtable" one.lnum
Substitution2: "Single Substitution lookup 32 subtable" one.ordn
Substitution2: "Single Substitution lookup 31 subtable" one.subs
Substitution2: "sups subtable" one.sups
Substitution2: "sinf subtable" one.sinf
Substitution2: "ordn subtable" one.ordn
Substitution2: "subs subtable" one.subs
EndChar

StartChar: two
Encoding: 50 50 19
Width: 415
VWidth: 982
Flags: HMW
LayerCount: 2
Fore
SplineSet
272 68 m 2
 300 65 325 79 341 98 c 0
 363 125 374 146 384 146 c 0
 393 146 398 138 398 121 c 0
 398 71 361 -2 347 -2 c 0
 310 -2 265 4 208 4 c 0
 143 4 61 -2 56 -2 c 0
 53 -2 40 15 40 19 c 0
 40 23 43 27 47 31 c 0
 64 48 83 65 99 78 c 0
 121 96 256 211 256 292 c 0
 256 339 232 361 194 361 c 0
 149 361 120 351 86 313 c 0
 82 309 77 303 71 303 c 0
 65 303 58 319 58 325 c 0
 58 334 105 429 223 429 c 0
 287 429 341 384 341 321 c 0
 341 279 306.695743426 238.148741595 271 195 c 0
 241.13031184 158.893749444 168 82 158 75 c 0
 152 71 161 67 167 67 c 2
 272 68 l 2
EndSplineSet
Validated: 524321
Substitution2: "'tnum' Tabular Numbers lookup 35 subtable" two.taboldstyle
Substitution2: "'lnum' Lining Figures lookup 33 subtable" two.lnum
Substitution2: "Single Substitution lookup 32 subtable" two.ordn
Substitution2: "Single Substitution lookup 31 subtable" two.subs
Substitution2: "sups subtable" two.sups
Substitution2: "sinf subtable" two.sinf
Substitution2: "ordn subtable" two.ordn
Substitution2: "subs subtable" two.subs
EndChar

StartChar: three
Encoding: 51 51 20
Width: 314
VWidth: 982
Flags: MW
LayerCount: 2
Fore
SplineSet
181 429 m 0
 240 429 289 385 289 325 c 0
 289 270 279 238 197 186 c 0
 193 184 193 181 198 180 c 0
 293 170 310 108 310 69 c 0
 310 -61 196 -156 66 -156 c 0
 46 -156 30 -141 30 -125 c 0
 30 -104 51 -91 70 -91 c 0
 79 -91 125 -103 144 -103 c 0
 194 -103 230 -33 230 33 c 0
 230 79 231 124 157 124 c 0
 126 124 99 112 95 112 c 0
 87 112 78 127 78 134 c 0
 78 143 97 165 109 172 c 0
 131 185 150 189 179 215 c 0
 197 231 211 255 211 308 c 0
 211 346 182 367 151 367 c 0
 119 367 93 349 66 320 c 0
 63 316 60 312 50 312 c 0
 39 312 36 321 36 328 c 0
 36 349 104 429 181 429 c 0
EndSplineSet
Validated: 33
Substitution2: "'tnum' Tabular Numbers lookup 35 subtable" three.taboldstyle
Substitution2: "'lnum' Lining Figures lookup 33 subtable" three.lnum
Substitution2: "Single Substitution lookup 32 subtable" three.ordn
Substitution2: "Single Substitution lookup 31 subtable" three.subs
Substitution2: "sups subtable" three.sups
Substitution2: "sinf subtable" three.sinf
Substitution2: "ordn subtable" three.ordn
Substitution2: "subs subtable" three.subs
EndChar

StartChar: four
Encoding: 52 52 21
Width: 529
VWidth: 982
Flags: HMW
LayerCount: 2
Fore
SplineSet
334 432 m 0
 351 432 356 424 356 403 c 2
 356 101 l 2
 356 91 358 87 377 87 c 2
 476 87 l 2
 487 87 492 81 492 68 c 0
 492 46 473 25 441 25 c 2
 374 25 l 2
 360 25 356 23 356 10 c 2
 356 -121 l 2
 356 -149 328 -169 300 -169 c 0
 278 -169 273 -154 273 -139 c 2
 273 9 l 2
 273 21 271 24 259 24 c 2
 57 24 l 2
 47 24 42 36 42 48 c 0
 42 62 59 78 75 100 c 2
 300 413 l 2
 310 428 325 432 334 432 c 0
129 104 m 2
 120 91 122 87 141 87 c 2
 260 87 l 2
 271 87 273 89 273 100 c 2
 273 286 l 2
 273 297 273 302 264 290 c 2
 129 104 l 2
EndSplineSet
Validated: 1
Substitution2: "'tnum' Tabular Numbers lookup 35 subtable" four.taboldstyle
Substitution2: "'lnum' Lining Figures lookup 33 subtable" four.lnum
Substitution2: "Single Substitution lookup 32 subtable" four.ordn
Substitution2: "Single Substitution lookup 31 subtable" four.subs
Substitution2: "sups subtable" four.sups
Substitution2: "sinf subtable" four.sinf
Substitution2: "ordn subtable" four.ordn
Substitution2: "subs subtable" four.subs
EndChar

StartChar: five
Encoding: 53 53 22
Width: 328
VWidth: 982
Flags: HMW
LayerCount: 2
Fore
SplineSet
218 418 m 2
 289 424 l 2
 302 425 305 413 305 405 c 0
 305 392 284 350 261 344 c 0
 237 338 174.412313553 338.716386318 161 332 c 0
 149.375994921 326.179131858 137 308 137 297 c 0
 137 282 161 257 204 218 c 0
 251 176 268 107 268 68 c 0
 268 -11 171 -99 103 -152 c 0
 86 -165 59 -169 49 -169 c 0
 34 -169 14 -152 14 -139 c 0
 14 -119 25 -96 50 -90 c 0
 58 -88 86 -87 125 -87 c 0
 143 -87 196 -42 196 11 c 0
 196 104 118 166 55 219 c 0
 46 227 39 239 39 250 c 0
 39 261 43 276 57 289 c 2
 150 377 l 2
 177 402 194 416 218 418 c 2
EndSplineSet
Validated: 524289
Substitution2: "'tnum' Tabular Numbers lookup 35 subtable" five.taboldstyle
Substitution2: "'lnum' Lining Figures lookup 33 subtable" five.lnum
Substitution2: "Single Substitution lookup 32 subtable" five.ordn
Substitution2: "Single Substitution lookup 31 subtable" five.subs
Substitution2: "sups subtable" five.sups
Substitution2: "sinf subtable" five.sinf
Substitution2: "ordn subtable" five.ordn
Substitution2: "subs subtable" five.subs
EndChar

StartChar: six
Encoding: 54 54 23
Width: 474
VWidth: 982
Flags: HMW
LayerCount: 2
Fore
SplineSet
367 570 m 0
 381 570 387 564 387 552 c 0
 387 545 370 527 344 515 c 0
 288 489 202 429 177 353 c 0
 174 344 189 348 194 350 c 0
 209 355 232 358 250 358 c 0
 341 358 441 289 441 201 c 0
 441 97 354 -10 246 -10 c 0
 116 -10 42 95 42 230 c 0
 42 364 180 495 306 554 c 0
 329 565 351 570 367 570 c 0
142 198 m 0
 142 126 190 34 260 34 c 0
 316 34 345 112.12109375 345 177 c 0
 345 255.055664062 284.055664062 321 206 321 c 16
 155 321 142 251 142 198 c 0
EndSplineSet
Validated: 524289
Substitution2: "'tnum' Tabular Numbers lookup 35 subtable" six.taboldstyle
Substitution2: "'lnum' Lining Figures lookup 33 subtable" six.lnum
Substitution2: "Single Substitution lookup 32 subtable" six.ordn
Substitution2: "Single Substitution lookup 31 subtable" six.subs
Substitution2: "sups subtable" six.sups
Substitution2: "sinf subtable" six.sinf
Substitution2: "ordn subtable" six.ordn
Substitution2: "subs subtable" six.subs
EndChar

StartChar: seven
Encoding: 55 55 24
Width: 424
VWidth: 982
Flags: HMW
LayerCount: 2
Fore
SplineSet
395 418 m 2
 410 418 413 416 413 402 c 0
 413 384 408.137695312 370.926757812 391 337 c 2
 143 -134 l 2
 120 -180 114 -209 80 -209 c 0
 69 -209 66 -196 66 -179 c 0
 66 -174 75 -154 88 -129 c 2
 325 320 l 2
 331.995799605 333.268714628 328 333 317 333 c 2
 130 333 l 2
 106 333 96 315 89 295 c 0
 84 279 70 267 57 267 c 0
 50 267 41 270 41 291 c 0
 41 310 73.7950260156 383.513297091 82 405 c 0
 86.9943319905 418.07886264 90 418 105 418 c 2
 395 418 l 2
EndSplineSet
Validated: 524289
Substitution2: "'tnum' Tabular Numbers lookup 35 subtable" seven.taboldstyle
Substitution2: "'lnum' Lining Figures lookup 33 subtable" seven.lnum
Substitution2: "Single Substitution lookup 32 subtable" seven.ordn
Substitution2: "Single Substitution lookup 31 subtable" seven.subs
Substitution2: "sups subtable" seven.sups
Substitution2: "sinf subtable" seven.sinf
Substitution2: "ordn subtable" seven.ordn
Substitution2: "subs subtable" seven.subs
EndChar

StartChar: eight
Encoding: 56 56 25
Width: 412
VWidth: 982
Flags: MW
LayerCount: 2
Fore
SplineSet
128 129 m 4
 128 84 158 32 203 32 c 4
 240 32 284 62 284 99 c 4
 284 151 271 191 232 226 c 6
 196 259 l 5
 162 225 l 6
 136 199 128 164 128 129 c 4
283 445 m 4
 283 483 250 526 209 526 c 4
 172 526 148 483 148 446 c 4
 148 414 175 396 200 371 c 6
 226 345 l 5
 253 369 l 6
 276 390 283 414 283 445 c 4
164 289 m 5
 105 342 l 6
 77 368 66 393 66 431 c 4
 66 515 151 564 235 564 c 4
 301 564 353 509 353 443 c 4
 353 412 333 392 311 370 c 6
 255 315 l 5
 325 244 l 6
 359 210 374 179 374 131 c 4
 374 33 262 -8 164 -8 c 4
 95 -8 38 49 38 118 c 4
 38 185 83 216 133 261 c 6
 164 289 l 5
EndSplineSet
Validated: 1
Substitution2: "'tnum' Tabular Numbers lookup 35 subtable" eight.taboldstyle
Substitution2: "'lnum' Lining Figures lookup 33 subtable" eight.lnum
Substitution2: "Single Substitution lookup 32 subtable" eight.ordn
Substitution2: "Single Substitution lookup 31 subtable" eight.subs
Substitution2: "sups subtable" eight.sups
Substitution2: "sinf subtable" eight.sinf
Substitution2: "ordn subtable" eight.ordn
Substitution2: "subs subtable" eight.subs
EndChar

StartChar: nine
Encoding: 57 57 26
Width: 468
VWidth: 982
Flags: MW
LayerCount: 2
Fore
SplineSet
267 430 m 0
 375 430 452 352 452 244 c 0
 452 118 339 -53 182 -110 c 8
 140 -125 94 -143 73 -143 c 0
 57 -143 48 -135 48 -125 c 0
 48 -111 60 -90 71 -86 c 0
 93 -78 117 -67 158 -44 c 0
 212 -13 266 31 273 48 c 0
 276 56 243 54 204 61 c 0
 108 78 41 137 41 236 c 0
 41 351 152 430 267 430 c 0
140 208 m 0
 140 140 193 90 260 90 c 0
 318 90 353 158 353 260 c 0
 353 319 324 394 264 394 c 0
 178 394 140 295 140 208 c 0
EndSplineSet
Validated: 33
Substitution2: "'tnum' Tabular Numbers lookup 35 subtable" nine.taboldstyle
Substitution2: "'lnum' Lining Figures lookup 33 subtable" nine.lnum
Substitution2: "Single Substitution lookup 32 subtable" nine.ordn
Substitution2: "Single Substitution lookup 31 subtable" nine.subs
Substitution2: "sups subtable" nine.sups
Substitution2: "sinf subtable" nine.sinf
Substitution2: "ordn subtable" nine.ordn
Substitution2: "subs subtable" nine.subs
EndChar

StartChar: colon
Encoding: 58 58 27
Width: 199
VWidth: 982
Flags: MW
LayerCount: 2
Fore
SplineSet
112 116 m 0
 144 116 166 86 166 54 c 0
 166 19 134 -5 99 -5 c 0
 68 -5 43 20 43 51 c 0
 43 88 75 116 112 116 c 0
112 405 m 0
 144 405 166 375 166 343 c 0
 166 308 134 284 99 284 c 0
 68 284 43 309 43 340 c 0
 43 377 75 405 112 405 c 0
EndSplineSet
Validated: 1
Substitution2: "sups subtable" colon.sups
Substitution2: "sinf subtable" colon.sinf
Substitution2: "ordn subtable" colon.ordn
Substitution2: "subs subtable" colon.subs
EndChar

StartChar: less
Encoding: 60 60 28
Width: 578
VWidth: 982
Flags: MW
LayerCount: 2
Fore
SplineSet
136 245 m 2
 502 79 l 2
 521 70 528 32 528 23 c 0
 528 18 523 10 517 10 c 0
 516 10 515 11 514 11 c 2
 85 211 l 2
 68 219 44 232 44 238 c 0
 44 247 57 275 77 284 c 2
 514 484 l 2
 515 484 516 485 517 485 c 0
 523 485 527 481 527 475 c 0
 527 463 514 425 494 416 c 2
 135 254 l 2
 130 252 131 247 136 245 c 2
EndSplineSet
Validated: 1
Substitution2: "sups subtable" less.sups
Substitution2: "sinf subtable" less.sinf
Substitution2: "ordn subtable" less.ordn
Substitution2: "subs subtable" less.subs
EndChar

StartChar: equal
Encoding: 61 61 29
Width: 459
VWidth: 982
Flags: MW
LayerCount: 2
Fore
SplineSet
95 86 m 2
 74 86 42 91 42 116 c 0
 42 134 63 152 95 152 c 2
 380 152 l 2
 405 152 422 139 422 124 c 0
 422 109 409 87 379 87 c 2
 95 86 l 2
95 244 m 2
 74 244 42 249 42 274 c 0
 42 292 63 310 95 310 c 2
 380 310 l 2
 405 310 422 297 422 282 c 0
 422 267 409 245 379 245 c 2
 95 244 l 2
EndSplineSet
Validated: 1
Substitution2: "sups subtable" equal.sups
Substitution2: "sinf subtable" equal.sinf
Substitution2: "ordn subtable" equal.ordn
Substitution2: "subs subtable" equal.subs
EndChar

StartChar: greater
Encoding: 62 62 30
Width: 578
VWidth: 982
Flags: MW
LayerCount: 2
Fore
SplineSet
442 250 m 2
 76 416 l 2
 57 425 50 463 50 472 c 0
 50 477 55 485 61 485 c 0
 62 485 63 484 64 484 c 2
 493 284 l 2
 510 276 534 263 534 257 c 0
 534 248 521 220 501 211 c 2
 64 11 l 2
 63 11 62 10 61 10 c 0
 55 10 51 14 51 20 c 0
 51 32 64 70 84 79 c 2
 443 241 l 2
 448 243 447 248 442 250 c 2
EndSplineSet
Validated: 1
Substitution2: "sups subtable" greater.sups
Substitution2: "sinf subtable" greater.sinf
Substitution2: "ordn subtable" greater.ordn
Substitution2: "subs subtable" greater.subs
EndChar

StartChar: question
Encoding: 63 63 31
Width: 266
VWidth: 982
Flags: MW
LayerCount: 2
Fore
SplineSet
230 363 m 0
 230 312 218 296 200 289 c 0
 174 279 157 275 126 263 c 0
 118 260 107 203 88 203 c 0
 73 203 62 259 62 286 c 0
 62 307 66 337 79 342 c 0
 104 352 124 356 145 365 c 0
 180 380 197 401 197 435 c 0
 197 456 179 480 163 485 c 0
 141 491 118 497 89 508 c 0
 67 516 53 528 53 555 c 0
 53 598 59 627 71 627 c 0
 192 627 230 520 230 363 c 0
162 65 m 0
 162 29 139 0 101 0 c 0
 69 0 42 24 42 57 c 0
 42 91 69 117 105 117 c 0
 136 117 162 97 162 65 c 0
EndSplineSet
Validated: 1
Substitution2: "sups subtable" question.sups
Substitution2: "sinf subtable" question.sinf
Substitution2: "ordn subtable" question.ordn
Substitution2: "subs subtable" question.subs
EndChar

StartChar: at
Encoding: 64 64 32
Width: 725
VWidth: 982
Flags: MW
LayerCount: 2
Fore
SplineSet
490 58 m 4
 449 58 446 100 436 100 c 4
 426 100 383 58 320 58 c 4
 254 58 193 102 193 172 c 4
 193 293 303 376 413 376 c 4
 433 376 466 367 478 363 c 4
 493 358 497 357 501 357 c 4
 511 357 516 376 526 376 c 4
 530 376 554 372 551 368 c 5
 542 344 532 304 529 288 c 6
 508 156 l 6
 507 147 505 138 505 129 c 4
 505 114 509 100 523 100 c 4
 593 100 645 153 645 236 c 4
 645 375 531 478 392 478 c 4
 234 478 100 376 100 207 c 4
 100 48 232 -70 391 -70 c 4
 456 -70 548 -40 598 2 c 4
 604 7 611 12 616 12 c 4
 625 12 630 8 630 -1 c 4
 630 -25 488 -115 380 -115 c 4
 202 -115 48 13 48 197 c 4
 48 411 221 523 412 523 c 4
 561 523 697 400 697 251 c 4
 697 134 597 58 490 58 c 4
391 341 m 4
 334 341 280 289 280 191 c 4
 280 119 318 97 356 97 c 4
 380 97 390 105 410 119 c 4
 422 127 431 137 437 168 c 6
 456 271 l 6
 457 275 457 279 457 283 c 4
 457 320 434 341 391 341 c 4
EndSplineSet
Validated: 1
Substitution2: "at_alternates subtable" at.01
Substitution2: "sups subtable" at.sups
Substitution2: "sinf subtable" at.sinf
Substitution2: "ordn subtable" at.ordn
Substitution2: "subs subtable" at.subs
EndChar

StartChar: A
Encoding: 65 65 33
Width: 649
VWidth: 982
Flags: HMW
AnchorPoint: "POJ_TOP_RIGHT" 527 573 basechar 0
AnchorPoint: "below_accent" 308 -80 basechar 0
AnchorPoint: "ogonek" 472 15 basechar 0
AnchorPoint: "cedilla" 130 15 basechar 0
AnchorPoint: "top_accent" 336 670 basechar 0
LayerCount: 2
Fore
SplineSet
523 4 m 0
 457 4 419 -2 389 -2 c 0
 376 -2 357 4 357 15 c 0
 357 30 389 35 411 45 c 0
 447 62 445 81 440 98 c 2
 411 193 l 2
 408 202 403 205 395 205 c 2
 228 205 l 2
 223 205 216 204 212 194 c 2
 174 85 l 2
 168 67 167 51 196 43 c 0
 222 36 233 25 233 15 c 0
 233 4 223 -2 198 -2 c 0
 179 -2 135 4 116 4 c 0
 91 4 68 -2 53 -2 c 0
 34 -2 20 4 20 15 c 0
 20 30 53 35 75 45 c 0
 108 60 107 65 122 106 c 2
 275 529 l 2
 292 572 292 585 303 586 c 0
 322 588 340 616 346 616 c 0
 363 616 369 583 383 544 c 2
 515 171 l 2
 544 90 555 63 604 45 c 0
 635 34 644 24 644 14 c 0
 644 3 634 -2 615 -2 c 0
 592 -2 556 4 523 4 c 0
238 272 m 2
 232 256 229 251 247 251 c 2
 369 251 l 2
 389 251 390 255 380 287 c 2
 319 474 l 2
 316 484 312 481 308 471 c 2
 238 272 l 2
EndSplineSet
Validated: 33
Substitution2: "c2sc subtable" A.sc
Substitution2: "sups subtable" A.sups
Substitution2: "sinf subtable" A.sinf
Substitution2: "ordn subtable" A.ordn
Substitution2: "subs subtable" A.subs
EndChar

StartChar: B
Encoding: 66 66 34
Width: 523
VWidth: 982
Flags: HMW
AnchorPoint: "below_accent" 280 -80 basechar 0
AnchorPoint: "cedilla" 281 15 basechar 0
AnchorPoint: "ogonek" 265 15 basechar 0
AnchorPoint: "top_accent" 269 670 basechar 0
LayerCount: 2
Fore
SplineSet
169 591 m 2
 193 591 250 596 295 596 c 0
 373 596 456 555 456 479 c 0
 456 408 422 354 365 335 c 0
 354 331 355 321 363 320 c 0
 438 309 498 261 498 180 c 0
 498 57 394 -2 261 -2 c 0
 240 -2 185 3 166 3 c 0
 119 3 60 -2 53 -2 c 0
 42 -1 20 5 20 15 c 0
 20 30 53 35 75 45 c 0
 109 60 122 92 122 129 c 2
 122 482 l 2
 122 539 97 540 40 556 c 0
 31 559 24 564 24 573 c 0
 24 585 38 591 59 591 c 2
 169 591 l 2
217 528 m 2
 217 355 l 2
 217 340 229 335 247 335 c 0
 308 335 370 385 370 446 c 0
 370 517 320 555 263 555 c 0
 223 555 217 549 217 528 c 2
217 85 m 2
 217 55 233 39 271 39 c 0
 346 39 387 100 387 168 c 0
 387 252 348 291 247 291 c 0
 232 291 217 285 217 264 c 2
 217 85 l 2
EndSplineSet
Validated: 1
Substitution2: "c2sc subtable" B.sc
Substitution2: "sups subtable" B.sups
Substitution2: "sinf subtable" B.sinf
Substitution2: "ordn subtable" B.ordn
Substitution2: "subs subtable" B.subs
EndChar

StartChar: C
Encoding: 67 67 35
Width: 677
VWidth: 982
Flags: MW
AnchorPoint: "below_accent" 400 -80 basechar 0
AnchorPoint: "cedilla" 427 15 basechar 0
AnchorPoint: "top_accent" 404 670 basechar 0
LayerCount: 2
Fore
SplineSet
408 608 m 0
 484 608 574 570 597 568 c 0
 620 566 627 513 627 458 c 0
 627 441 620 430 609 430 c 0
 594 430 582 451 569 493 c 0
 555 537 459 563 388 563 c 0
 259 563 158 455 158 317 c 0
 158 164 271 28 430 28 c 0
 531 28 554 98 607 173 c 0
 611 179 617 181 625 181 c 0
 633 181 641 171 641 153 c 0
 641 145 610 77 601 58 c 0
 585 25 580 18 555 9 c 0
 515 -5 445 -16 389 -16 c 0
 220 -16 46 97 46 275 c 0
 46 472 211 608 408 608 c 0
EndSplineSet
Validated: 1
Substitution2: "c2sc subtable" C.sc
Substitution2: "sups subtable" C.sups
Substitution2: "sinf subtable" C.sinf
Substitution2: "ordn subtable" C.ordn
Substitution2: "subs subtable" C.subs
EndChar

StartChar: D
Encoding: 68 68 36
Width: 716
VWidth: 982
Flags: HMW
AnchorPoint: "below_accent" 364 -80 basechar 0
AnchorPoint: "cedilla" 360 15 basechar 0
AnchorPoint: "ogonek" 394 15 basechar 0
AnchorPoint: "top_accent" 346 670 basechar 0
LayerCount: 2
Fore
SplineSet
337 598 m 0
 505 598 671 489 671 319 c 0
 671 146 574 -7 359 -7 c 0
 264 -7 211 4 165 4 c 0
 119 4 60 -2 53 -2 c 0
 42 -1 20 4 20 15 c 0
 20 30 53 35 75 45 c 0
 108 60 122 80 122 117 c 2
 122 482 l 2
 122 539 97 539 40 556 c 0
 31 559 24 564 24 573 c 0
 24 585 38 591 59 591 c 0
 90 591 109 590 139 590 c 0
 201 590 275 598 337 598 c 0
217 521 m 2
 217 123 l 2
 217 56 243 38 377 38 c 0
 496 38 559 172 559 299 c 0
 559 445 446 553 304 553 c 0
 261 553 217 543 217 521 c 2
EndSplineSet
Validated: 1
Substitution2: "c2sc subtable" D.sc
Substitution2: "sups subtable" D.sups
Substitution2: "sinf subtable" D.sinf
Substitution2: "ordn subtable" D.ordn
Substitution2: "subs subtable" D.subs
EndChar

StartChar: E
Encoding: 69 69 37
Width: 569
VWidth: 982
Flags: HMW
AnchorPoint: "POJ_TOP_RIGHT" 578 597 basechar 0
AnchorPoint: "below_accent" 308 -80 basechar 0
AnchorPoint: "ogonek" 472 15 basechar 0
AnchorPoint: "cedilla" 130 15 basechar 0
AnchorPoint: "top_accent" 306 670 basechar 0
LayerCount: 2
Fore
SplineSet
217 356 m 2
 217 332 226 325 240 325 c 2
 326 325 l 2
 358 325 369 336 387 353 c 0
 398 363 407 378 418 378 c 0
 427 378 429 370 429 358 c 0
 429 350 425 315 425 300 c 0
 425 285 426 254 426 243 c 0
 426 233 423 217 413 217 c 0
 400 217 387 245 381 255 c 0
 374 266 367 276 346 276 c 2
 241 276 l 2
 222 276 217 271 217 252 c 2
 217 84 l 2
 217 58 226 45 255 45 c 2
 395 45 l 2
 472 45 485 77 514 138 c 0
 519 149 532 157 541 157 c 0
 551 157 555 147 555 132 c 0
 555 104 525 30 517 17 c 0
 509 2 507 -2 490 -2 c 0
 453 -2 272 3 166 3 c 0
 119 3 60 -2 53 -2 c 0
 42 -1 20 5 20 15 c 0
 20 30 53 35 75 45 c 0
 109 60 122 80 122 117 c 2
 122 482 l 2
 122 539 97 540 40 556 c 0
 31 559 24 564 24 573 c 0
 24 585 38 591 59 591 c 2
 346 591 l 2
 388 591 447 596 465 596 c 0
 481 596 489 591 491 582 c 0
 495 566 500 511 500 500 c 0
 500 488 496 474 484 474 c 0
 472 474 457 492 448 512 c 0
 440 529 415 545 367 545 c 2
 248 545 l 2
 221 545 217 537 217 524 c 2
 217 356 l 2
EndSplineSet
Validated: 1
Substitution2: "c2sc subtable" E.sc
Substitution2: "sups subtable" E.sups
Substitution2: "sinf subtable" E.sinf
Substitution2: "ordn subtable" E.ordn
Substitution2: "subs subtable" E.subs
EndChar

StartChar: F
Encoding: 70 70 38
Width: 489
VWidth: 982
Flags: HMW
AnchorPoint: "below_accent" 167 -80 basechar 0
AnchorPoint: "cedilla" 172 15 basechar 0
AnchorPoint: "top_accent" 287 670 basechar 0
LayerCount: 2
Fore
SplineSet
53 -2 m 0
 42 -1 20 5 20 15 c 0
 20 30 53 35 75 45 c 0
 109 60 122 80 122 117 c 2
 122 482 l 2
 122 539 97 540 40 556 c 0
 31 559 24 564 24 573 c 0
 24 585 38 591 59 591 c 2
 338 591 l 2
 380 591 439 596 457 596 c 0
 473 596 481 591 483 582 c 0
 487 566 492 511 492 500 c 0
 492 488 488 474 476 474 c 0
 464 474 449 492 440 512 c 0
 432 529 407 545 359 545 c 2
 248 545 l 2
 221 545 217 537 217 524 c 2
 216 359 l 2
 216 335 225 328 239 328 c 2
 317 328 l 2
 349 328 360 339 378 356 c 0
 389 366 398 381 409 381 c 0
 418 381 420 373 420 361 c 0
 420 353 416 318 416 303 c 0
 416 288 417 257 417 246 c 0
 417 236 414 220 404 220 c 0
 391 220 378 248 372 258 c 0
 365 269 358 279 337 279 c 2
 240 279 l 2
 221 279 215.861328125 273.999023438 216 255 c 2
 217 118 l 2
 217 80 230 60 264 45 c 0
 286 35 319 30 319 15 c 0
 319 5 298 -1 287 -2 c 0
 280 -2 214 4 166 4 c 0
 119 4 60 -2 53 -2 c 0
EndSplineSet
Validated: 1572897
Substitution2: "c2sc subtable" F.sc
Substitution2: "sups subtable" F.sups
Substitution2: "sinf subtable" F.sinf
Substitution2: "ordn subtable" F.ordn
Substitution2: "subs subtable" F.subs
EndChar

StartChar: G
Encoding: 71 71 39
Width: 710
VWidth: 982
Flags: HMW
AnchorPoint: "below_accent" 384 -80 basechar 0
AnchorPoint: "cedilla" 360 15 basechar 0
AnchorPoint: "ogonek" 394 15 basechar 0
AnchorPoint: "top_accent" 415 670 basechar 0
LayerCount: 2
Fore
SplineSet
419 608 m 0
 512 608 528 592 595 574 c 0
 606 571 609 552 612 541 c 0
 616 526 624 471 624 443 c 0
 624 434 617 428 608 428 c 0
 600 428 589 441 575 468 c 0
 538 538 463 563 385 563 c 0
 252 563 158 439 158 303 c 0
 158 158 255 20 399 20 c 0
 452 20 528 41 528 58 c 2
 528 179 l 2
 528 200 496 212 474 220 c 0
 444 231 427 234 427 249 c 0
 427 260 438 265 448 265 c 0
 474 265 549 261 583 261 c 0
 616 261 645 265 670 265 c 0
 683 265 690 257 690 245 c 0
 690 239 679 227 666 222 c 0
 652 216 621 204 621 181 c 2
 621 76 l 2
 621 53 648 40 648 31 c 0
 648 8 459 -24 356 -24 c 0
 197 -24 46 109 46 268 c 0
 46 468 217 608 419 608 c 0
EndSplineSet
Validated: 1
Substitution2: "c2sc subtable" G.sc
Substitution2: "sups subtable" G.sups
Substitution2: "sinf subtable" G.sinf
Substitution2: "ordn subtable" G.ordn
Substitution2: "subs subtable" G.subs
EndChar

StartChar: H
Encoding: 72 72 40
Width: 725
VWidth: 982
Flags: HMW
AnchorPoint: "below_accent" 362 -80 basechar 0
AnchorPoint: "cedilla" 180 15 basechar 0
AnchorPoint: "ogonek" 567 15 basechar 0
AnchorPoint: "top_accent" 362 670 basechar 0
LayerCount: 2
Fore
SplineSet
217 266 m 2
 217 117 l 2
 217 80 220 60 254 45 c 0
 276 35 309 30 309 15 c 0
 309 5 288 -1 277 -2 c 0
 270 -2 214 4 166 4 c 0
 119 4 60 -2 53 -2 c 0
 42 -1 20 5 20 15 c 0
 20 30 53 35 75 45 c 0
 109 60 122 80 122 117 c 2
 122 482 l 2
 122 539 97 540 40 556 c 0
 31 559 24 564 24 573 c 0
 24 585 44 591 59 591 c 0
 98 591 134 586 170 586 c 0
 205 586 236 591 270 591 c 0
 285 591 305 585 305 573 c 0
 305 564 299 559 290 556 c 0
 233 540 217 539 217 482 c 2
 217 334 l 2
 217 329 220 323 230 323 c 2
 495 323 l 2
 505 323 508 326 508 336 c 2
 508 482 l 2
 508 539 493 540 436 556 c 0
 427 559 420 564 420 573 c 0
 420 585 440 591 455 591 c 0
 494 591 520 586 556 586 c 0
 591 586 632 591 666 591 c 0
 681 591 701 585 701 573 c 0
 701 564 695 559 686 556 c 0
 629 540 603 539 603 482 c 2
 603 117 l 2
 603 80 616 60 650 45 c 0
 672 35 705 30 705 15 c 0
 705 5 684 -1 673 -2 c 0
 666 -2 600 4 552 4 c 0
 505 4 456 -2 449 -2 c 0
 438 -1 416 5 416 15 c 0
 416 30 449 35 471 45 c 0
 505 60 508 80 508 117 c 2
 508 264 l 2
 508 274 504 275 494 275 c 2
 232 275 l 2
 222 275 217 276 217 266 c 2
EndSplineSet
Validated: 1
Substitution2: "c2sc subtable" H.sc
Substitution2: "sups subtable" H.sups
Substitution2: "sinf subtable" H.sinf
Substitution2: "ordn subtable" H.ordn
Substitution2: "subs subtable" H.subs
EndChar

StartChar: I
Encoding: 73 73 41
Width: 339
VWidth: 982
Flags: HMW
AnchorPoint: "POJ_TOP_RIGHT" 333 473 basechar 0
AnchorPoint: "below_accent" 170 -80 basechar 0
AnchorPoint: "cedilla" 183 15 basechar 0
AnchorPoint: "ogonek" 205 15 basechar 0
AnchorPoint: "top_accent" 170 670 basechar 0
LayerCount: 2
Fore
SplineSet
280 591 m 0
 295 591 315 585 315 573 c 0
 315 564 309 559 300 556 c 0
 243 540 217 539 217 482 c 2
 217 117 l 2
 217 80 230 60 264 45 c 0
 286 35 319 30 319 15 c 0
 319 5 298 -1 287 -2 c 0
 280 -2 214 4 166 4 c 0
 119 4 60 -2 53 -2 c 0
 42 -1 20 5 20 15 c 0
 20 30 53 35 75 45 c 0
 109 60 122 80 122 117 c 2
 122 482 l 2
 122 539 97 540 40 556 c 0
 31 559 24 564 24 573 c 0
 24 585 44 591 59 591 c 0
 98 591 134 586 170 586 c 0
 205 586 246 591 280 591 c 0
EndSplineSet
Validated: 1
Substitution2: "c2sc subtable" I.sc
Substitution2: "sups subtable" I.sups
Substitution2: "sinf subtable" I.sinf
Substitution2: "ordn subtable" I.ordn
Substitution2: "subs subtable" I.subs
EndChar

StartChar: J
Encoding: 74 74 42
Width: 314
VWidth: 982
Flags: MW
AnchorPoint: "top_accent" 171 670 basechar 0
LayerCount: 2
Fore
SplineSet
217 481 m 2
 217 140 l 2
 217 -70 188 -102 157 -136 c 0
 125 -171 84 -193 25 -193 c 0
 -40 -193 -69 -164 -69 -143 c 0
 -69 -116 -51 -87 -33 -87 c 0
 -7 -87 5 -95 17 -113 c 0
 32 -136 47 -151 64 -151 c 0
 111 -151 122 -91 122 6 c 2
 122 481 l 2
 122 539 97 540 40 556 c 0
 31 559 24 564 24 573 c 0
 24 585 44 591 59 591 c 0
 98 591 134 586 170 586 c 0
 205 586 246 591 280 591 c 0
 295 591 315 585 315 573 c 0
 315 564 309 559 300 556 c 0
 243 540 217 539 217 481 c 2
EndSplineSet
Validated: 1
Substitution2: "c2sc subtable" J.sc
Substitution2: "historic_j subtable" J.hist
Substitution2: "sups subtable" J.sups
Substitution2: "sinf subtable" J.sinf
Substitution2: "ordn subtable" J.ordn
Substitution2: "subs subtable" J.subs
EndChar

StartChar: K
Encoding: 75 75 43
Width: 628
VWidth: 982
Flags: HMW
AnchorPoint: "below_accent" 389 -80 basechar 0
AnchorPoint: "cedilla" 180 15 basechar 0
AnchorPoint: "ogonek" 567 15 basechar 0
AnchorPoint: "top_accent" 346 670 basechar 0
LayerCount: 2
Fore
SplineSet
393 555 m 0
 383 558 376 564 376 573 c 0
 376 585 396 591 411 591 c 0
 426 591 481 586 496 586 c 0
 511 586 566 591 581 591 c 0
 596 591 609 585 609 573 c 0
 609 564 598.814145098 554.190361934 586 552 c 0
 528.829198793 542.227615985 482.402218872 514.03453409 439 467 c 2
 329.5 348.5 l 2
 315.864257812 333.8671875 307.809624595 332.188932849 328 310 c 2
 518 92 l 2
 544.952385078 61.1039009156 580 52 618 52 c 0
 632 52 643 38 643 34 c 0
 643 18 619 -8 577 -8 c 0
 516.8828125 -8 472.442514748 1.7861964619 433 47 c 2
 277 226 l 2
 258.483398438 247.002929688 245 258 232 258 c 0
 221 258 217 253 217 242 c 2
 217 117 l 2
 217 80 230 60 264 45 c 0
 286 35 319 30 319 15 c 0
 319 5 298 -1 287 -2 c 0
 280 -2 214 4 166 4 c 0
 119 4 60 -2 53 -2 c 0
 42 -1 20 5 20 15 c 0
 20 30 53 35 75 45 c 0
 109 60 122 80 122 117 c 2
 122 482 l 2
 122 539 97 540 40 556 c 0
 31 559 24 564 24 573 c 0
 24 585 44 591 59 591 c 0
 98 591 134 586 170 586 c 0
 205 586 246 591 280 591 c 0
 295 591 315 585 315 573 c 0
 315 564 309 559 300 556 c 0
 243 540 217 539 217 482 c 2
 217 349 l 2
 217 336 223 331 235 331 c 0
 242 331 256.424804688 345.331054688 282 374 c 2
 406 513 l 2
 414 523 418 547 393 555 c 0
EndSplineSet
Validated: 524321
Substitution2: "c2sc subtable" K.sc
Substitution2: "sups subtable" K.sups
Substitution2: "sinf subtable" K.sinf
Substitution2: "ordn subtable" K.ordn
Substitution2: "subs subtable" K.subs
EndChar

StartChar: L
Encoding: 76 76 44
Width: 591
VWidth: 982
Flags: HMW
AnchorPoint: "below_accent" 308 -80 basechar 0
AnchorPoint: "top_right" 480 546 basechar 0
AnchorPoint: "cedilla" 353 15 basechar 0
AnchorPoint: "ogonek" 458 15 basechar 0
AnchorPoint: "top_accent" 169 670 basechar 0
LayerCount: 2
Fore
SplineSet
217 85 m 2
 217 56 230 45 261 45 c 2
 395 45 l 2
 472 45 485 105 514 166 c 0
 519 177 532 185 541 185 c 0
 551 185 559 166 559 138 c 0
 559 111 534 30 526 17 c 0
 518 2 515 -2 498 -2 c 0
 461 -2 272 3 166 3 c 0
 119 3 60 -2 53 -2 c 0
 42 -1 20 5 20 15 c 0
 20 30 53 35 75 45 c 0
 109 60 122 80 122 117 c 2
 122 482 l 2
 122 539 97 540 40 556 c 0
 31 559 24 564 24 573 c 0
 24 585 38 591 60 591 c 0
 99 591 135 586 171 586 c 0
 206 586 247 591 281 591 c 0
 296 591 316 585 316 573 c 0
 316 564 310 559 301 556 c 0
 244 540 217 539 217 482 c 2
 217 85 l 2
EndSplineSet
Validated: 1048577
Substitution2: "c2sc subtable" L.sc
Substitution2: "sups subtable" L.sups
Substitution2: "sinf subtable" L.sinf
Substitution2: "ordn subtable" L.ordn
Substitution2: "subs subtable" L.subs
EndChar

StartChar: M
Encoding: 77 77 45
Width: 813
VWidth: 982
Flags: HMW
AnchorPoint: "below_accent" 402 -80 basechar 0
AnchorPoint: "ogonek" 472 15 basechar 0
AnchorPoint: "cedilla" 130 15 basechar 0
AnchorPoint: "top_accent" 406 670 basechar 0
LayerCount: 2
Fore
SplineSet
711 129 m 2
 713 92 724 60 758 45 c 0
 780 35 813 30 813 15 c 0
 813 5 792 -1 781 -2 c 0
 774 -2 708 4 660 4 c 0
 613 4 554 -2 547 -2 c 0
 536 -1 514 5 514 15 c 0
 514 30 547 35 569 45 c 0
 603 60 618 92 616 129 c 2
 603 444 l 2
 602.162486925 463.982456602 584.974981379 459.341201488 577 441 c 2
 442 131 l 2
 438 122 396 36 387 36 c 0
 377 36 369 44 348 98 c 2
 225 413 l 2
 210.106699551 451.199340331 201.587262028 437.951504759 200 412 c 2
 183 133 l 2
 181 106 188 57 214 45 c 0
 236 35 269 30 269 15 c 0
 269 5 248 -1 237 -2 c 0
 230 -2 186 4 138 4 c 0
 91 4 53 -2 46 -2 c 0
 35 -1 13 5 13 15 c 0
 13 30 45 35 68 45 c 0
 102 60 119 100 126 150 c 2
 160 416 l 2
 169 487 153 506 128 529 c 0
 110 546 74 561 74 577 c 0
 74 592 96 591 108 591 c 0
 144 591 173 586 219 586 c 0
 246 586 263 568 282 523 c 2
 399 236 l 2
 407.31249731 215.630847134 411.786318447 199.154765104 430 237 c 2
 587 563 l 2
 598 586 612 586 638 586 c 0
 664 586 733 596 765 596 c 0
 777 596 781 589 781 579 c 0
 781 569 773 566 733 549 c 0
 702 536 691 516 694 459 c 2
 711 129 l 2
EndSplineSet
Validated: 524321
Substitution2: "c2sc subtable" M.sc
Substitution2: "sups subtable" M.sups
Substitution2: "sinf subtable" M.sinf
Substitution2: "ordn subtable" M.ordn
Substitution2: "subs subtable" M.subs
EndChar

StartChar: N
Encoding: 78 78 46
Width: 685
VWidth: 982
Flags: HMW
AnchorPoint: "below_accent" 378 -80 basechar 0
AnchorPoint: "ogonek" 472 15 basechar 0
AnchorPoint: "cedilla" 130 15 basechar 0
AnchorPoint: "top_accent" 346 670 basechar 0
LayerCount: 2
Fore
SplineSet
167 129 m 2
 167 91 180 60 214 45 c 0
 236 35 269 30 269 15 c 0
 269 5 248 -1 237 -2 c 0
 230 -2 186 4 138 4 c 0
 91 4 53 -2 46 -2 c 0
 35 -1 13 5 13 15 c 0
 13 30 46 35 68 45 c 0
 102 60 115 91 115 129 c 2
 115 390 l 2
 115 438 112 474 101 487 c 2
 64 527 l 2
 42.2578782636 550.479355664 4 557 4 575 c 0
 4 583 11 586 25 586 c 2
 130 586 l 2
 152 586 173 561 183 550 c 2
 516 176 l 2
 529.304607093 161.067236354 544 156 544 176 c 2
 544 482 l 2
 544 540 519 540 462 556 c 0
 453 559 446 564 446 573 c 0
 446 585 466 591 481 591 c 0
 520 591 536 586 572 586 c 0
 607 586 628 591 662 591 c 0
 677 591 697 585 697 573 c 0
 697 564 691 559 682 556 c 0
 625 540 599 540 599 482 c 2
 599 83 l 2
 599 36 602 28 602 1 c 0
 602 -9 592 -11 582 -11 c 0
 571 -11 535 7 497 49 c 2
 186 394 l 2
 175.963040905 405.147172382 167 406 167 384 c 2
 167 129 l 2
EndSplineSet
Validated: 524289
Substitution2: "c2sc subtable" N.sc
Substitution2: "sups subtable" N.sups
Substitution2: "sinf subtable" N.sinf
Substitution2: "ordn subtable" N.ordn
Substitution2: "subs subtable" N.subs
EndChar

StartChar: O
Encoding: 79 79 47
Width: 713
VWidth: 982
Flags: HMW
AnchorPoint: "POJ_TOP_RIGHT" 633 607 basechar 0
AnchorPoint: "below_accent" 370 -80 basechar 0
AnchorPoint: "cedilla" 391 15 basechar 0
AnchorPoint: "ogonek" 449 15 basechar 0
AnchorPoint: "top_accent" 362 670 basechar 0
LayerCount: 2
Fore
SplineSet
390 598 m 0
 526 598 663 456 663 310 c 0
 663 139 537 -12 366 -12 c 0
 187 -12 50 113 50 295 c 0
 50 484 192 598 390 598 c 0
162 330 m 0
 162 191 241 34 380 34 c 0
 499 34 551 161 551 280 c 0
 551 410 482 552 352 552 c 0
 242 552 162 440 162 330 c 0
EndSplineSet
Validated: 1
Substitution2: "c2sc subtable" O.sc
Substitution2: "sups subtable" O.sups
Substitution2: "sinf subtable" O.sinf
Substitution2: "ordn subtable" O.ordn
Substitution2: "subs subtable" O.subs
EndChar

StartChar: P
Encoding: 80 80 48
Width: 535
VWidth: 982
Flags: HMW
AnchorPoint: "below_accent" 168 -80 basechar 0
AnchorPoint: "cedilla" 178 15 basechar 0
AnchorPoint: "top_accent" 277 670 basechar 0
LayerCount: 2
Fore
SplineSet
214 534 m 2
 214 117 l 2
 214 80 227 60 261 45 c 0
 283 35 316 30 316 15 c 0
 316 5 295 -1 284 -2 c 0
 277 -2 211 4 163 4 c 0
 120 4 60 -2 53 -2 c 0
 42 -1 20 5 20 15 c 0
 20 30 53 35 75 45 c 0
 109 60 122 80 122 117 c 2
 122 482 l 2
 122 539 97 540 40 556 c 0
 31 559 24 564 24 573 c 0
 24 585 38 590 59 591 c 0
 147 598 188 601 277 601 c 0
 378 601 490 557 490 456 c 0
 490 374 438 325 368 287 c 0
 331 267 315 267 304 267 c 0
 293 267 286 272 286 284 c 0
 286 294 301 296 329 320 c 0
 368 353 390 389 390 441 c 0
 390 508 331 557 264 557 c 0
 228 557 214 549 214 534 c 2
EndSplineSet
Validated: 1048577
Substitution2: "c2sc subtable" P.sc
Substitution2: "sups subtable" P.sups
Substitution2: "sinf subtable" P.sinf
Substitution2: "ordn subtable" P.ordn
Substitution2: "subs subtable" P.subs
EndChar

StartChar: Q
Encoding: 81 81 49
Width: 721
VWidth: 982
Flags: HMW
AnchorPoint: "top_accent" 375 670 basechar 0
LayerCount: 2
Fore
SplineSet
345 -50.5 m 0
 322.373046875 -27.873046875 259.87890625 -14.708984375 232 1 c 0
 126.208984375 60.6103515625 50 152 50 281 c 0
 50 461 204 605 382 605 c 0
 541 605 671 470 671 311 c 0
 671 207 608 100.5 530 43.5 c 0
 477 4.5 451 1.5 450 -16 c 0
 450 -19 453.568359375 -26.5263671875 456 -30 c 0
 468.619140625 -48.021484375 503.905273438 -89.1474609375 547 -120 c 0
 608.795898438 -164.241210938 663 -194 732 -194 c 0
 753 -194 779 -191 788 -187 c 0
 794 -185 801 -183 807 -183 c 0
 813 -183 818 -189 818 -195 c 0
 818 -236 723 -254 692 -254 c 0
 596 -254 545.620117188 -217.48828125 472 -164 c 0
 426.6953125 -131.083984375 388.133789062 -93.6337890625 345 -50.5 c 0
162 325 m 0
 162 181 225 21 369 21 c 0
 415 21 465 53 499 87 c 0
 547 135 559 201 559 276 c 0
 559 421 483 560 347 560 c 0
 233 560 162 439 162 325 c 0
EndSplineSet
Validated: 524289
Substitution2: "Single Substitution lookup 69 subtable" Q.low
Substitution2: "Single Substitution lookup 68 subtable" Q.short
Substitution2: "Single Substitution lookup 67 subtable" Q.long
Substitution2: "Single Substitution lookup 66 subtable" Q.long
Substitution2: "c2sc subtable" Q.sc
Substitution2: "sups subtable" Q.sups
Substitution2: "sinf subtable" Q.sinf
Substitution2: "ordn subtable" Q.ordn
Substitution2: "subs subtable" Q.subs
EndChar

StartChar: R
Encoding: 82 82 50
Width: 651
VWidth: 982
Flags: HMW
AnchorPoint: "below_accent" 372 -80 basechar 0
AnchorPoint: "cedilla" 182 15 basechar 0
AnchorPoint: "top_accent" 273 670 basechar 0
LayerCount: 2
Fore
SplineSet
255 300 m 0
 285 300 320 310 329 320 c 1
 368 353 390 387 390 439 c 0
 390 506 331 553 264 553 c 0
 236 553 214 538 214 519 c 2
 214 326 l 2
 214 308 226.961822983 300 255 300 c 0
419 246 m 0
 468 173 531 93 606 39 c 0
 618 30 641 25 663 23 c 0
 674 22 680 14 680 6 c 0
 680 -12 645 -24 610 -24 c 0
 561 -24 511 -7 483 23 c 0
 424 85 377 144 325 231 c 0
 313 251 284 264 242 264 c 0
 221 264 214 257 214 237 c 2
 214 117 l 2
 214 80 227 60 261 45 c 0
 283 35 316 30 316 15 c 0
 316 5 295 -1 284 -2 c 0
 277 -2 211 4 163 4 c 0
 120 4 60 -2 53 -2 c 0
 42 -1 20 5 20 15 c 0
 20 30 53 35 75 45 c 0
 109 60 122 80 122 117 c 2
 122 478 l 2
 122 535 97 536 40 552 c 0
 31 555 24 560 24 569 c 0
 24 581 38 586 59 587 c 0
 147 594 188 597 277 597 c 0
 378 597 490 555 490 454 c 0
 490 390 458 348 411 314 c 0
 398 304 394 305 394 296 c 0
 394 287 406 265 419 246 c 0
EndSplineSet
Validated: 1572865
Substitution2: "c2sc subtable" R.sc
Substitution2: "sups subtable" R.sups
Substitution2: "sinf subtable" R.sinf
Substitution2: "ordn subtable" R.ordn
Substitution2: "subs subtable" R.subs
EndChar

StartChar: S
Encoding: 83 83 51
Width: 409
VWidth: 982
Flags: HMW
AnchorPoint: "below_accent" 194 -80 basechar 0
AnchorPoint: "cedilla" 237 15 basechar 0
AnchorPoint: "top_accent" 232 670 basechar 0
LayerCount: 2
Fore
SplineSet
232 601 m 0
 264 601 310.926310179 586.73678907 333 575 c 0
 351.54189945 565.141097181 360.916221868 557.817693036 363 546 c 0
 365.778370843 530.243075952 367 508 367 489 c 0
 367 476 362 462 347 462 c 0
 335 462 322 472 307 508 c 0
 297 532 257 544 228 544 c 0
 185 544 146 509 146 465 c 0
 146 432 167 406 197 381 c 2
 338 262 l 2
 369 236 386 202 386 160 c 0
 386 62 285 -11 185 -11 c 0
 150 -11 104 0 80 11 c 0
 43 28 34 33 34 47 c 0
 34 61 37.8432865696 103.197499211 40.1007128793 116 c 0
 42.3581391889 128.802500789 49 140 59 140 c 0
 75 140 84 123 93 93 c 0
 104 57 143 28 201 28 c 0
 251 28 288 74 288 124 c 0
 288 158 273 183 248 204 c 2
 113 318 l 2
 77 348 54 384 54 433 c 0
 54 527 134 601 232 601 c 0
EndSplineSet
Validated: 1572865
Substitution2: "c2sc subtable" S.sc
Substitution2: "sups subtable" S.sups
Substitution2: "sinf subtable" S.sinf
Substitution2: "ordn subtable" S.ordn
Substitution2: "subs subtable" S.subs
EndChar

StartChar: T
Encoding: 84 84 52
Width: 592
VWidth: 982
Flags: HMW
AnchorPoint: "below_accent" 312 -80 basechar 0
AnchorPoint: "cedilla" 332 15 basechar 0
AnchorPoint: "top_accent" 315 670 basechar 0
LayerCount: 2
Fore
SplineSet
266 505 m 2
 266 525 260 536 250 536 c 2
 128 536 l 2
 102 536 95 524 85 506 c 8
 74.0732421875 486.333007812 67 458 53 458 c 0
 40 458 35 472 35 481 c 0
 35 504 40 512 40 544 c 0
 40 560 38 579 38 589 c 0
 38 602 45 614 55 614 c 0
 70 614 95 584 150 584 c 2
 499 584 l 2
 535 584 551 591 569 601 c 0
 581 608 586 616 598 616 c 0
 610 616 616 606 616 598 c 0
 616 589 612 577 612 555 c 0
 612 531 614 497 614 486 c 0
 614 471 612 463 600 463 c 0
 590 463 575 489 564 508 c 8
 555.087890625 523.393554688 542 536 528 536 c 2
 373 536 l 2
 363 536 361 515 361 505 c 2
 361 117 l 2
 361 80 374 60 408 45 c 0
 430 35 463 30 463 15 c 0
 463 5 442 -1 431 -2 c 0
 424 -2 358 4 310 4 c 0
 263 4 204 -2 197 -2 c 0
 186 -1 164 5 164 15 c 0
 164 30 197 35 219 45 c 0
 253 60 266 80 266 117 c 2
 266 505 l 2
EndSplineSet
Validated: 1572865
Substitution2: "c2sc subtable" T.sc
Substitution2: "sups subtable" T.sups
Substitution2: "sinf subtable" T.sinf
Substitution2: "ordn subtable" T.ordn
Substitution2: "subs subtable" T.subs
EndChar

StartChar: U
Encoding: 85 85 53
Width: 617
VWidth: 982
Flags: HMW
AnchorPoint: "POJ_TOP_RIGHT" 648 467 basechar 0
AnchorPoint: "below_accent" 320 -80 basechar 0
AnchorPoint: "cedilla" 336 15 basechar 0
AnchorPoint: "ogonek" 402 15 basechar 0
AnchorPoint: "top_accent" 342 670 basechar 0
LayerCount: 2
Fore
SplineSet
560 492 m 2
 560 250 l 2
 560 95 458 -6 311 -6 c 0
 132 -6 86 95 86 248 c 2
 86 482 l 2
 86 530 79 535 16 556 c 0
 7 559 0 564 0 573 c 0
 0 585 20 591 35 591 c 0
 74 591 78 586 114 586 c 0
 149 586 194 591 228 591 c 0
 243 591 263 585 263 573 c 0
 263 564 257 559 248 556 c 0
 205 542 181 524 181 484 c 2
 181 284 l 2
 181 124 210 44 332 44 c 0
 469 44 503 148 503 304 c 2
 503 490 l 2
 503 542 492 541 450 555 c 0
 441 558 433 564 433 573 c 0
 433 585 453 591 468 591 c 0
 483 591 518 586 533 586 c 0
 548 586 582 591 597 591 c 0
 612 591 632 585 632 573 c 0
 632 564 624 559 615 556 c 0
 569 541 560 531 560 492 c 2
EndSplineSet
Validated: 1
Substitution2: "c2sc subtable" U.sc
Substitution2: "Single Substitution lookup 41 subtable" U.LAT
Substitution2: "sups subtable" U.sups
Substitution2: "sinf subtable" U.sinf
Substitution2: "ordn subtable" U.ordn
Substitution2: "subs subtable" U.subs
Substitution2: "loclLAT subtable" U.LAT
EndChar

StartChar: V
Encoding: 86 86 54
Width: 557
VWidth: 982
Flags: HMW
AnchorPoint: "below_accent" 296 -80 basechar 0
AnchorPoint: "cedilla" 299 15 basechar 0
AnchorPoint: "top_accent" 308 670 basechar 0
LayerCount: 2
Fore
SplineSet
394 555 m 0
 385 558 377 564 377 573 c 0
 377 585 397 591 412 591 c 0
 427 591 469 586 484 586 c 0
 499 586 533 591 548 591 c 0
 563 591 583 585 583 573 c 0
 583 564 575 559 566 556 c 0
 520 541 502 508 486 463 c 2
 362 121 l 2
 345.32140204 74.9258817765 309 -15 296 -15 c 0
 288 -15 273.48103253 12.8133804275 258 54 c 2
 106 458 l 2
 89 504 79 535 16 556 c 0
 7 559 0 564 0 573 c 0
 0 585 20 591 35 591 c 0
 74 591 78 586 114 586 c 0
 149 586 204 591 238 591 c 0
 253 591 273 585 273 573 c 0
 273 564 267 559 258 556 c 0
 215 542 179 524 195 480 c 2
 315 161 l 2
 320.277624726 146.959106964 323.29011316 145.758617835 328 160 c 2
 434 453 l 2
 457 522 436 541 394 555 c 0
EndSplineSet
Validated: 1572897
Substitution2: "c2sc subtable" V.sc
Substitution2: "sups subtable" V.sups
Substitution2: "sinf subtable" V.sinf
Substitution2: "ordn subtable" V.ordn
Substitution2: "subs subtable" V.subs
EndChar

StartChar: W
Encoding: 87 87 55
Width: 914
VWidth: 982
Flags: HMW
AnchorPoint: "below_accent" 457 -80 basechar 0
AnchorPoint: "cedilla" 293 15 basechar 0
AnchorPoint: "top_accent" 466 670 basechar 0
LayerCount: 2
Fore
SplineSet
711 555 m 0
 702 558 694 564 694 573 c 0
 694 585 714 591 729 591 c 0
 744 591 786 586 801 586 c 0
 816 586 850 591 865 591 c 0
 880 591 900 585 900 573 c 0
 900 564 892 559 883 556 c 0
 837 541 819 508 803 463 c 2
 679 121 l 2
 662.321289062 74.92578125 626 -15 613 -15 c 0
 605 -15 590.481445312 12.8134765625 575 54 c 2
 454.159404389 375.181583072 l 1
 362 121 l 2
 345.32140204 74.9258817765 309 -15 296 -15 c 0
 288 -15 273.48103253 12.8133804275 258 54 c 2
 106 458 l 2
 89 504 79 535 16 556 c 0
 7 559 0 564 0 573 c 0
 0 585 20 591 35 591 c 0
 74 591 78 586 114 586 c 0
 149 586 204 591 238 591 c 0
 253 591 273 585 273 573 c 0
 273 564 267 559 258 556 c 0
 215 542 179 524 195 480 c 2
 315 161 l 2
 320.277624726 146.959106964 323.29011316 145.758617835 328 160 c 2
 429.529945055 440.644093407 l 1
 423 458 l 2
 406 504 393.699420524 541.795793337 351 556 c 0
 341.511239884 559.156490369 335 564 335 573 c 0
 335 585 355 591 370 591 c 0
 409 591 413 586 449 586 c 0
 484 586 521 591 555 591 c 0
 570 591 590 585 590 573 c 0
 590 564 584 559 575 556 c 0
 532 542 496 524 512 480 c 2
 632 161 l 2
 637.27734375 146.958984375 640.290039062 145.758789062 645 160 c 2
 751 453 l 1
 774 522 753 541 711 555 c 0
EndSplineSet
Validated: 1572897
Substitution2: "c2sc subtable" W.sc
Substitution2: "sups subtable" W.sups
Substitution2: "sinf subtable" W.sinf
Substitution2: "ordn subtable" W.ordn
Substitution2: "subs subtable" W.subs
EndChar

StartChar: X
Encoding: 88 88 56
Width: 612
VWidth: 982
Flags: MW
AnchorPoint: "below_accent" 293 -80 basechar 0
AnchorPoint: "ogonek" 472 15 basechar 0
AnchorPoint: "cedilla" 130 15 basechar 0
AnchorPoint: "top_accent" 328 670 basechar 0
LayerCount: 2
Fore
SplineSet
256 527 m 0
 256 522 261 502 265 495 c 2
 333 369 l 1
 387 450 l 2
 401 472 419 505 419 521 c 0
 419 533 407 549 389 555 c 0
 380 558 372 564 372 573 c 0
 372 585 392 590 407 590 c 0
 422 590 464 586 479 586 c 0
 494 586 528 590 543 590 c 0
 558 590 578 585 578 573 c 0
 578 564 570 559 561 556 c 0
 501 536 472 507 449 472 c 2
 355 327 l 1
 467 120 l 2
 481 94 507 63 556 45 c 0
 587 34 596 24 596 14 c 0
 596 3 586 -2 567 -2 c 0
 544 -2 508 4 475 4 c 0
 409 4 371 -2 341 -2 c 0
 328 -2 309 4 309 15 c 0
 309 30 341 35 363 45 c 0
 399 62 386 84 373 106 c 2
 300 242 l 1
 203 92 l 2
 192 76 182 48 201 43 c 0
 227 36 233 25 233 15 c 0
 233 4 223 -2 198 -2 c 0
 179 -2 135 4 116 4 c 0
 91 4 68 -2 53 -2 c 0
 34 -2 20 4 20 15 c 0
 20 30 53 35 75 45 c 0
 108 60 135 76 161 110 c 1
 277 285 l 1
 201 426 l 2
 183 460 145 529 79 552 c 0
 70 555 59 564 59 573 c 0
 59 585 79 590 94 590 c 0
 133 590 137 586 173 586 c 0
 208 586 235 590 269 590 c 0
 284 590 304 585 304 573 c 0
 304 564 298 559 289 556 c 0
 260 546 256 534 256 527 c 0
EndSplineSet
Validated: 33
Substitution2: "c2sc subtable" X.sc
Substitution2: "sups subtable" X.sups
Substitution2: "sinf subtable" X.sinf
Substitution2: "ordn subtable" X.ordn
Substitution2: "subs subtable" X.subs
EndChar

StartChar: Y
Encoding: 89 89 57
Width: 521
VWidth: 982
Flags: HMW
AnchorPoint: "below_accent" 262 -80 basechar 0
AnchorPoint: "cedilla" 275 15 basechar 0
AnchorPoint: "top_accent" 284 670 basechar 0
LayerCount: 2
Fore
SplineSet
325 118 m 2
 325 80 338 60 372 45 c 0
 394 35 427 30 427 15 c 0
 427 5 406 -1 395 -2 c 0
 388 -2 322 4 274 4 c 0
 227 4 168 -2 161 -2 c 0
 150 -1 128 5 128 15 c 0
 128 30 161 35 183 45 c 0
 217 60 230 80 230 118 c 2
 230 232 l 2
 230 256 225.099607724 263.005297887 214 282 c 2
 118 446 l 2
 77.1865 515.967 53 544 16 556 c 0
 7 559 0 564 0 573 c 0
 0 585 20 591 35 591 c 0
 74 591 78 586 114 586 c 0
 149 586 176 591 210 591 c 0
 225 591 245 585 245 573 c 0
 245 564 239 559 230 556 c 0
 201 546 185.42578125 521.29296875 196 502 c 2
 287 346 l 2
 295.576969605 331.32227564 298.734079298 329.275928415 308 347 c 2
 396 515 l 2
 402.356 527.474 385 549 367 555 c 0
 358 558 350 564 350 573 c 0
 350 585 370 591 385 591 c 0
 400 591 442 586 457 586 c 0
 472 586 506 591 521 591 c 0
 536 591 556 585 556 573 c 0
 556 564 548 559 539 556 c 0
 479 536 455.211 523.352 420 456 c 2
 343 309 l 2
 327.247934806 278.869078306 325 268 325 254 c 2
 325 118 l 2
EndSplineSet
Validated: 1572897
Substitution2: "c2sc subtable" Y.sc
Substitution2: "sups subtable" Y.sups
Substitution2: "sinf subtable" Y.sinf
Substitution2: "ordn subtable" Y.ordn
Substitution2: "subs subtable" Y.subs
EndChar

StartChar: Z
Encoding: 90 90 58
Width: 591
VWidth: 982
Flags: HMW
AnchorPoint: "below_accent" 308 -80 basechar 0
AnchorPoint: "cedilla" 327 15 basechar 0
AnchorPoint: "top_accent" 294 670 basechar 0
LayerCount: 2
Fore
SplineSet
258 3 m 0
 182 3 121 -2 55 -2 c 0
 43 -2 37 6 37 26 c 0
 37 34 62 62 100 115 c 2
 386 520 l 2
 398.10507864 537.160042865 393 542 373 542 c 2
 178 542 l 2
 141 542 124 531 111 516 c 0
 92 494 64 454 55 454 c 0
 43 454 40 468 40 482 c 0
 40 490 44.7197265625 538.4140625 51 574 c 16
 54 591 62 596 74 596 c 0
 92 596 111 585 158 585 c 2
 340 585 l 2
 368 585 465 588 499 588 c 0
 521 588 538 590 538 565 c 0
 538 554 525 535 501 502 c 2
 189 65 l 2
 177.385940886 48.7176896329 183 45 203 45 c 2
 418 45 l 2
 495 45 508 105 537 166 c 0
 542 177 555 185 564 185 c 0
 574 185 582 166 582 138 c 0
 582 111 557 30 549 17 c 0
 541 2 538 -2 521 -2 c 0
 484 -2 288 3 258 3 c 0
EndSplineSet
Validated: 1572897
Substitution2: "c2sc subtable" Z.sc
Substitution2: "sups subtable" Z.sups
Substitution2: "sinf subtable" Z.sinf
Substitution2: "ordn subtable" Z.ordn
Substitution2: "subs subtable" Z.subs
EndChar

StartChar: bracketleft
Encoding: 91 91 59
Width: 268
VWidth: 982
Flags: MW
LayerCount: 2
Fore
SplineSet
85 584 m 2
 250 584 l 2
 260 584 268 580 268 570 c 0
 268 560 262 541 242 541 c 2
 134 541 l 2
 104 541 95 528 95 498 c 2
 95 -104 l 2
 95 -134 101 -156 130 -156 c 2
 242 -156 l 2
 258 -156 268 -159 268 -171 c 0
 268 -183 254 -199 242 -199 c 2
 78 -199 l 2
 55 -199 47 -198 47 -174 c 2
 47 550 l 2
 47 584 53 584 85 584 c 2
EndSplineSet
Validated: 1
Substitution2: "sups subtable" bracketleft.sups
Substitution2: "sinf subtable" bracketleft.sinf
Substitution2: "ordn subtable" bracketleft.ordn
Substitution2: "subs subtable" bracketleft.subs
EndChar

StartChar: backslash
Encoding: 92 92 60
Width: 351
VWidth: 982
Flags: MW
LayerCount: 2
Fore
SplineSet
22 701 m 0
 40 701 43 695 60 655 c 2
 337 3 l 2
 341 -7 346 -21 346 -32 c 0
 346 -40 343 -46 335 -46 c 0
 317 -46 310 -40 303 -24 c 2
 15 642 l 2
 11 650 2 676 2 677 c 0
 2 695 7 701 22 701 c 0
EndSplineSet
Validated: 1
Substitution2: "sups subtable" backslash.sups
Substitution2: "sinf subtable" backslash.sinf
Substitution2: "ordn subtable" backslash.ordn
Substitution2: "subs subtable" backslash.subs
EndChar

StartChar: bracketright
Encoding: 93 93 61
Width: 268
VWidth: 982
Flags: MW
LayerCount: 2
Fore
SplineSet
183 -199 m 2
 18 -199 l 2
 8 -199 0 -195 0 -185 c 0
 0 -175 6 -156 26 -156 c 2
 134 -156 l 2
 164 -156 173 -143 173 -113 c 2
 173 489 l 2
 173 519 167 541 138 541 c 2
 26 541 l 2
 10 541 0 544 0 556 c 0
 0 568 14 584 26 584 c 2
 190 584 l 2
 213 584 221 583 221 559 c 2
 221 -165 l 2
 221 -199 215 -199 183 -199 c 2
EndSplineSet
Validated: 1
Substitution2: "sups subtable" bracketright.sups
Substitution2: "sinf subtable" bracketright.sinf
Substitution2: "ordn subtable" bracketright.ordn
Substitution2: "subs subtable" bracketright.subs
EndChar

StartChar: underscore
Encoding: 95 95 63
Width: 590
VWidth: 982
Flags: MW
LayerCount: 2
Fore
SplineSet
69 -117 m 2
 45 -117 0 -116 0 -101 c 0
 0 -72 26 -52 83 -52 c 2
 521 -52 l 2
 549 -52 590 -50 590 -70 c 0
 590 -99 563 -117 506 -117 c 2
 69 -117 l 2
EndSplineSet
Validated: 33
Substitution2: "sups subtable" underscore.sups
Substitution2: "sinf subtable" underscore.sinf
Substitution2: "ordn subtable" underscore.ordn
Substitution2: "subs subtable" underscore.subs
EndChar

StartChar: a
Encoding: 97 97 65
Width: 409
VWidth: 982
Flags: HMW
AnchorPoint: "POJ_TOP_RIGHT" 397 430 basechar 0
AnchorPoint: "below_accent" 185 -80 basechar 0
AnchorPoint: "ogonek" 331 5 basechar 0
AnchorPoint: "top_accent" 185 596 basechar 0
LayerCount: 2
Fore
SplineSet
185 430 m 0
 270 430 316 381 316 328 c 2
 316 91 l 2
 316 75 335 63 352 63 c 0
 366 63 381 76 388 76 c 0
 394 76 397 65 397 54 c 0
 397 18 347 -8 307 -8 c 0
 274 -8 251 15 238 33 c 0
 231 43 230 42 223 35 c 0
 200 12 160 -8 121 -8 c 0
 72 -8 22 38 22 88 c 0
 22 138 46 169 76 182 c 2
 207 237 l 2
 225 245 230 250 230 260 c 2
 230 309 l 2
 230 344 192 370 157 370 c 0
 136 370 111 362 111 341 c 0
 111 316 110 308 101 302 c 0
 95 298 55 281 45 281 c 0
 39 281 37 307 37 315 c 0
 37 338 54 368 75 383 c 0
 110 407 148 430 185 430 c 0
111 131 m 0
 111 82 134 59 170 59 c 0
 198 59 232 73 232 97 c 2
 232 191 l 2
 232 202 220 202 209 198 c 2
 161 179 l 2
 126 168 111 148 111 131 c 0
EndSplineSet
Validated: 1048577
Substitution2: "Smallcaps1 subtable" a.sc
AlternateSubs2: "alternate_a subtable" a.01
Substitution2: "sups subtable" a.sups
Substitution2: "sinf subtable" a.sinf
Substitution2: "ordn subtable" a.ordn
Substitution2: "subs subtable" a.subs
EndChar

StartChar: b
Encoding: 98 98 66
Width: 499
VWidth: 982
Flags: HMW
AnchorPoint: "below_accent" 255 -80 basechar 0
AnchorPoint: "top_accent" 122 785 basechar 0
LayerCount: 2
Fore
SplineSet
80 566 m 2
 80 585 64 604 40 613 c 0
 29 617 17 625 17 636 c 0
 17 647 32 655 46 657 c 0
 86 664 140 681 150 681 c 0
 162 681 163 673 163 653 c 2
 163 404 l 2
 163 390 169 388 184 399 c 0
 201 411 244 430 299 430 c 0
 401 430 476 324 476 224 c 0
 476 99 373 -8 247 -8 c 0
 147.140625 -8 80 35 80 50 c 2
 80 566 l 2
163 332 m 2
 163 124 l 2
 163 75 201 40 278 40 c 0
 351 40 384 111 384 192 c 0
 384 283 337 378 246 378 c 0
 188 378 163 339 163 332 c 2
EndSplineSet
Validated: 524289
Substitution2: "Smallcaps1 subtable" b.sc
Substitution2: "sups subtable" b.sups
Substitution2: "sinf subtable" b.sinf
Substitution2: "ordn subtable" b.ordn
Substitution2: "subs subtable" b.subs
EndChar

StartChar: c
Encoding: 99 99 67
Width: 392
VWidth: 982
Flags: HMW
AnchorPoint: "below_accent" 188 -80 basechar 0
AnchorPoint: "cedilla" 251 5 basechar 0
AnchorPoint: "top_accent" 226 596 basechar 0
LayerCount: 2
Fore
SplineSet
203 -8 m 0
 96 -8 23 89 23 195 c 0
 23 316 110 430 225 430 c 0
 295 430 326 410 342 397 c 0
 361 381 375 364 375 351 c 0
 375 327 356 312 333 312 c 0
 315 312 290 326 268 348 c 8
 251 365 238 383 217 383 c 0
 157 383 115 308 115 242 c 0
 115 154 154 60 239 60 c 0
 285 60 334 83 344 83 c 0
 354 83 359 79 359 69 c 0
 359 40 301 -8 203 -8 c 0
EndSplineSet
Validated: 1048577
Substitution2: "Smallcaps1 subtable" c.sc
Substitution2: "sups subtable" c.sups
Substitution2: "sinf subtable" c.sinf
Substitution2: "ordn subtable" c.ordn
Substitution2: "subs subtable" c.subs
EndChar

StartChar: d
Encoding: 100 100 68
Width: 492
VWidth: 982
Flags: HMW
AnchorPoint: "below_accent" 232 -80 basechar 0
AnchorPoint: "top_right" 446 590 basechar 0
AnchorPoint: "cedilla" 372 5 basechar 0
AnchorPoint: "top_accent" 332 785 basechar 0
LayerCount: 2
Fore
SplineSet
393 681 m 0
 405 681 405 673 405 654 c 2
 405 84 l 2
 405 61 411 56 421 56 c 0
 434 56 467 62 475 62 c 0
 480 62 488 53 488 46 c 0
 488 33 483 25 475 21 c 0
 457 12 358 -12 343 -12 c 0
 335 -12 330 -3 329 2 c 0
 326 12 323 25 320 40 c 0
 318 50 315 51 308 41 c 0
 285 8 246 -8 206 -8 c 0
 104 -8 23 80 23 182 c 0
 23 307 105 430 231 430 c 0
 263 430 295 418 309 404 c 0
 318 396 320 401 322 420 c 2
 322 567 l 2
 322 584 305 604 281 613 c 0
 270 617 258 625 258 636 c 0
 258 647 273 655 287 657 c 0
 327 664 383 681 393 681 c 0
115 233 m 0
 115 143 158 56 244 56 c 0
 283 56 322 78 322 118 c 2
 322 271 l 2
 322 334 272 387 210 387 c 0
 140 387 115 303 115 233 c 0
EndSplineSet
Validated: 1048577
Substitution2: "Smallcaps1 subtable" d.sc
Substitution2: "sups subtable" d.sups
Substitution2: "sinf subtable" d.sinf
Substitution2: "ordn subtable" d.ordn
Substitution2: "subs subtable" d.subs
EndChar

StartChar: e
Encoding: 101 101 69
Width: 391
VWidth: 982
Flags: HMW
AnchorPoint: "POJ_TOP_RIGHT" 427 446 basechar 0
AnchorPoint: "below_accent" 193 -80 basechar 0
AnchorPoint: "cedilla" 237 5 basechar 0
AnchorPoint: "ogonek" 254 5 basechar 0
AnchorPoint: "top_accent" 224 596 basechar 0
LayerCount: 2
Fore
SplineSet
371 326 m 0
 371 299 367 258 341 258 c 2
 130 258 l 2
 116 258 114 256 111 248 c 0
 107 237 107 235 107 218 c 0
 107 142 154 60 233 60 c 0
 283 60 327 83 337 83 c 0
 347 83 352 79 352 69 c 0
 352 40 294 -8 196 -8 c 0
 85 -8 23 100 23 213 c 0
 23 336 117 430 239 430 c 0
 307 430 371 377 371 326 c 0
124 315 m 8
 124 308.358398438 125 304 137 304 c 2
 269 304 l 2
 279 304 284 321 284 335 c 0
 284 364 254 384 225 384 c 0
 165 384 124 335 124 315 c 8
EndSplineSet
Validated: 524289
Substitution2: "Smallcaps1 subtable" e.sc
Substitution2: "sups subtable" e.sups
Substitution2: "sinf subtable" e.sinf
Substitution2: "ordn subtable" e.ordn
Substitution2: "subs subtable" e.subs
EndChar

StartChar: f
Encoding: 102 102 70
Width: 313
VWidth: 982
Flags: HMW
AnchorPoint: "below_accent" 141 -80 basechar 0
AnchorPoint: "top_accent" 270 785 basechar 0
LayerCount: 2
Fore
SplineSet
325 690 m 0
 376 690 441 642 441 605 c 0
 441 581 429 559 404 559 c 0
 380 559 367 586 352 607 c 0
 341 623 320 634 291 634 c 0
 223 634 183 584 183 525 c 2
 183 420 l 2
 183 405 192 410 205 410 c 2
 270 412 l 2
 286 412 293 399 293 389 c 0
 293 379 284 355 270 355 c 2
 199 355 l 2
 187 355 183 346 183 332 c 2
 183 108 l 2
 183 83 191 55 227 44 c 0
 254 36 271 28 271 18 c 0
 271 8 262 -2 236 -2 c 0
 214 -2 157 4 141 4 c 0
 121 4 75 -2 53 -2 c 0
 27 -2 18 8 18 18 c 0
 18 28 35 36 62 44 c 0
 89 52 100 83 100 108 c 2
 100 338 l 2
 100 346 95 352 58 352 c 0
 49 352 26 356 26 366 c 0
 26 380 59 396 87 406 c 0
 98 410 100 424 100 435 c 0
 100 573 187 690 325 690 c 0
EndSplineSet
Validated: 1
Substitution2: "Single Substitution lookup 71 subtable" f.short
Substitution2: "Smallcaps1 subtable" f.sc
Substitution2: "sups subtable" f.sups
Substitution2: "sinf subtable" f.sinf
Substitution2: "ordn subtable" f.ordn
Substitution2: "subs subtable" f.subs
Substitution2: "loclDEU subtable" f.DEU
EndChar

StartChar: g
Encoding: 103 103 71
Width: 479
VWidth: 982
Flags: HMW
AnchorPoint: "top_accent" 208 596 basechar 0
LayerCount: 2
Fore
SplineSet
201 430 m 0
 254 430 276 421 291 413 c 0
 307 405 322 396 332 396 c 2
 436 398 l 2
 456 398 464 377 464 363 c 0
 464 345 454 332 428 332 c 0
 415 332 369 337 360 337 c 0
 353 337 349 332 351 326 c 0
 354 318 359 289 359 282 c 0
 359 209 281 121 191 121 c 0
 180 121 171 124 166 124 c 0
 165 124 158 123 153 119 c 0
 138 106 119 81 119 65 c 0
 119 51 146.984375 40.5673828125 194 39 c 2
 314 35 l 2
 358 33 415 -4 415 -59 c 0
 415 -189 291 -272 161 -272 c 0
 69 -272 -2 -238 -2 -160 c 0
 -2 -112 46 -66 94 -36 c 0
 99 -33 98 -28 88 -23 c 0
 55 -8 31 5 31 38 c 0
 31 47 37 54 45 61 c 0
 60 74 96 104 112 128 c 0
 115 132 119 137 112 141 c 0
 67 167 31 214 31 273 c 0
 31 363 111 430 201 430 c 0
119 289 m 0
 119 231 143 163 201 163 c 0
 257 163 281 227 281 286 c 0
 281 339 241 388 186 388 c 0
 140 388 119 335 119 289 c 0
81 -131 m 0
 81 -193 147 -216 206 -216 c 0
 279 -216 338 -179 338 -116 c 0
 338 -51 286 -33 185 -33 c 0
 159 -33 140 -42 118 -62 c 0
 93 -85 81 -109 81 -131 c 0
EndSplineSet
Validated: 524289
Substitution2: "Smallcaps1 subtable" g.sc
AlternateSubs2: "alternate_g subtable" g.01
Substitution2: "sups subtable" g.sups
Substitution2: "sinf subtable" g.sinf
Substitution2: "ordn subtable" g.ordn
Substitution2: "subs subtable" g.subs
EndChar

StartChar: h
Encoding: 104 104 72
Width: 543
VWidth: 982
Flags: HMW
AnchorPoint: "below_accent" 275 -80 basechar 0
AnchorPoint: "cedilla" 141 5 basechar 0
AnchorPoint: "top_accent" 140 785 basechar 0
LayerCount: 2
Fore
SplineSet
449 110 m 1
 450 84 460 52 487 44 c 0
 514 36 523 28 523 18 c 0
 523 8 522 -2 496 -2 c 0
 474 -2 424 4 408 4 c 0
 388 4 356 -2 334 -2 c 0
 308 -2 304 8 304 18 c 0
 304 28 316 36 343 44 c 0
 361 49 366 83 366 108 c 2
 366 261 l 2
 366 320 331 378 279 378 c 0
 221 378 181 344 181 268 c 2
 180 108 l 2
 180 83 184 50 203 44 c 0
 230 36 241 28 241 18 c 0
 241 8 238 -2 212 -2 c 0
 190 -2 155 4 139 4 c 0
 119 4 72 -2 50 -2 c 0
 24 -2 20 8 20 18 c 0
 20 28 32 36 59 44 c 0
 86 52 97 83 97 108 c 2
 97 567 l 2
 97 584 82 604 58 613 c 0
 47 617 35 625 35 636 c 0
 35 647 50 655 64 657 c 0
 104 664 158 681 168 681 c 0
 180 681 180 673 180 654 c 2
 180 395 l 2
 180 369 192 384 200 391 c 0
 233 418 272 430 324 430 c 0
 394 430 449 364 449 291 c 2
 449 110 l 1
EndSplineSet
Validated: 1048577
Substitution2: "Smallcaps1 subtable" h.sc
Substitution2: "sups subtable" h.sups
Substitution2: "sinf subtable" h.sinf
Substitution2: "ordn subtable" h.ordn
Substitution2: "subs subtable" h.subs
EndChar

StartChar: k
Encoding: 107 107 75
Width: 529
VWidth: 982
Flags: HMW
AnchorPoint: "below_accent" 279 -80 basechar 0
AnchorPoint: "top_accent" 297 729 basechar 0
LayerCount: 2
Fore
SplineSet
315 82 m 2
 252 148 l 2
 229 172 211 192 201 192 c 0
 186 192 180 184 180 173 c 2
 180 108 l 2
 180 83 191 52 218 44 c 0
 245 36 251 28 251 18 c 0
 251 8 243 -2 217 -2 c 0
 195 -2 155 4 139 4 c 0
 119 4 72 -2 50 -2 c 0
 24 -2 15 8 15 18 c 0
 15 28 32 36 59 44 c 0
 86 52 97 83 97 108 c 2
 97 567 l 2
 97 584 82 604 58 613 c 0
 47 617 35 625 35 636 c 0
 35 647 50 655 64 657 c 0
 104 664 158 681 168 681 c 0
 180 681 180 674 180 654 c 2
 180 240 l 2
 180 227 182 222 202 222 c 0
 219 222 236.146194735 227.22986673 267 264 c 2
 324 332 l 2
 335 345 340 355 340 362 c 0
 340 372 329 379 323 380 c 0
 308 383 299 387 299 397 c 0
 299 407 308 417 324 417 c 0
 339 417 388 417 403 417 c 0
 418 417 448 423 463 423 c 0
 479 423 487 413 487 403 c 0
 487 393 468 385 453 380 c 0
 442 376 404 351 379 323 c 2
 312 249 l 2
 305 242 295 230 295 220 c 0
 295 205 334 173 374 133 c 0
 414 93 466 53 495 44 c 0
 522 36 538 28 538 18 c 0
 538 8 530 -2 504 -2 c 0
 482 -2 432 4 416 4 c 0
 396 4 361 -2 339 -2 c 0
 313 -2 304 8 304 18 c 0
 304 28 341 40 341 45 c 0
 341 50 330 66 315 82 c 2
EndSplineSet
Validated: 524289
Substitution2: "Smallcaps1 subtable" k.sc
Substitution2: "sups subtable" k.sups
Substitution2: "sinf subtable" k.sinf
Substitution2: "ordn subtable" k.ordn
Substitution2: "subs subtable" k.subs
EndChar

StartChar: l
Encoding: 108 108 76
Width: 276
VWidth: 982
Flags: MW
AnchorPoint: "below_accent" 141 -80 basechar 0
AnchorPoint: "top_right" 232 590 basechar 0
AnchorPoint: "top_accent" 140 785 basechar 0
LayerCount: 2
Fore
SplineSet
97 567 m 2
 97 584 82 604 58 613 c 0
 47 617 35 625 35 636 c 0
 35 647 50 655 64 657 c 0
 104 664 158 681 168 681 c 0
 180 681 180 673 180 654 c 2
 180 108 l 2
 180 83 191 52 218 44 c 0
 245 36 261 28 261 18 c 0
 261 8 253 -2 227 -2 c 0
 205 -2 155 4 139 4 c 0
 119 4 72 -2 50 -2 c 0
 24 -2 15 8 15 18 c 0
 15 28 32 36 59 44 c 0
 86 52 97 83 97 108 c 2
 97 567 l 2
EndSplineSet
Validated: 1
Substitution2: "Smallcaps1 subtable" l.sc
Substitution2: "sups subtable" l.sups
Substitution2: "sinf subtable" l.sinf
Substitution2: "ordn subtable" l.ordn
Substitution2: "subs subtable" l.subs
EndChar

StartChar: m
Encoding: 109 109 77
Width: 812
VWidth: 982
Flags: MW
AnchorPoint: "below_accent" 410 -80 basechar 0
AnchorPoint: "top_accent" 411 596 basechar 0
LayerCount: 2
Fore
SplineSet
434 364 m 0
 439 364 450 375 469 391 c 0
 502 418 541 430 593 430 c 0
 663 430 718 364 718 291 c 2
 718 110 l 2
 718 84 729 52 756 44 c 0
 783 36 792 28 792 18 c 0
 792 8 791 -2 765 -2 c 0
 743 -2 693 4 677 4 c 0
 657 4 625 -2 603 -2 c 0
 577 -2 573 8 573 18 c 0
 573 28 585 36 612 44 c 0
 630 49 635 83 635 108 c 2
 635 261 l 2
 635 320 600 378 548 378 c 0
 489 378 449 339 449 268 c 2
 449 108 l 2
 449 83 453 50 472 44 c 0
 499 36 510 28 510 18 c 0
 510 8 507 -2 481 -2 c 0
 459 -2 424 4 408 4 c 0
 389 4 356 -2 334 -2 c 0
 308 -2 304 8 304 18 c 0
 304 28 316 36 343 44 c 0
 361 49 366 83 366 108 c 2
 366 261 l 2
 366 320 331 378 279 378 c 0
 221 378 181 344 181 268 c 2
 180 108 l 2
 180 83 184 50 203 44 c 0
 230 36 241 28 241 18 c 0
 241 8 238 -2 212 -2 c 0
 190 -2 155 4 139 4 c 0
 119 4 72 -2 50 -2 c 0
 24 -2 20 8 20 18 c 0
 20 28 32 36 59 44 c 0
 86 52 97 83 97 108 c 2
 97 302 l 2
 97 319 80 344 56 353 c 0
 45 357 35 363 35 374 c 0
 35 385 51 393 64 399 c 0
 75 405 158 438 168 438 c 0
 180 438 180 429 180 410 c 2
 180 385 l 2
 180 370 192 384 200 391 c 0
 233 418 272 430 324 430 c 0
 368 430 406 403 427 369 c 0
 430 365 432 364 434 364 c 0
EndSplineSet
Validated: 1
Substitution2: "Smallcaps1 subtable" m.sc
Substitution2: "sups subtable" m.sups
Substitution2: "sinf subtable" m.sinf
Substitution2: "ordn subtable" m.ordn
Substitution2: "subs subtable" m.subs
EndChar

StartChar: n
Encoding: 110 110 78
Width: 543
VWidth: 982
Flags: MW
AnchorPoint: "below_accent" 272 -80 basechar 0
AnchorPoint: "top_left" 30 596 basechar 0
AnchorPoint: "top_accent" 282 596 basechar 0
LayerCount: 2
Fore
SplineSet
449 110 m 2
 449 84 460 52 487 44 c 0
 514 36 523 28 523 18 c 0
 523 8 522 -2 496 -2 c 0
 474 -2 424 4 408 4 c 0
 388 4 356 -2 334 -2 c 0
 308 -2 304 8 304 18 c 0
 304 28 316 36 343 44 c 0
 361 49 366 83 366 108 c 2
 366 261 l 2
 366 320 331 378 279 378 c 0
 221 378 181 344 181 268 c 2
 180 108 l 2
 180 83 184 50 203 44 c 0
 230 36 241 28 241 18 c 0
 241 8 238 -2 212 -2 c 0
 190 -2 155 4 139 4 c 0
 119 4 72 -2 50 -2 c 0
 24 -2 20 8 20 18 c 0
 20 28 32 36 59 44 c 0
 86 52 97 83 97 108 c 2
 97 302 l 2
 97 319 80 344 56 353 c 0
 45 357 35 363 35 374 c 0
 35 385 51 393 64 399 c 0
 76 405 158 438 168 438 c 0
 180 438 180 429 180 410 c 2
 180 385 l 2
 180 370 192 384 200 391 c 0
 233 418 272 430 324 430 c 0
 394 430 449 364 449 291 c 2
 449 110 l 2
EndSplineSet
Validated: 1
Substitution2: "Smallcaps1 subtable" n.sc
Substitution2: "sups subtable" n.sups
Substitution2: "sinf subtable" n.sinf
Substitution2: "ordn subtable" n.ordn
Substitution2: "subs subtable" n.subs
EndChar

StartChar: o
Encoding: 111 111 79
Width: 487
VWidth: 982
Flags: HMW
AnchorPoint: "POJ_TOP_RIGHT" 447 460 basechar 0
AnchorPoint: "below_accent" 245 -80 basechar 0
AnchorPoint: "ogonek" 292 5 basechar 0
AnchorPoint: "top_accent" 242 596 basechar 0
LayerCount: 2
Fore
SplineSet
239 430 m 0
 355 430 464 346 464 230 c 0
 464 101 362 -8 234 -8 c 0
 112 -8 22 96 22 215 c 0
 22 335 131 430 239 430 c 0
122 237 m 0
 122 143 167 39 260 39 c 0
 334 39 365 129 365 203 c 0
 365 292 319 388 232 388 c 0
 160 388 122 309 122 237 c 0
EndSplineSet
Validated: 1048577
Substitution2: "Smallcaps1 subtable" o.sc
Substitution2: "sups subtable" o.sups
Substitution2: "sinf subtable" o.sinf
Substitution2: "ordn subtable" o.ordn
Substitution2: "subs subtable" o.subs
EndChar

StartChar: p
Encoding: 112 112 80
Width: 448
VWidth: 982
Flags: HMW
AnchorPoint: "top_accent" 255 596 basechar 0
LayerCount: 2
Fore
SplineSet
65 -161 m 2
 65 302 l 2
 65 319 48 344 24 353 c 0
 13 357 3 363 3 374 c 0
 3 385 19 393 32 399 c 0
 43 405 126 438 136 438 c 0
 148 438 148 429 148 410 c 2
 148 392 l 2
 149 387 154 382 162 390 c 0
 178 406 230 430 275 430 c 0
 358 430 425 341 425 257 c 0
 425 121 330 -6 197 -6 c 0
 177 -6 162 6 158 6 c 0
 149 6 148 1 148 -8 c 2
 148 -169 l 2
 148 -204 162 -212 216 -227 c 0
 243 -235 259 -243 259 -253 c 0
 259 -263 251 -273 225 -273 c 0
 191 -273 131 -260 38 -260 c 0
 12 -260 3 -250 3 -240 c 0
 3 -230 20 -222 47 -214 c 0
 60 -210 65 -186 65 -161 c 2
148 307 m 2
 148 98 l 2
 148 61 183 45 220 45 c 0
 298 45 333 129 333 211 c 0
 333 294 310 378 223 378 c 0
 178 378 148 343 148 307 c 2
EndSplineSet
Validated: 1
Substitution2: "Smallcaps1 subtable" p.sc
Substitution2: "sups subtable" p.sups
Substitution2: "sinf subtable" p.sinf
Substitution2: "ordn subtable" p.ordn
Substitution2: "subs subtable" p.subs
EndChar

StartChar: q
Encoding: 113 113 81
Width: 488
VWidth: 982
Flags: HMW
AnchorPoint: "top_accent" 238 596 basechar 0
LayerCount: 2
Fore
SplineSet
326 18 m 8
 284 -5 251 -8 205 -8 c 0
 100 -8 23 94 23 199 c 0
 23 319 109 430 230 430 c 0
 292 430 316 422 354 400 c 0
 363 395 364 395 371 399 c 0
 382 406 399 417 409 417 c 0
 421 417 423 403 423 384 c 2
 423 -162 l 2
 423 -187 430 -207 447 -212 c 0
 474 -220 488 -228 488 -238 c 0
 488 -248 482 -258 456 -258 c 0
 374 -258 306 -272 283 -272 c 0
 257 -272 248 -262 248 -252 c 0
 248 -242 265 -234 292 -226 c 0
 319 -218 340 -187 340 -162 c 2
 340 10 l 2
 340 27 331 21 326 18 c 8
115 230 m 0
 115 124 171 37 272 37 c 0
 298 37 340 56 340 82 c 2
 340 266 l 2
 340 335 284 387 211 387 c 0
 151 387 115 317 115 230 c 0
EndSplineSet
Validated: 1
Substitution2: "Smallcaps1 subtable" q.sc
Substitution2: "sups subtable" q.sups
Substitution2: "sinf subtable" q.sinf
Substitution2: "ordn subtable" q.ordn
Substitution2: "subs subtable" q.subs
EndChar

StartChar: r
Encoding: 114 114 82
Width: 354
VWidth: 982
Flags: HMW
AnchorPoint: "below_accent" 142 -80 basechar 0
AnchorPoint: "top_accent" 189 596 basechar 0
LayerCount: 2
Fore
SplineSet
139 4 m 0
 120 4 72 -2 50 -2 c 0
 24 -2 20 8 20 18 c 0
 20 28 32 36 59 44 c 0
 86 52 97 83 97 108 c 2
 97 302 l 2
 97 319 80 344 56 353 c 0
 45 357 35 363 35 374 c 0
 35 385 51 393 64 399 c 0
 75 405 158 438 168 438 c 0
 180 438 180 429 180 410 c 2
 180 385 l 2
 180 370 195 385 200 391 c 0
 216 408 258 430 288 430 c 0
 329 430 345 411 345 388 c 0
 345 373 331 347 315 331 c 0
 312 328 304 322 299 322 c 0
 284 322 254 350 234 350 c 0
 211 350 182 329 182 303 c 2
 180 108 l 2
 180 83 202 52 229 44 c 0
 256 36 270 28 270 18 c 0
 270 8 262 -2 236 -2 c 0
 214 -2 155 4 139 4 c 0
EndSplineSet
Validated: 1
Substitution2: "Smallcaps1 subtable" r.sc
Substitution2: "sups subtable" r.sups
Substitution2: "sinf subtable" r.sinf
Substitution2: "ordn subtable" r.ordn
Substitution2: "subs subtable" r.subs
EndChar

StartChar: s
Encoding: 115 115 83
Width: 301
VWidth: 982
Flags: HMW
AnchorPoint: "below_accent" 146 -80 basechar 0
AnchorPoint: "cedilla" 171 5 basechar 0
AnchorPoint: "top_accent" 166 596 basechar 0
LayerCount: 2
Fore
SplineSet
163 430 m 0
 194 430 215.59861443 419.221636029 247 406 c 24
 253.979492188 403.061523438 255 400 258 390 c 0
 261 379 263 350 263 341 c 0
 263 329 263 319 251 319 c 0
 241 319 226.814043872 324.863728319 221 344 c 0
 213.73244516 367.920339601 184 384 153 384 c 0
 128 384 107 366 107 341 c 0
 107 313 127.667649993 296.889823657 150 280 c 2
 232 218 l 2
 259.915437509 196.887720429 280 173 280 138 c 0
 280 53 211 -8 129 -8 c 0
 101 -8 73 -4 63 0 c 0
 48 6 43 7 38 20 c 0
 33 33 21 68 21 83 c 0
 21 100 22 115 32 115 c 0
 42 115 62 106 76 75 c 0
 89 48 120 37 153 37 c 0
 183.760742188 37 212 57 212 87 c 0
 212 131 191.484127702 141.664271268 167 159 c 2
 119 193 l 2
 74.4388875816 224.551026291 35 255 35 305 c 0
 35 373 93 430 163 430 c 0
EndSplineSet
Validated: 1572865
Substitution2: "Smallcaps1 subtable" s.sc
Substitution2: "Single Substitution lookup 44 subtable" longs
Substitution2: "sups subtable" s.sups
Substitution2: "sinf subtable" s.sinf
Substitution2: "ordn subtable" s.ordn
Substitution2: "subs subtable" s.subs
EndChar

StartChar: t
Encoding: 116 116 84
Width: 325
VWidth: 982
Flags: HMW
AnchorPoint: "below_accent" 174 -80 basechar 0
AnchorPoint: "top_right" 260 580 basechar 0
AnchorPoint: "cedilla" 209 5 basechar 0
AnchorPoint: "top_accent" 155 596 basechar 0
LayerCount: 2
Fore
SplineSet
186 -8 m 0
 127 -8 78 21 78 106 c 2
 78 344 l 2
 78 353 84 358 47 358 c 0
 38 358 15 362 15 372 c 0
 15 386 57 414 82 435 c 0
 96 447 134 485 147 485 c 0
 159 485 161 477 161 460 c 2
 161 432 l 18
 161 422 170 417 183 417 c 2
 280 417 l 2
 296 417 300 404 300 394 c 0
 300 384 290 358 276 358 c 2
 177 358 l 2
 165 358 161 353 161 339 c 2
 161 152 l 2
 161 82 178 60 213 60 c 0
 250 60 275 78 285 78 c 0
 295 78 300 74 300 64 c 0
 300 41 246 -8 186 -8 c 0
EndSplineSet
Validated: 1048609
Substitution2: "Smallcaps1 subtable" t.sc
Substitution2: "sups subtable" t.sups
Substitution2: "sinf subtable" t.sinf
Substitution2: "ordn subtable" t.ordn
Substitution2: "subs subtable" t.subs
EndChar

StartChar: u
Encoding: 117 117 85
Width: 474
VWidth: 982
Flags: HMW
AnchorPoint: "POJ_TOP_RIGHT" 487 430 basechar 0
AnchorPoint: "below_accent" 227 -80 basechar 0
AnchorPoint: "ogonek" 377 5 basechar 0
AnchorPoint: "top_accent" 217 596 basechar 0
LayerCount: 2
Fore
SplineSet
311 324 m 2
 311 352 292 366 264 370 c 0
 252 372 241 378 241 389 c 0
 241 400 256 412 270 414 c 0
 306 419 372 430 382 430 c 0
 394 430 394 422 394 403 c 2
 394 69 l 2
 394 59 400 56 410 56 c 0
 423 56 444 62 452 62 c 0
 457 62 465 53 465 46 c 0
 465 33 455 25 447 21 c 0
 429 12 347 -12 332 -12 c 0
 324 -12 319 -3 318 2 c 0
 315 12 315 26 312 40 c 0
 308 58 305 52 292 41 c 0
 247 5 215 -4 157 -4 c 0
 99 -4 58 60 58 118 c 2
 58 316 l 2
 58 333 55 357 31 366 c 0
 20 370 10 378 10 389 c 0
 10 400 23 408 37 410 c 0
 77 417 119 430 129 430 c 0
 141 430 141 422 141 403 c 2
 141 151 l 2
 141 103 165.603515625 58 211 58 c 16
 266 58 311 91 311 135 c 2
 311 324 l 2
EndSplineSet
Validated: 1572865
Substitution2: "Smallcaps1 subtable" u.sc
Substitution2: "Single Substitution lookup 39 subtable" u.LAT
Substitution2: "sups subtable" u.sups
Substitution2: "sinf subtable" u.sinf
Substitution2: "ordn subtable" u.ordn
Substitution2: "subs subtable" u.subs
Substitution2: "loclLAT subtable" u.LAT
EndChar

StartChar: v
Encoding: 118 118 86
Width: 419
VWidth: 982
Flags: HMW
AnchorPoint: "below_accent" 211 -80 basechar 0
AnchorPoint: "top_accent" 231 596 basechar 0
LayerCount: 2
Fore
SplineSet
306 380 m 0
 291 383 278 393 278 403 c 0
 278 413 287 423 303 423 c 0
 318 423 343 417 358 417 c 0
 373 417 391 423 406 423 c 0
 422 423 430 413 430 403 c 0
 430 393 411 385 396 380 c 0
 385 376 367 358 353 323 c 2
 274 123 l 2
 257 81 229 -14 211 -14 c 0
 201 -14 192 9 186 26 c 2
 75 317 l 2
 65 343 51 375 36 380 c 0
 21 385 3 393 3 403 c 0
 3 413 11 423 27 423 c 0
 42 423 76 417 91 417 c 0
 106 417 148 423 163 423 c 0
 179 423 188 413 188 403 c 0
 188 393 176 385 154 378 c 0
 149 377 145 364 149 354 c 2
 231 139 l 2
 234.567379993 129.657955257 238.055003579 131.561788113 241 139 c 2
 313 321 l 2
 321 341 323 355 323 362 c 0
 323 372 312 379 306 380 c 0
EndSplineSet
Validated: 524289
Substitution2: "Smallcaps1 subtable" v.sc
Substitution2: "Single Substitution lookup 40 subtable" v.LATmedi
Substitution2: "sups subtable" v.sups
Substitution2: "sinf subtable" v.sinf
Substitution2: "ordn subtable" v.ordn
Substitution2: "subs subtable" v.subs
Substitution2: "loclLAT subtable" v.LAT
EndChar

StartChar: w
Encoding: 119 119 87
Width: 628
VWidth: 982
Flags: HMW
AnchorPoint: "below_accent" 310 -80 basechar 0
AnchorPoint: "top_accent" 325 596 basechar 0
LayerCount: 2
Fore
SplineSet
515 380 m 0
 500 383 487 393 487 403 c 0
 487 413 496 423 512 423 c 0
 527 423 552 417 567 417 c 0
 582 417 600 423 615 423 c 0
 631 423 639 413 639 403 c 0
 639 393 620 385 605 380 c 0
 594 376 576 358 562 323 c 2
 483 123 l 2
 466 81 438 -14 420 -14 c 0
 410 -14 401 9 395 26 c 2
 317 231 l 1
 274 123 l 2
 257 81 229 -14 211 -14 c 0
 201 -14 192 9 186 26 c 2
 75 317 l 2
 65 343 51 375 36 380 c 0
 21 385 3 393 3 403 c 0
 3 413 11 423 27 423 c 0
 42 423 76 417 91 417 c 0
 106 417 148 423 163 423 c 0
 179 423 188 413 188 403 c 0
 188 393 176 385 154 378 c 0
 149 377 145 364 149 354 c 2
 220 171 l 2
 224 161 233 131 239 131 c 0
 246 131 253 161 257 171 c 2
 298 281 l 1
 284 317 l 2
 274 343 260 375 245 380 c 0
 230 385 212 393 212 403 c 0
 212 413 220 423 236 423 c 0
 251 423 285 417 300 417 c 0
 315 417 369 423 384 423 c 0
 400 423 409 413 409 403 c 0
 409 393 397 383 380 375 c 0
 368 370 357 357 365 336 c 2
 429 171 l 2
 433 161 442 133 448 133 c 0
 455 133 462 161 466 171 c 2
 522 321 l 2
 530 341 532 355 532 362 c 0
 532 372 521 379 515 380 c 0
EndSplineSet
Validated: 33
Substitution2: "Smallcaps1 subtable" w.sc
Substitution2: "sups subtable" w.sups
Substitution2: "sinf subtable" w.sinf
Substitution2: "ordn subtable" w.ordn
Substitution2: "subs subtable" w.subs
EndChar

StartChar: x
Encoding: 120 120 88
Width: 454
VWidth: 982
Flags: MW
AnchorPoint: "below_accent" 219 -80 basechar 0
AnchorPoint: "top_accent" 242 596 basechar 0
LayerCount: 2
Fore
SplineSet
437 41 m 0
 452 36 458 28 458 18 c 0
 458 8 450 -2 434 -2 c 0
 419 -2 372 4 357 4 c 0
 342 4 295 -2 280 -2 c 0
 264 -2 255 8 255 18 c 0
 255 28 267 36 289 43 c 0
 294 44 297 69 278 95 c 2
 220 175 l 1
 169 108 l 2
 165 102 139 66 139 59 c 0
 139 49 150 42 156 41 c 0
 171 38 184 28 184 18 c 0
 184 8 175 -2 159 -2 c 0
 144 -2 105 4 90 4 c 0
 75 4 51 -2 36 -2 c 0
 20 -2 12 8 12 18 c 0
 12 28 31 36 46 41 c 0
 57 45 88 58 109 86 c 2
 198 204 l 1
 100 339 l 2
 93 348 72 375 57 380 c 0
 42 385 29 393 29 403 c 0
 29 413 37 423 53 423 c 0
 68 423 106 417 121 417 c 4
 136 417 183 423 198 423 c 0
 214 423 223 413 223 403 c 0
 223 393 211 385 189 378 c 0
 184 377 177 367 202 332 c 2
 247 269 l 1
 297 335 l 2
 306 347 312 355 312 362 c 0
 312 372 301 379 295 380 c 0
 280 383 271 393 271 403 c 0
 271 413 284 423 300 423 c 0
 315 423 346 417 361 417 c 0
 376 417 394 423 409 423 c 0
 425 423 433 413 433 403 c 0
 433 393 414 385 399 380 c 0
 388 376 339 333 328 319 c 2
 269 240 l 1
 333 151 l 2
 392 70 409 50 437 41 c 0
EndSplineSet
Validated: 33
Substitution2: "Smallcaps1 subtable" x.sc
Substitution2: "sups subtable" x.sups
Substitution2: "sinf subtable" x.sinf
Substitution2: "ordn subtable" x.ordn
Substitution2: "subs subtable" x.subs
EndChar

StartChar: y
Encoding: 121 121 89
Width: 419
VWidth: 982
Flags: HMW
AnchorPoint: "below_accent" 278 -122 basechar 0
AnchorPoint: "top_accent" 225 596 basechar 0
LayerCount: 2
Fore
SplineSet
187 35 m 2
 75 317 l 2
 65 343 51 375 36 380 c 0
 21 385 3 393 3 403 c 0
 3 413 11 423 27 423 c 0
 42 423 76 417 91 417 c 0
 106 417 148 423 163 423 c 0
 179 423 188 413 188 403 c 0
 188 393 176 385 154 378 c 0
 149 377 145 364 149 354 c 2
 230 150 l 2
 237.394935145 131.417348569 241.318288601 132.042789178 247 147 c 2
 313 321 l 2
 321 341 323 355 323 362 c 0
 323 372 312 379 306 380 c 0
 291 383 278 393 278 403 c 0
 278 413 287 423 303 423 c 0
 318 423 343 417 358 417 c 0
 373 417 391 423 406 423 c 0
 422 423 430 413 430 403 c 0
 430 393 411 385 396 380 c 0
 385 376 365.783850647 356.65372435 353 323 c 2
 160 -186 l 2
 150.767218977 -210.305467586 117 -261 71 -261 c 0
 39 -261 20 -232 20 -204 c 0
 20 -174 50 -148 80 -148 c 0
 118 -148 140 -128 151 -105 c 0
 174 -56 192 -12 192 10 c 0
 192 19 190 28 187 35 c 2
EndSplineSet
Validated: 524289
Substitution2: "Smallcaps1 subtable" y.sc
Substitution2: "sups subtable" y.sups
Substitution2: "sinf subtable" y.sinf
Substitution2: "ordn subtable" y.ordn
Substitution2: "subs subtable" y.subs
EndChar

StartChar: z
Encoding: 122 122 90
Width: 432
VWidth: 982
Flags: HMW
AnchorPoint: "below_accent" 205 -80 basechar 0
AnchorPoint: "top_accent" 239 596 basechar 0
LayerCount: 2
Fore
SplineSet
84 422 m 0
 96 422 114 417 134 417 c 2
 322 417 l 2
 363 417 386 421 399 421 c 0
 413 421 411 407 411 399 c 0
 411 387 384.251953125 362.810546875 367 340 c 2
 143 61 l 2
 134.227539062 50.0888671875 146 47 160 47 c 2
 281 47 l 2
 309 47 320 51 352 90 c 0
 374 117 391 146 401 146 c 0
 410 146 415 138 415 121 c 0
 415 71 378 -2 364 -2 c 0
 327 -2 282 4 225 4 c 0
 170 4 120 -2 51 -2 c 0
 34 -2 19 11 19 23 c 0
 19 37 30 50 48 73 c 2
 271 350 l 2
 284.158680039 366.366097264 283 368 267 368 c 2
 143 368 l 2
 115 368 103.066712317 360.936389698 81 330 c 0
 69.3859408858 313.717689633 56 303 49 303 c 0
 39 303 34 308 34 325 c 0
 34 360 66 422 84 422 c 0
EndSplineSet
Validated: 524289
Substitution2: "Smallcaps1 subtable" z.sc
Substitution2: "sups subtable" z.sups
Substitution2: "sinf subtable" z.sinf
Substitution2: "ordn subtable" z.ordn
Substitution2: "subs subtable" z.subs
EndChar

StartChar: braceleft
Encoding: 123 123 91
Width: 373
Flags: MW
LayerCount: 2
Fore
SplineSet
102 279 m 0
 135 270 208 213 208 147 c 0
 208 89 195 42 195 -26 c 0
 195 -99 248 -127 312 -127 c 0
 323 -127 338 -128 338 -139 c 0
 338 -148 329 -154 320 -154 c 0
 226 -154 118 -115 118 -21 c 0
 118 49 131 95 131 157 c 0
 131 215 90 253 36 273 c 0
 31 275 25 276 25 282 c 0
 25 288 31 286 36 288 c 0
 90 308 131 346 131 404 c 0
 131 466 118 512 118 582 c 0
 118 676 226 715 320 715 c 0
 329 715 338 709 338 700 c 0
 338 689 323 688 312 688 c 0
 248 688 195 660 195 587 c 0
 195 519 208 472 208 414 c 0
 208 348 142 300 100 283 c 0
 96 281 99 280 102 279 c 0
EndSplineSet
Validated: 1
Substitution2: "sups subtable" braceleft.sups
Substitution2: "sinf subtable" braceleft.sinf
Substitution2: "ordn subtable" braceleft.ordn
Substitution2: "subs subtable" braceleft.subs
EndChar

StartChar: bar
Encoding: 124 124 92
Width: 157
VWidth: 982
Flags: MW
LayerCount: 2
Fore
SplineSet
55 574 m 2
 55 594 75 610 92 610 c 0
 101 610 102 603 102 574 c 2
 102 -188 l 2
 102 -205 83 -218 67 -218 c 0
 57 -218 55 -210 55 -190 c 2
 55 574 l 2
EndSplineSet
Validated: 1
Substitution2: "sups subtable" bar.sups
Substitution2: "sinf subtable" bar.sinf
Substitution2: "ordn subtable" bar.ordn
Substitution2: "subs subtable" bar.subs
EndChar

StartChar: braceright
Encoding: 125 125 93
Width: 373
Flags: MW
LayerCount: 2
Fore
SplineSet
272 279 m 0
 274 280 277 281 274 283 c 0
 232 300 166 348 166 414 c 0
 166 472 179 519 179 587 c 0
 179 660 125 688 61 688 c 0
 50 688 35 689 35 700 c 0
 35 709 44 715 53 715 c 0
 147 715 255 676 255 582 c 0
 255 512 242 466 242 404 c 0
 242 346 282 308 337 288 c 0
 342 286 348 288 348 282 c 0
 348 276 342 275 337 273 c 0
 282 253 242 215 242 157 c 0
 242 95 255 49 255 -21 c 0
 255 -115 147 -154 53 -154 c 0
 44 -154 35 -148 35 -139 c 0
 35 -128 50 -127 61 -127 c 0
 125 -127 179 -99 179 -26 c 0
 179 42 166 89 166 147 c 0
 166 213 239 270 272 279 c 0
EndSplineSet
Validated: 1
Substitution2: "sups subtable" braceright.sups
Substitution2: "sinf subtable" braceright.sinf
Substitution2: "ordn subtable" braceright.ordn
Substitution2: "subs subtable" braceright.subs
EndChar

StartChar: asciitilde
Encoding: 126 126 94
Width: 386
Flags: MW
LayerCount: 2
Fore
SplineSet
241 177 m 0
 191 177 180 210 130 210 c 0
 99 210 71 166 61 166 c 0
 53 166 40 173 40 183 c 0
 40 206 91 275 140 275 c 0
 188 275 205 243 253 243 c 0
 286 243 312 286 324 286 c 0
 334 286 346 279 346 269 c 0
 346 249 290 177 241 177 c 0
EndSplineSet
Validated: 1
Substitution2: "sups subtable" asciitilde.sups
Substitution2: "sinf subtable" asciitilde.sinf
Substitution2: "ordn subtable" asciitilde.ordn
Substitution2: "subs subtable" asciitilde.subs
EndChar

StartChar: exclamdown
Encoding: 161 161 95
Width: 207
VWidth: 982
Flags: MW
LayerCount: 2
Fore
SplineSet
87 -200 m 0
 62 -200 42 -187 42 -155 c 0
 42 -71 51 28 58 62 c 0
 70 125 82 163 95 163 c 0
 105 163 115 151 119 125 c 0
 124 89 142 -68 142 -145 c 0
 142 -174 117 -200 87 -200 c 0
101 288 m 0
 72 288 43 309 43 338 c 0
 43 372 68 405 102 405 c 0
 131 405 156 382 156 353 c 0
 156 320 134 288 101 288 c 0
EndSplineSet
Validated: 1
EndChar

StartChar: sterling
Encoding: 163 163 96
Width: 600
VWidth: 982
Flags: MW
LayerCount: 2
Fore
SplineSet
224 488 m 0
 249 628 332 691 449 691 c 0
 488 691 518 643 518 589 c 0
 518 558 502 547 468 547 c 0
 456 547 448 555 448 571 c 0
 448 580 454 608 454 612 c 0
 454 632 429 649 402 649 c 0
 354 649 320 600 308 547 c 0
 295 493 285 327 260 257 c 0
 247 220 239 201 210 166 c 0
 194 147 210 138 248 128 c 8
 322 108 363 55 431 55 c 0
 475 55 490 63 490 92 c 0
 490 98 484 115 484 138 c 0
 484 174 496 192 523 192 c 0
 551 192 562 164 562 128 c 0
 562 55 467 -12 394 -12 c 0
 298 -12 269 27 215 81 c 0
 195 101 183 103 147 56 c 0
 116 15 108 7 74 7 c 0
 55 7 40 24 40 48 c 0
 40 72 65 102 119 138 c 0
 148 158 154 168 159 181 c 0
 200 295 203 367 224 488 c 0
404 379 m 2
 427 379 437 375 437 367 c 0
 437 351 423 335 406 335 c 2
 140 335 l 2
 112 335 84 324 66 324 c 0
 53 324 48 326 48 335 c 0
 48 355 56 379 67 379 c 2
 404 379 l 2
EndSplineSet
Validated: 37
EndChar

StartChar: currency
Encoding: 164 164 97
Width: 483
Flags: MW
LayerCount: 2
Fore
SplineSet
41 434 m 2
 39 436 38 438 38 441 c 0
 38 454 56 472 69 472 c 0
 72 472 75 471 77 469 c 2
 122 428 l 1
 155 453 196 465 241 465 c 0
 286 465 327 454 359 428 c 1
 405 470 l 2
 407 472 410 473 413 473 c 0
 425 473 443 457 443 443 c 0
 443 439 442 436 439 433 c 2
 398 388 l 1
 423 355 433 314 433 270 c 0
 433 226 423 185 398 152 c 1
 441 105 l 2
 443 103 444 101 444 98 c 0
 444 85 426 67 413 67 c 0
 410 67 407 68 405 70 c 2
 359 112 l 1
 327 86 286 75 241 75 c 0
 196 75 155 86 123 112 c 1
 76 70 l 2
 74 68 71 67 68 67 c 0
 55 67 38 84 38 97 c 0
 38 100 39 103 41 105 c 2
 84 152 l 1
 59 185 49 226 49 270 c 0
 49 314 59 355 84 387 c 1
 41 434 l 2
241 405 m 0
 162 405 109 349 109 270 c 0
 109 191 162 135 241 135 c 0
 320 135 373 191 373 270 c 0
 373 349 320 405 241 405 c 0
EndSplineSet
Validated: 1
EndChar

StartChar: section
Encoding: 167 167 98
Width: 333
VWidth: 982
Flags: MW
LayerCount: 2
Fore
SplineSet
266 570 m 0
 294 570 323 551 323 517 c 0
 323 503 310 485 280 485 c 0
 266 485 253 495 235 511 c 0
 227 518 213 520 201 520 c 0
 170 520 148 488 148 457 c 0
 148 400 311 280 311 155 c 0
 311 30 214 -148 88 -148 c 0
 53 -148 22 -127 22 -93 c 0
 22 -79 34 -68 60 -68 c 0
 84 -68 102 -102 132 -102 c 0
 162 -102 181 -70 181 -35 c 0
 181 6 22 142 22 260 c 0
 22 384 108 570 266 570 c 0
79 317 m 0
 79 236 244 28 249 28 c 0
 257 28 263 71 263 89 c 0
 263 154 98 370 93 370 c 0
 80 370 79 329 79 317 c 0
EndSplineSet
Validated: 1
Substitution2: "sups subtable" section.sups
Substitution2: "sinf subtable" section.sinf
Substitution2: "ordn subtable" section.ordn
Substitution2: "subs subtable" section.subs
EndChar

StartChar: dieresis
Encoding: 168 168 99
Width: 326
VWidth: 982
Flags: MW
LayerCount: 2
Fore
SplineSet
249 654 m 0
 278 654 301 630 301 601 c 0
 301 572 278 548 249 548 c 0
 220 548 195 572 195 601 c 0
 195 630 220 654 249 654 c 0
77 654 m 0
 106 654 131 630 131 601 c 0
 131 572 106 548 77 548 c 0
 48 548 25 572 25 601 c 0
 25 630 48 654 77 654 c 0
EndSplineSet
Validated: 1
EndChar

StartChar: copyright
Encoding: 169 169 100
Width: 724
VWidth: 982
Flags: MW
LayerCount: 2
Fore
SplineSet
366 569 m 0
 211.44921875 569 75 459 75 300 c 0
 75 141 207 30 366 30 c 0
 520.81640625 30 657 145.18359375 657 300 c 0
 657 454.55078125 520.55078125 569 366 569 c 0
366 604 m 0
 540 604 692 474 692 300 c 0
 692 125 541 -5 366 -5 c 0
 191 -5 40 125 40 300 c 0
 40 474 192 604 366 604 c 0
391 499 m 0
 435 499 476 482 503 469 c 0
 523 460 533 442 533 391 c 0
 533 374 526 363 515 363 c 0
 500 363 485 386 479 406 c 0
 472 429 423 457 379 457 c 0
 305 457 247 396 247 322 c 0
 247 234 300 146 388 146 c 0
 439 146 472 177 500 219 c 0
 504 225 522 254 528 254 c 0
 537 254 539 244 539 226 c 0
 539 218 532 186 523 167 c 0
 518 156 501 141 477 129 c 0
 458 120 413 104 372 104 c 0
 259 104 157 186 157 299 c 0
 157 419 270.948242188 499 391 499 c 0
EndSplineSet
Validated: 1
EndChar

StartChar: degree
Encoding: 176 176 103
Width: 357
VWidth: 982
Flags: MW
LayerCount: 2
Fore
SplineSet
178 620 m 4
 251 620 323 575 323 502 c 4
 323 419 261 347 178 347 c 4
 100 347 41 413 41 491 c 4
 41 564 105 620 178 620 c 4
98 483 m 4
 98 436 136 399 183 399 c 4
 232 399 268 443 268 492 c 4
 268 538 224 567 178 567 c 4
 133 567 98 528 98 483 c 4
EndSplineSet
Validated: 1
EndChar

StartChar: plusminus
Encoding: 177 177 104
Width: 424
VWidth: 982
Flags: MW
LayerCount: 2
Fore
SplineSet
95 0 m 2
 74 0 42 5 42 30 c 0
 42 48 63 66 95 66 c 2
 380 66 l 2
 405 66 422 53 422 38 c 0
 422 23 409 1 379 1 c 2
 95 0 l 2
200 277 m 1
 95 277 l 2
 74 277 42 282 42 307 c 0
 42 325 63 343 95 343 c 2
 200 343 l 1
 200 448 l 2
 200 484 217 501 232 501 c 0
 247 501 265 491 265 459 c 2
 265 343 l 1
 380 343 l 2
 405 343 422 330 422 315 c 0
 422 300 409 278 379 278 c 2
 265 278 l 1
 265 161 l 2
 265 142 258 121 233 121 c 0
 208 121 200 137 200 159 c 2
 200 277 l 1
EndSplineSet
Validated: 1
EndChar

StartChar: uni00B2
Encoding: 178 178 105
Width: 311
Flags: MW
LayerCount: 2
Fore
SplineSet
70.5 665.400390625 m 0
 62.6091591517 659.257538624 53.25 645.4375 50.765625 645.4375 c 0
 43.3125 645.4375 36 652.75 36 664 c 0
 36 694 96 750 157 750 c 0
 208 750 262 719 262 664 c 0
 262 602 212.856445312 577.946289062 166 537.400390625 c 2
 117 495 l 2
 104.563476562 483.41015625 107 477 121 477 c 2
 225 477 l 2
 255 477 260.941962133 487.941962133 270 497 c 0
 273.535533906 500.535533906 280 513 289 513 c 0
 295 513 299 503 299 500 c 0
 299 499 298 497 298 496 c 0
 285 460 284 459 278 428 c 0
 276 417 271 416 266 416 c 2
 65 416 l 2
 42 416 23 424 23 438 c 0
 23 450 28 456 39 465 c 1
 135 549 l 2
 164.344181447 574.688888945 190 600 190 638 c 0
 190 669 166 694 135 694 c 0
 100 694 87.8598498664 678.914665027 70.5 665.400390625 c 0
EndSplineSet
Validated: 1
EndChar

StartChar: mu
Encoding: 181 181 107
Width: 510
Flags: MW
LayerCount: 2
Fore
SplineSet
420 77 m 0
 457 77 485 116 493 116 c 0
 498 116 504 112 504 107 c 0
 504 32 449 -8 406 -8 c 0
 373 -8 359 7 339 55 c 0
 337 61 328 88 326 109 c 1
 319 93 260 -6 210 -6 c 0
 105 -6 93 69 78 69 c 0
 71 69 68 56 68 35 c 0
 68 6 74 -36 80 -71 c 0
 93 -149 141 -206 141 -224 c 0
 141 -244 128 -266 109 -266 c 0
 77 -266 58 -246 46 -215 c 0
 37 -191 31 -68 31 7 c 0
 31 24 38 67 38 99 c 0
 38 132 31 299 31 343 c 0
 31 385 44 429 83 429 c 0
 112 429 130 402 130 354 c 0
 130 312 99 179 99 139 c 0
 99 113 125 65 169 65 c 0
 222 65 249 84 273 129 c 0
 311 202 305 263 305 343 c 0
 305 382 328 426 362 426 c 0
 396 426 405 385 405 363 c 0
 405 326 357 222 357 169 c 0
 357 132 375 77 420 77 c 0
EndSplineSet
Validated: 33
EndChar

StartChar: questiondown
Encoding: 191 191 110
Width: 266
VWidth: 982
Flags: MW
LayerCount: 2
Fore
SplineSet
42 42 m 0
 42 93 54 109 72 116 c 0
 98 126 115 130 146 142 c 0
 154 145 165 202 184 202 c 0
 199 202 210 146 210 119 c 0
 210 98 206 68 193 63 c 0
 168 53 148 49 127 40 c 0
 92 25 75 4 75 -30 c 0
 75 -51 93 -75 109 -80 c 0
 131 -86 154 -92 183 -103 c 0
 205 -111 219 -123 219 -150 c 0
 219 -193 213 -222 201 -222 c 0
 80 -222 42 -115 42 42 c 0
110 340 m 0
 110 376 133 405 171 405 c 0
 203 405 230 381 230 348 c 0
 230 314 203 288 167 288 c 0
 136 288 110 308 110 340 c 0
EndSplineSet
Validated: 1
EndChar

StartChar: AE.alt
Encoding: 1114115 -1 117
Width: 903
VWidth: 982
Flags: MW
AnchorPoint: "below_accent" 308 -80 basechar 0
AnchorPoint: "cedilla" 87 15 basechar 0
AnchorPoint: "top_accent" 336 670 basechar 0
LayerCount: 2
Fore
SplineSet
523 4 m 0
 457 4 419 -2 389 -2 c 0
 376 -2 357 4 357 15 c 0
 357 30 389 35 411 45 c 0
 447 62 445 81 440 98 c 0
 422 158 403 217 384 276 c 1
 217 276 l 1
 188 213 159 150 131 85 c 0
 123 68 124 51 153 43 c 0
 179 36 190 25 190 15 c 0
 190 4 180 -2 155 -2 c 0
 136 -2 92 4 73 4 c 0
 48 4 25 -2 10 -2 c 0
 -9 -2 -27 4 -27 15 c 0
 -27 30 6 35 28 45 c 0
 61 60 60 66 79 106 c 2
 267 511 l 2
 280 540 256 547 225 556 c 0
 216 559 209 564 209 573 c 0
 209 585 223 591 244 591 c 2
 499 591 l 2
 541 591 570 593 588 593 c 0
 604 593 612 588 615 579 c 0
 624 554 653 511 653 500 c 0
 653 488 652 480 640 480 c 0
 628 480 614 494 601 512 c 0
 588 530 568 545 520 545 c 2
 389 545 l 2
 384 545 385 543 386 539 c 2
 461 325 l 1
 544 325 l 2
 576 325 582 330 600 348 c 0
 612 358 611 386 625 386 c 0
 633 386 646 342 664 304 c 0
 678 273 698 239 698 235 c 0
 698 225 698 218 688 218 c 0
 675 218 648 245 642 255 c 0
 635 266 616 276 595 276 c 2
 478 276 l 1
 515 171 l 2
 548 79 583 44 614 44 c 2
 751 45 l 2
 783 45 780 53 808 115 c 0
 813 126 815 134 824 134 c 0
 834 134 837 123 843 109 c 0
 854 83 869 30 861 17 c 0
 853 2 851 -2 834 -2 c 0
 797 -2 629 4 523 4 c 0
368 325 m 1
 352 375 335 424 319 474 c 0
 316 484 313 481 308 471 c 0
 285 422 263 374 240 325 c 1
 368 325 l 1
EndSplineSet
Validated: 33
EndChar

StartChar: Eth
Encoding: 208 208 127
Width: 716
VWidth: 982
Flags: HMW
AnchorPoint: "below_accent" 364 -80 basechar 0
AnchorPoint: "cedilla" 360 15 basechar 0
AnchorPoint: "ogonek" 394 15 basechar 0
AnchorPoint: "top_accent" 346 670 basechar 0
LayerCount: 2
Fore
SplineSet
337 598 m 4
 505 598 671 489 671 319 c 4
 671 146 574 -7 359 -7 c 4
 264 -7 211 4 165 4 c 4
 119 4 60 -2 53 -2 c 4
 42 -1 20 4 20 15 c 4
 20 30 53 35 75 45 c 4
 108 60 122 92 122 129 c 6
 122 482 l 6
 122 539 97 539 40 556 c 4
 31 559 24 564 24 573 c 4
 24 585 38 591 59 591 c 4
 90 591 109 590 139 590 c 4
 201 590 275 598 337 598 c 4
217 521 m 6
 217 167 l 6
 217 61 289 38 377 38 c 4
 496 38 559 172 559 299 c 4
 559 445 446 553 304 553 c 4
 261 553 217 543 217 521 c 6
EndSplineSet
Validated: 1
Substitution2: "c2sc subtable" Eth.sc
EndChar

StartChar: multiply
Encoding: 215 215 134
Width: 376
VWidth: 982
Flags: MW
LayerCount: 2
Fore
SplineSet
331 93 m 0
 331 78 312 61 299 61 c 0
 289 61 280 67 271 76 c 2
 188 159 l 1
 113 85 l 2
 102 74 87 61 72 61 c 0
 57 61 47 73 47 89 c 0
 47 102 53 117 67 131 c 2
 141 206 l 1
 67 280 l 2
 52 295 45 310 45 322 c 0
 45 338 59 350 74 350 c 0
 83 350 93 346 105 334 c 2
 187 252 l 1
 268 333 l 2
 279 344 291 349 301 349 c 0
 319 349 327 335 327 318 c 0
 327 308 323 296 313 286 c 2
 233 206 l 1
 316 123 l 2
 324 115 331 104 331 93 c 0
EndSplineSet
Validated: 1
Substitution2: "Smallcaps1 subtable" multiply.sc
EndChar

StartChar: Oslash
Encoding: 216 216 135
Width: 713
VWidth: 982
Flags: HMW
AnchorPoint: "below_accent" 324 -80 basechar 0
AnchorPoint: "cedilla" 146 15 basechar 0
AnchorPoint: "ogonek" 410 15 basechar 0
AnchorPoint: "top_accent" 362 670 basechar 0
LayerCount: 2
Fore
SplineSet
562 524 m 1
 598 560 l 2
 627 589 638 598 652 598 c 0
 663 598 663 593 663 583 c 0
 663 573 657 563 650 556 c 2
 589 496 l 1
 634 444 663 377 663 310 c 0
 663 139 537 -12 366 -12 c 0
 281 -12 206 16 150 65 c 1
 103 18 l 2
 89 4 75 -12 63 -12 c 0
 54 -12 50 -8 50 1 c 0
 50 11 55 27 69 40 c 2
 122 93 l 1
 76 145 50 214 50 295 c 0
 50 484 192 598 390 598 c 0
 451 598 513 569 562 524 c 1
198 167 m 1
 501 464 l 1
 467 516 417 552 352 552 c 0
 242 552 162 440 162 330 c 0
 162 275 174 217 198 167 c 1
218 131 m 1
 255 74 310 34 380 34 c 0
 499 34 551 161 551 280 c 0
 551 331 540 383 520 428 c 1
 218 131 l 1
EndSplineSet
Validated: 1
Substitution2: "c2sc subtable" Oslash.sc
EndChar

StartChar: Thorn
Encoding: 222 222 141
Width: 535
VWidth: 982
Flags: MW
AnchorPoint: "below_accent" 308 -80 basechar 0
AnchorPoint: "cedilla" 360 15 basechar 0
AnchorPoint: "ogonek" 394 15 basechar 0
AnchorPoint: "top_accent" 346 670 basechar 0
LayerCount: 2
Fore
SplineSet
228 467 m 0
 242 469 258 472 277 472 c 0
 378 472 490 428 490 327 c 0
 490 245 438 196 368 158 c 0
 331 138 315 138 304 138 c 0
 293 138 286 143 286 155 c 0
 286 165 301 167 329 191 c 0
 368 224 390 260 390 312 c 0
 390 379 331 428 264 428 c 0
 236 428 214 413 214 394 c 2
 214 129 l 2
 214 92 227 60 261 45 c 0
 283 35 316 30 316 15 c 0
 316 5 295 -1 284 -2 c 0
 277 -2 211 4 163 4 c 0
 120 4 60 -2 53 -2 c 0
 42 -1 20 5 20 15 c 0
 20 30 53 35 75 45 c 0
 109 60 122 92 122 129 c 2
 122 482 l 2
 122 539 97 540 40 556 c 0
 31 559 24 564 24 573 c 0
 24 585 44 591 59 591 c 0
 98 591 134 586 170 586 c 0
 205 586 246 591 280 591 c 0
 295 591 315 585 315 573 c 0
 315 564 309 559 300 556 c 0
 243 540 217 525 217 482 c 0
 217 464 222 466 228 467 c 0
EndSplineSet
Validated: 1
Substitution2: "c2sc subtable" Thorn.sc
EndChar

StartChar: germandbls
Encoding: 223 223 142
Width: 552
VWidth: 982
Flags: HMW
LayerCount: 2
Fore
SplineSet
317 648 m 0
 219 648 180 513 180 425 c 2
 180 108 l 2
 180 72 186 49 203 44 c 0
 226 37 236 28 236 18 c 0
 236 8 228 -2 202 -2 c 0
 180 -2 155 4 139 4 c 0
 119 4 72 -2 50 -2 c 0
 24 -2 15 8 15 18 c 0
 15 28 32 36 59 44 c 0
 86 52 97 83 97 108 c 2
 98 362 l 1
 50 362 l 2
 40 363 23 365 23 375 c 0
 23 389 56 418 84 428 c 0
 95 432 97 438 97 449 c 0
 97 571 211 690 337 690 c 0
 407 690 484 659 484 590 c 0
 484 541 459.062445841 512.062445841 423 476 c 2
 376 429 l 2
 360.443650814 413.443650814 352 398 352 376 c 0
 352 354 362.199286913 339.832478662 378 326 c 2
 483 234 l 2
 508.582106902 211.604558356 531 183 531 143 c 0
 531 61 463 -8 380 -8 c 0
 352 -8 324 -4 314 0 c 0
 299 6 294 7 289 20 c 0
 284 33 272 68 272 83 c 0
 272 100 273 115 283 115 c 0
 293 115 313 106 327 75 c 0
 340 48 371 37 404 37 c 0
 439 37 465 67 465 100 c 0
 465 131 441.324862176 149.580626736 418 170 c 2
 354 226 l 2
 317.884084373 257.617094086 280 293 280 330 c 0
 280 374 303.07421875 412.86328125 337 446 c 2
 368 476 l 2
 394.570673017 501.748773474 405 535 405 568 c 0
 405 616 367 648 317 648 c 0
EndSplineSet
Validated: 524289
Substitution2: "Smallcaps1 subtable" germandbls.sc
AlternateSubs2: "germandbls_variants subtable" germandbls.alt1 germandbls.alt2
EndChar

StartChar: ae
Encoding: 230 230 149
Width: 569
VWidth: 982
Flags: MW
AnchorPoint: "below_accent" 260 -80 basechar 0
AnchorPoint: "top_accent" 276 596 basechar 0
LayerCount: 2
Fore
SplineSet
111 124 m 0
 111 86 132 59 170 59 c 0
 199 59 232 73 232 97 c 2
 232 180 l 2
 232 191 220 190 209 187 c 2
 161 172 l 2
 123 160 111 148 111 124 c 0
317 280 m 0
 317 273 319 265 330 269 c 2
 434 304 l 2
 452 309 462 321 462 335 c 0
 462 365 433 384 403 384 c 0
 367 384 317 333 317 280 c 0
549 326 m 0
 549 299 527 287 502 279 c 2
 339 227 l 2
 321 221 316 218 316 208 c 0
 316 141 334 60 411 60 c 0
 461 60 505 83 515 83 c 0
 525 83 530 79 530 69 c 0
 530 40 454 -8 374 -8 c 0
 327 -8 298 13 269 47 c 0
 261 56 255 57 246 47 c 0
 212 11 160 -8 121 -8 c 0
 72 -8 22 38 22 88 c 0
 22 138 49 167 79 179 c 1
 207 226 l 2
 225 233 230 239 230 249 c 2
 230 309 l 2
 230 344 192 370 157 370 c 0
 136 370 111 362 111 341 c 0
 111 316 110 308 101 302 c 0
 95 298 55 281 45 281 c 0
 39 281 37 307 37 315 c 0
 37 338 54 368 75 383 c 0
 110 407 149 430 186 430 c 0
 238 430 275 412 296 385 c 1
 300 388 304 391 308 394 c 0
 342 417 372 430 417 430 c 0
 484 430 549 390 549 326 c 0
EndSplineSet
Validated: 1
Substitution2: "Smallcaps1 subtable" ae.sc
Ligature2: "LATliga subtable" a e
LCarets2: 1 0
EndChar

StartChar: divide
Encoding: 247 247 166
Width: 469
VWidth: 982
Flags: MW
LayerCount: 2
Fore
SplineSet
95 167 m 2
 74 167 42 172 42 197 c 0
 42 215 63 233 95 233 c 2
 380 233 l 2
 405 233 422 220 422 205 c 0
 422 190 409 168 379 168 c 2
 95 167 l 2
242 116 m 0
 274 116 296 86 296 54 c 0
 296 19 264 -5 229 -5 c 0
 198 -5 173 20 173 51 c 0
 173 88 205 116 242 116 c 0
242 405 m 0
 274 405 296 375 296 343 c 0
 296 308 264 284 229 284 c 0
 198 284 173 309 173 340 c 0
 173 377 205 405 242 405 c 0
EndSplineSet
Validated: 1
Substitution2: "Smallcaps1 subtable" divide.sc
EndChar

StartChar: oslash
Encoding: 248 248 167
Width: 487
VWidth: 982
Flags: MW
AnchorPoint: "top_accent" 242 596 basechar 0
LayerCount: 2
Fore
SplineSet
383 381 m 1
 411 409 l 2
 423 421 437 430 452 430 c 0
 462 430 464 423 464 410 c 0
 464 400 452 388 439 375 c 2
 414 351 l 1
 445 314 464 266 464 213 c 0
 464 85 362 -8 234 -8 c 0
 181 -8 136 12 100 44 c 1
 68 13 l 2
 50 -4 45 -8 35 -8 c 0
 25 -8 22 7 22 18 c 0
 22 28 28 36 37 44 c 2
 70 77 l 1
 39 119 22 172 22 228 c 0
 22 344 134 430 239 430 c 0
 294 430 344 412 383 381 c 1
140 144 m 1
 326 326 l 1
 303 363 271 388 232 388 c 0
 160 388 122 309 122 237 c 0
 122 206 128 173 140 144 c 1
161 104 m 1
 186 66 220 39 260 39 c 0
 330 39 365 116 365 186 c 0
 365 219 359 254 347 285 c 1
 161 104 l 1
EndSplineSet
Validated: 1
Substitution2: "Smallcaps1 subtable" oslash.sc
EndChar

StartChar: thorn
Encoding: 254 254 173
Width: 445
VWidth: 982
Flags: MW
AnchorPoint: "top_accent" 110 785 basechar 0
LayerCount: 2
Fore
SplineSet
65 564 m 2
 65 584 50 604 26 613 c 0
 15 617 3 625 3 636 c 0
 3 647 18 655 32 657 c 0
 72 664 126 681 136 681 c 0
 148 681 148 673 148 651 c 2
 148 392 l 2
 148 387 154 382 162 390 c 0
 178 406 230 430 275 430 c 0
 358 430 425 341 425 257 c 0
 425 121 330 -6 197 -6 c 0
 177 -6 162 6 158 6 c 0
 149 6 148 1 148 -8 c 2
 148 -169 l 2
 148 -204 162 -212 216 -227 c 0
 243 -235 259 -243 259 -253 c 0
 259 -263 251 -273 225 -273 c 0
 191 -273 131 -260 38 -260 c 0
 12 -260 3 -250 3 -240 c 0
 3 -230 20 -222 47 -214 c 0
 60 -210 65 -186 65 -161 c 2
 65 564 l 2
148 294 m 2
 148 107 l 2
 148 70 183 45 220 45 c 0
 298 45 333 129 333 211 c 0
 333 294 310 378 223 378 c 0
 178 378 148 338 148 294 c 2
EndSplineSet
Validated: 1
Substitution2: "Smallcaps1 subtable" thorn.sc
EndChar

StartChar: dotlessi
Encoding: 305 305 175
Width: 276
VWidth: 982
Flags: HMW
AnchorPoint: "below_accent" 138 -80 basechar 0
AnchorPoint: "ogonek" 160 5 basechar 0
AnchorPoint: "top_accent" 133 596 basechar 0
LayerCount: 2
Fore
SplineSet
97 302 m 2
 97 319 80 344 56 353 c 0
 45 357 35 363 35 374 c 0
 35 385 51 393 64 399 c 0
 75 405 158 438 168 438 c 0
 180 438 180 429 180 409 c 2
 180 108 l 2
 180 83 191 52 218 44 c 0
 245 36 261 28 261 18 c 0
 261 8 253 -2 227 -2 c 0
 205 -2 155 4 139 4 c 0
 119 4 72 -2 50 -2 c 0
 24 -2 15 8 15 18 c 0
 15 28 32 36 59 44 c 0
 86 52 97 83 97 108 c 2
 97 302 l 2
EndSplineSet
Validated: 1048577
Substitution2: "Smallcaps1 subtable" dotlessi.sc
EndChar

StartChar: endash
Encoding: 8211 8211 185
Width: 500
VWidth: 982
Flags: MW
LayerCount: 2
Fore
SplineSet
424 235 m 2
 454 235 460 233 460 218 c 0
 460 204 447 167 417 167 c 2
 69 167 l 2
 46 167 40 169 40 185 c 0
 40 201 59 235 89 235 c 2
 424 235 l 2
EndSplineSet
Validated: 1
Substitution2: "'case' Case-Sensitive Forms lookup 8 subtable" endash.cap
EndChar

StartChar: emdash
Encoding: 8212 8212 186
Width: 1000
VWidth: 982
Flags: MW
LayerCount: 2
Fore
SplineSet
924 235 m 2
 954 235 960 233 960 218 c 0
 960 204 947 167 917 167 c 2
 69 167 l 2
 46 167 40 169 40 185 c 0
 40 201 59 235 89 235 c 2
 924 235 l 2
EndSplineSet
Validated: 1
Substitution2: "'case' Case-Sensitive Forms lookup 8 subtable" emdash.cap
EndChar

StartChar: quotesinglbase
Encoding: 8218 8218 189
Width: 235
VWidth: 982
Flags: MW
LayerCount: 2
Fore
SplineSet
82 115 m 0
 144 115 196 65 196 5 c 0
 196 -61 119 -174 60 -174 c 0
 51 -174 46 -169 46 -161 c 0
 46 -144 119 -99 119 -50 c 0
 119 -13 91 -2 65 13 c 0
 43 25 26 40 26 63 c 0
 26 94 53 115 82 115 c 0
EndSplineSet
Validated: 1
EndChar

StartChar: Euro
Encoding: 8364 8364 194
Width: 692
VWidth: 982
Flags: MW
LayerCount: 2
Fore
SplineSet
437 608 m 0
 513 608 591 570 614 568 c 0
 637 566 644 513 644 458 c 0
 644 441 637 430 626 430 c 0
 611 430 599 451 586 493 c 0
 572 537 488 563 417 563 c 0
 308 563 227 487 204 380 c 1
 436 380 l 2
 461 380 478 374 478 359 c 0
 478 344 465 322 435 322 c 2
 197 321 l 1
 197 320 197 318 197 317 c 0
 197 301 198 285 200 269 c 1
 410 269 l 2
 435 269 452 263 452 248 c 0
 452 233 439 211 409 211 c 2
 214 210 l 1
 248 108 331 34 451 34 c 0
 552 34 569 98 622 173 c 0
 626 179 632 181 640 181 c 0
 648 181 656 171 656 153 c 0
 656 145 625 77 616 58 c 0
 600 25 595 18 570 9 c 0
 530 -5 472 -16 416 -16 c 0
 269 -16 127 70 93 210 c 1
 53 210 l 2
 32 210 0 208 0 233 c 0
 0 251 21 269 53 269 c 2
 85 269 l 1
 85 271 85 273 85 275 c 0
 85 291 86 306 88 321 c 1
 79 321 l 2
 58 321 26 319 26 344 c 0
 26 362 47 380 79 380 c 2
 101 380 l 1
 145 519 277 608 437 608 c 0
EndSplineSet
Validated: 33
EndChar

StartChar: uniFB00
Encoding: 64256 64256 195
Width: 584
VWidth: 982
Flags: MW
LayerCount: 2
Fore
SplineSet
334 355 m 2
 204 355 l 2
 178 355 180 346 180 332 c 2
 180 108 l 2
 180 61 194 49 209 44 c 0
 236 36 242 28 242 18 c 0
 242 8 239 -2 213 -2 c 0
 191 -2 154 4 138 4 c 0
 118 4 72 -2 50 -2 c 0
 24 -2 15 8 15 18 c 0
 15 28 32 36 59 44 c 0
 86 52 97 83 97 108 c 2
 97 338 l 2
 97 346 92 352 55 352 c 0
 46 352 23 356 23 366 c 0
 23 380 57 396 84 406 c 0
 95 410 97 424 97 435 c 0
 97 536 195 649 313 649 c 0
 332 649 354 644 384 630 c 0
 396 624 411 615 416 615 c 0
 421 615 431 628 444 639 c 0
 487 675 536 690 597 690 c 0
 648 690 695 642 695 605 c 0
 695 581 683 559 658 559 c 0
 634 559 621 586 606 607 c 0
 595 623 571 634 542 634 c 0
 474 634 433 557 433 498 c 2
 433 420 l 2
 433 405 442 410 455 410 c 2
 520 412 l 2
 536 412 543 399 543 389 c 0
 543 379 534 355 520 355 c 2
 449 355 l 2
 437 355 433 346 433 332 c 2
 433 108 l 2
 433 83 444 52 471 44 c 0
 498 36 514 28 514 18 c 0
 514 8 506 -2 480 -2 c 0
 458 -2 407 4 391 4 c 0
 371 4 341 -2 319 -2 c 0
 293 -2 289 8 289 18 c 0
 289 28 301 36 328 44 c 0
 347 50 350 83 350 108 c 2
 350 332 l 2
 350 352 344 355 334 355 c 2
180 426 m 2
 180 406 185 410 193 410 c 2
 333 410 l 2
 354 410 350 412 350 420 c 0
 350 472 356 506 358 511 c 0
 362 524 361 526 357 535 c 0
 339 578 319 593 279 593 c 0
 219 593 180 552 180 473 c 2
 180 426 l 2
EndSplineSet
Validated: 33
LCarets2: 1 275
EndChar

StartChar: uniFB01
Encoding: 64257 64257 196
Width: 535
VWidth: 982
Flags: MW
AnchorPoint: "below_accent" 141 -80 basechar 0
AnchorPoint: "top_accent" 265 785 basechar 0
LayerCount: 2
Fore
SplineSet
295 355 m 2
 196 355 l 2
 184 355 180 346 180 332 c 2
 180 108 l 2
 180 83 185 52 198 48 c 0
 225 40 241 28 241 18 c 0
 241 8 233 -2 207 -2 c 0
 185 -2 155 4 139 4 c 0
 119 4 72 -2 50 -2 c 0
 24 -2 15 8 15 18 c 0
 15 28 32 36 59 44 c 0
 86 52 97 83 97 108 c 2
 97 334 l 2
 97 344 92 352 55 352 c 0
 46 352 23 356 23 366 c 0
 23 380 56 396 84 406 c 0
 95 410 97 424 97 436 c 0
 97 511 181 690 332 690 c 0
 414 690 456 656 456 606 c 0
 456 579 416 561 388 561 c 0
 367 561 369 574 338 605 c 0
 317 626 294 636 280 636 c 0
 200 636 180 515 180 423 c 8
 180 413 189 410 202 410 c 2
 325 412 l 2
 341 412 355 413 360 415 c 0
 388 426 421 438 427 438 c 0
 439 438 439 429 439 409 c 2
 439 108 l 2
 439 83 450 52 477 44 c 0
 504 36 520 28 520 18 c 0
 520 8 512 -2 486 -2 c 0
 464 -2 414 4 398 4 c 0
 378 4 346 -2 324 -2 c 0
 298 -2 289 8 289 18 c 0
 289 28 306 40 333 48 c 0
 353 54 356 83 356 108 c 2
 356 302 l 2
 356 336 340 355 295 355 c 2
EndSplineSet
Validated: 1
EndChar

StartChar: uniFB02
Encoding: 64258 64258 197
Width: 548
VWidth: 982
Flags: MW
AnchorPoint: "below_accent" 138 -80 basechar 0
AnchorPoint: "top_accent" 267 785 basechar 0
LayerCount: 2
Fore
SplineSet
395 671 m 0
 416 677 435 681 440 681 c 0
 452 681 452 673 452 654 c 2
 452 108 l 2
 452 83 463 52 490 44 c 0
 517 36 533 28 533 18 c 0
 533 8 525 -2 499 -2 c 0
 477 -2 427 4 411 4 c 0
 391 4 356 -2 334 -2 c 0
 308 -2 299 8 299 18 c 0
 299 28 316 36 343 44 c 0
 370 52 369 83 369 108 c 2
 369 355 l 1
 196 355 l 2
 184 355 180 346 180 332 c 2
 180 108 l 2
 180 71 188 50 208 44 c 0
 235 36 252 28 252 18 c 0
 252 8 243 -2 217 -2 c 0
 195 -2 154 4 138 4 c 0
 118 4 72 -2 50 -2 c 0
 24 -2 15 8 15 18 c 0
 15 28 32 36 59 44 c 0
 86 52 97 83 97 108 c 2
 97 338 l 2
 97 346 92 352 55 352 c 0
 46 352 23 356 23 366 c 0
 23 380 56 396 84 406 c 0
 95 410 97 424 97 435 c 0
 97 573 184 690 322 690 c 0
 340 690 361 684 379 674 c 0
 383 672 390 670 395 671 c 0
369 412 m 1
 369 550 l 2
 369 574 364 586 349 607 c 0
 338 623 317 634 288 634 c 0
 220 634 180 584 180 525 c 2
 180 428 l 2
 180 413 189 412 202 412 c 2
 369 412 l 1
EndSplineSet
Validated: 33
EndChar

StartChar: uniFB03
Encoding: 64259 64259 198
Width: 788
VWidth: 982
Flags: MW
LayerCount: 2
Fore
SplineSet
585 690 m 0
 667 690 709 656 709 606 c 0
 709 579 669 561 641 561 c 0
 620 561 622 574 591 605 c 0
 570 626 547 636 533 636 c 0
 453 636 433 515 433 423 c 8
 433 413 442 410 455 410 c 2
 578 412 l 2
 594 412 608 413 613 415 c 0
 641 426 674 438 680 438 c 0
 692 438 692 429 692 409 c 2
 692 108 l 2
 692 83 703 52 730 44 c 0
 757 36 773 28 773 18 c 0
 773 8 765 -2 739 -2 c 0
 717 -2 667 4 651 4 c 0
 631 4 599 -2 577 -2 c 0
 551 -2 542 8 542 18 c 0
 542 28 559 40 586 48 c 0
 606 54 609 83 609 108 c 2
 609 302 l 2
 609 336 593 355 548 355 c 2
 449 355 l 2
 437 355 433 346 433 332 c 2
 433 108 l 2
 433 83 438 52 451 48 c 0
 478 40 494 28 494 18 c 0
 494 8 486 -2 460 -2 c 0
 438 -2 408 4 392 4 c 0
 373 4 341 -2 319 -2 c 0
 293 -2 289 8 289 18 c 0
 289 28 301 36 328 44 c 0
 347 50 350 83 350 108 c 2
 350 332 l 2
 350 352 344 355 334 355 c 2
 204 355 l 2
 178 355 180 346 180 332 c 2
 180 108 l 2
 180 61 194 49 209 44 c 0
 236 36 242 28 242 18 c 0
 242 8 239 -2 213 -2 c 0
 191 -2 154 4 138 4 c 0
 118 4 72 -2 50 -2 c 0
 24 -2 15 8 15 18 c 0
 15 28 32 36 59 44 c 0
 86 52 97 83 97 108 c 2
 97 338 l 2
 97 346 92 352 55 352 c 0
 46 352 23 356 23 366 c 0
 23 380 57 396 84 406 c 0
 95 410 97 424 97 435 c 0
 97 535 195 649 313 649 c 0
 332 649 354 644 384 630 c 0
 396 624 411 615 416 615 c 0
 421 615 424 617 444 639 c 0
 471 668 525 690 585 690 c 0
180 426 m 2
 180 406 185 410 193 410 c 2
 333 410 l 2
 354 410 350 412 350 420 c 0
 350 472 356 506 358 511 c 0
 362 524 361 526 357 535 c 0
 339 578 319 593 279 593 c 0
 219 593 180 552 180 473 c 2
 180 426 l 2
EndSplineSet
Validated: 33
EndChar

StartChar: uniFB04
Encoding: 64260 64260 199
Width: 801
VWidth: 982
Flags: MW
LayerCount: 2
Fore
SplineSet
575 690 m 0
 593 690 614 684 632 674 c 0
 636 672 643 670 648 671 c 0
 669 677 688 681 693 681 c 0
 705 681 705 673 705 654 c 2
 705 108 l 2
 705 83 716 52 743 44 c 0
 770 36 786 28 786 18 c 0
 786 8 778 -2 752 -2 c 0
 730 -2 680 4 664 4 c 0
 644 4 609 -2 587 -2 c 0
 561 -2 552 8 552 18 c 0
 552 28 569 36 596 44 c 0
 623 52 622 83 622 108 c 2
 622 355 l 1
 449 355 l 2
 437 355 433 346 433 332 c 2
 433 108 l 2
 433 71 441 50 461 44 c 0
 488 36 505 28 505 18 c 0
 505 8 496 -2 470 -2 c 0
 448 -2 407 4 391 4 c 0
 374 4 341 -2 319 -2 c 0
 293 -2 289 8 289 18 c 0
 289 28 301 36 328 44 c 0
 347 50 350 83 350 108 c 2
 350 332 l 2
 350 352 344 355 334 355 c 2
 204 355 l 2
 178 355 180 346 180 332 c 2
 180 108 l 2
 180 61 194 49 209 44 c 0
 236 36 242 28 242 18 c 0
 242 8 239 -2 213 -2 c 0
 191 -2 154 4 138 4 c 0
 118 4 72 -2 50 -2 c 0
 24 -2 15 8 15 18 c 0
 15 28 32 36 59 44 c 0
 86 52 97 83 97 108 c 2
 97 338 l 2
 97 346 92 352 55 352 c 0
 46 352 23 356 23 366 c 0
 23 380 57 396 84 406 c 0
 95 410 97 424 97 435 c 0
 97 536 195 649 313 649 c 0
 332 649 354 644 384 630 c 0
 396 624 411 615 416 615 c 0
 421 615 423 621 444 639 c 0
 481 671 525 690 575 690 c 0
622 412 m 1
 622 550 l 2
 622 574 617 586 602 607 c 0
 591 623 570 634 541 634 c 0
 473 634 433 584 433 525 c 2
 433 428 l 2
 433 413 442 412 455 412 c 2
 622 412 l 1
180 426 m 2
 180 406 185 410 193 410 c 2
 333 410 l 2
 354 410 350 412 350 420 c 0
 350 472 356 506 358 511 c 0
 362 524 361 526 357 535 c 0
 339 578 319 593 279 593 c 0
 219 593 180 552 180 473 c 2
 180 426 l 2
EndSplineSet
Validated: 33
EndChar

StartChar: uniFB05
Encoding: 64261 64261 200
Width: 606
VWidth: 982
Flags: MW
AnchorPoint: "below_accent" 141 -80 basechar 0
AnchorPoint: "cedilla" 490 5 basechar 0
AnchorPoint: "top_accent" 265 785 basechar 0
LayerCount: 2
Fore
SplineSet
344 593 m 0
 326 622 284 636 270 636 c 0
 190 636 180 513 180 425 c 2
 180 108 l 1
 180 83 191 52 218 44 c 0
 245 36 261 28 261 18 c 0
 261 8 253 -2 227 -2 c 0
 205 -2 155 4 139 4 c 0
 119 4 72 -2 50 -2 c 0
 24 -2 15 8 15 18 c 0
 15 28 32 36 59 44 c 0
 86 52 97 83 97 108 c 2
 98 362 l 1
 50 362 l 2
 40 363 23 365 23 375 c 0
 23 389 56 418 84 428 c 0
 95 432 97 438 97 449 c 0
 97 508 181 690 332 690 c 0
 392 690 442 629 442 572 c 2
 442 572 442 487 442 432 c 16
 442 422 451 417 464 417 c 2
 557 417 l 2
 573 417 581 404 581 394 c 0
 581 384 571 358 557 358 c 2
 458 358 l 2
 446 358 442 349 442 335 c 2
 442 152 l 2
 442 82 459 60 494 60 c 0
 531 60 556 78 566 78 c 0
 576 78 581 74 581 64 c 0
 581 41 527 -8 467 -8 c 0
 408 -8 359 21 359 106 c 2
 359 341 l 2
 359 350 365 355 328 355 c 0
 319 355 296 359 296 369 c 0
 296 383 319 399 344 420 c 0
 358 432 360 446 360 465 c 26
 360 525 l 2
 360 551 359 569 344 593 c 0
EndSplineSet
Validated: 33
EndChar

StartChar: uniFB06
Encoding: 64262 64262 201
Width: 617
VWidth: 982
Flags: MW
LayerCount: 2
Fore
SplineSet
167 430 m 0
 192 430 216 419 247 406 c 0
 254 403 255 400 258 390 c 0
 261 379 263 350 263 341 c 0
 263 329 263 319 251 319 c 0
 241 319 234 327 221 344 c 0
 212 356 184 384 153 384 c 0
 116 384 107 359 107 341 c 0
 107 320 118 308 133 297 c 2
 232 222 l 2
 270 193 280 176 280 138 c 0
 280 44 217 -8 129 -8 c 0
 101 -8 73 -4 63 0 c 0
 48 6 43 7 38 20 c 0
 33 33 21 68 21 83 c 0
 21 100 22 115 32 115 c 0
 42 115 62 106 76 75 c 0
 89 48 120 37 153 37 c 0
 181 37 214 61 214 87 c 0
 214 130 177 150 167 157 c 2
 119 191 l 2
 80 219 35 270 35 305 c 0
 35 354 71 396 111 417 c 1
 102 422 89 441 89 461 c 0
 89 571 170 658 280 658 c 0
 368 658 453 603 453 515 c 2
 453 432 l 2
 453 422 462 417 475 417 c 2
 568 417 l 2
 584 417 592 404 592 394 c 0
 592 384 582 358 568 358 c 2
 469 358 l 2
 457 358 453 349 453 335 c 2
 453 152 l 2
 453 82 470 60 505 60 c 0
 542 60 567 78 577 78 c 0
 587 78 592 74 592 64 c 0
 592 41 538 -8 478 -8 c 0
 419 -8 370 21 370 106 c 2
 370 341 l 2
 370 350 376 355 339 355 c 0
 330 355 307 359 307 369 c 0
 307 383 344 411 369 432 c 0
 380 441 380 461 380 486 c 0
 380 548 346 605 267 605 c 0
 196 605 136 541 136 470 c 0
 136 448 153 430 167 430 c 0
EndSplineSet
Validated: 33
EndChar

StartChar: c_t
Encoding: 1114116 -1 202
Width: 682
VWidth: 982
Flags: MW
AnchorPoint: "cedilla" 248 5 basechar 0
LayerCount: 2
Fore
SplineSet
250 426 m 0
 286 420 299 406 299 380 c 0
 299 346 262 325 229 325 c 0
 206 325 185 339 162 339 c 0
 120 339 112 288 112 242 c 0
 112 154 151 60 236 60 c 0
 282 60 331 83 341 83 c 0
 351 83 356 79 356 69 c 0
 356 40 298 -8 200 -8 c 0
 93 -8 20 89 20 195 c 0
 20 285 87 355 133 394 c 0
 146 405 163 420 163 430 c 0
 163 438 152 466 152 489 c 0
 152 590 245 658 345 658 c 0
 433 658 518 603 518 515 c 2
 518 432 l 2
 518 422 527 417 540 417 c 2
 633 417 l 2
 649 417 657 404 657 394 c 0
 657 384 647 358 633 358 c 2
 534 358 l 2
 522 358 518 349 518 335 c 2
 518 152 l 2
 518 82 535 60 570 60 c 0
 607 60 632 78 642 78 c 0
 652 78 657 74 657 64 c 0
 657 41 603 -8 543 -8 c 0
 484 -8 435 21 435 106 c 2
 435 341 l 2
 435 350 441 355 404 355 c 0
 395 355 372 359 372 369 c 0
 372 383 409 411 434 432 c 0
 445 441 445 461 445 486 c 0
 445 548 411 605 332 605 c 0
 261 605 198 551 198 479 c 0
 198 446 220 431 250 426 c 0
EndSplineSet
Validated: 33
Ligature2: "'hlig' Historic Ligatures lookup 62 subtable" c t
LCarets2: 1 355
EndChar

StartChar: f_r
Encoding: 1114117 -1 203
Width: 622
VWidth: 982
Flags: MW
AnchorPoint: "below_accent" 138 -80 basechar 0
AnchorPoint: "top_accent" 267 785 basechar 0
LayerCount: 2
Fore
SplineSet
415 4 m 0
 396 4 356 -2 334 -2 c 0
 308 -2 304 8 304 18 c 0
 304 28 316 36 343 44 c 0
 368 51 373 83 373 108 c 2
 373 302 l 2
 373 319 356 344 332 353 c 0
 321 357 311 363 311 374 c 0
 311 385 327 393 340 399 c 0
 351 405 434 438 444 438 c 0
 456 438 456 429 456 410 c 2
 456 385 l 2
 456 370 471 385 476 391 c 0
 492 408 526 430 556 430 c 0
 597 430 613 411 613 388 c 0
 613 373 599 347 583 331 c 0
 580 328 572 322 567 322 c 0
 552 322 530 350 510 350 c 0
 487 350 458 329 458 303 c 2
 456 108 l 2
 456 83 478 52 505 44 c 0
 532 36 546 28 546 18 c 0
 546 8 538 -2 512 -2 c 0
 490 -2 431 4 415 4 c 0
322 690 m 0
 373 690 438 642 438 605 c 0
 438 581 426 559 401 559 c 0
 377 559 364 586 349 607 c 0
 338 623 317 634 288 634 c 0
 220 634 180 584 180 525 c 2
 180 420 l 2
 180 405 189 410 202 410 c 2
 267 412 l 2
 283 412 290 399 290 389 c 0
 290 379 281 355 267 355 c 2
 196 355 l 2
 184 355 180 346 180 332 c 2
 180 108 l 2
 180 83 186 52 214 44 c 0
 240 36 251 28 251 18 c 0
 251 8 242 -2 216 -2 c 0
 194 -2 154 4 138 4 c 0
 118 4 72 -2 50 -2 c 0
 24 -2 15 8 15 18 c 0
 15 28 32 36 59 44 c 0
 86 52 97 83 97 108 c 2
 97 338 l 2
 97 346 92 352 55 352 c 0
 46 352 23 356 23 366 c 0
 23 380 56 396 84 406 c 0
 95 410 97 424 97 435 c 0
 97 573 184 690 322 690 c 0
EndSplineSet
Validated: 1
EndChar

StartChar: OE
Encoding: 338 338 214
Width: 892
VWidth: 982
Flags: HMW
LayerCount: 2
Fore
SplineSet
366 -12 m 0
 187 -12 50 113 50 295 c 0
 50 484 192 598 390 598 c 0
 424 598 442 591 476 591 c 2
 676 591 l 2
 718 591 777 596 795 596 c 0
 811 596 819 591 821 582 c 0
 825 566 830 511 830 500 c 0
 830 488 826 474 814 474 c 0
 802 474 787 492 778 512 c 0
 770 529 745 545 697 545 c 2
 612 545 l 2
 585 545 581 537 581 524 c 2
 581 356 l 2
 581 332 590 325 604 325 c 2
 656 325 l 2
 688 325 699 336 717 353 c 0
 728 363 737 378 748 378 c 0
 757 378 759 370 759 358 c 0
 759 350 755 315 755 300 c 0
 755 285 756 254 756 243 c 0
 756 233 753 217 743 217 c 0
 730 217 717 245 711 255 c 0
 704 266 697 276 676 276 c 2
 605 276 l 2
 586 276 581 271 581 252 c 2
 581 140 l 2
 581 88 602 45 650 45 c 2
 725 45 l 2
 802 45 815 77 844 138 c 0
 849 149 862 157 871 157 c 0
 881 157 885 147 885 132 c 0
 885 104 855 30 847 17 c 0
 839 2 837 -2 820 -2 c 0
 783 -2 685 3 579 3 c 0
 532 3 475 -2 468 -2 c 0
 457 -1 406 -12 366 -12 c 0
352 552 m 0
 242 552 162 440 162 330 c 0
 162 191 241 34 380 34 c 0
 455 34 486 92 486 129 c 2
 486 482 l 2
 486 535 400 552 352 552 c 0
EndSplineSet
Validated: 33
Substitution2: "c2sc subtable" OE.sc
EndChar

StartChar: oe
Encoding: 339 339 215
Width: 738
VWidth: 982
Flags: MW
AnchorPoint: "top_accent" 406 596 basechar 0
LayerCount: 2
Fore
SplineSet
122 237 m 0
 122 144 180 39 260 39 c 0
 330 39 365 116 365 186 c 0
 365 280 313 388 232 388 c 0
 160 388 122 309 122 237 c 0
239 430 m 0
 304 430 363 404 404 362 c 0
 407 359 410 356 413 352 c 1
 452 400 512 430 581 430 c 0
 649 430 713 377 713 326 c 0
 713 299 692 258 666 258 c 2
 472 258 l 2
 458 258 456 256 453 248 c 0
 449 237 449 235 449 218 c 0
 449 142 496 60 575 60 c 0
 625 60 669 83 679 83 c 0
 689 83 694 79 694 69 c 0
 694 40 636 -8 538 -8 c 0
 481 -8 436 21 407 65 c 1
 406 64 405 62 404 61 c 0
 362 18 302 -8 234 -8 c 0
 109 -8 22 103 22 228 c 0
 22 344 134 430 239 430 c 0
470 315 m 0
 470 308 471 304 483 304 c 2
 598 304 l 2
 617 304 626 321 626 335 c 0
 626 364 596 384 567 384 c 0
 507 384 470 335 470 315 c 0
EndSplineSet
Validated: 1
Substitution2: "Smallcaps1 subtable" oe.sc
Ligature2: "LATliga subtable" o e
EndChar

StartChar: longs
Encoding: 383 383 219
Width: 286
VWidth: 982
Flags: MW
AnchorPoint: "below_accent" 141 -80 basechar 0
AnchorPoint: "top_accent" 265 785 basechar 0
LayerCount: 2
Fore
SplineSet
50 362 m 2
 40 363 23 365 23 375 c 0
 23 389 56 418 84 428 c 0
 95 432 97 438 97 449 c 0
 97 508 181 690 332 690 c 0
 414 690 466 658 466 608 c 0
 466 585 448 562 423 562 c 0
 403 562 381 577 348 605 c 0
 324 625 294 636 280 636 c 0
 200 636 180 513 180 425 c 2
 180 108 l 1
 180 83 191 52 218 44 c 0
 245 36 261 28 261 18 c 0
 261 8 253 -2 227 -2 c 0
 205 -2 155 4 139 4 c 0
 119 4 72 -2 50 -2 c 0
 24 -2 15 8 15 18 c 0
 15 28 32 36 59 44 c 0
 86 52 97 83 97 108 c 2
 98 362 l 1
 50 362 l 2
EndSplineSet
Validated: 1
Substitution2: "Single Substitution lookup 72 subtable" longs.short
Substitution2: "Smallcaps1 subtable" s.sc
EndChar

StartChar: longs_i
Encoding: 1114118 -1 220
Width: 535
VWidth: 982
Flags: MW
AnchorPoint: "below_accent" 141 -80 basechar 0
AnchorPoint: "top_accent" 265 785 basechar 0
LayerCount: 2
Fore
SplineSet
356 302 m 2
 356 319 339 344 315 353 c 0
 304 357 294 363 294 374 c 0
 294 385 310 393 323 399 c 0
 334 405 417 438 427 438 c 0
 439 438 439 429 439 409 c 2
 439 108 l 2
 439 83 450 52 477 44 c 0
 504 36 520 28 520 18 c 0
 520 8 512 -2 486 -2 c 0
 464 -2 414 4 398 4 c 0
 378 4 346 -2 324 -2 c 0
 298 -2 289 8 289 18 c 0
 289 28 306 40 333 48 c 0
 353 54 356 83 356 108 c 2
 356 302 l 2
50 362 m 2
 40 363 23 365 23 375 c 0
 23 389 56 418 84 428 c 0
 95 432 97 438 97 449 c 0
 97 508 181 690 332 690 c 0
 414 690 456 656 456 606 c 0
 456 579 416 561 388 561 c 0
 367 561 369 574 338 605 c 0
 317 626 294 636 280 636 c 0
 200 636 180 513 180 425 c 2
 180 108 l 2
 180 83 185 52 198 48 c 0
 225 40 241 28 241 18 c 0
 241 8 233 -2 207 -2 c 0
 185 -2 155 4 139 4 c 0
 119 4 72 -2 50 -2 c 0
 24 -2 15 8 15 18 c 0
 15 28 32 36 59 44 c 0
 86 52 97 83 97 108 c 2
 98 362 l 1
 50 362 l 2
EndSplineSet
Validated: 1
Ligature2: "liga_standard subtable" longs i
LCarets2: 1 265
EndChar

StartChar: longs_l
Encoding: 1114119 -1 221
Width: 548
VWidth: 982
Flags: MW
AnchorPoint: "below_accent" 141 -80 basechar 0
AnchorPoint: "top_right" 504 590 basechar 0
AnchorPoint: "top_accent" 265 785 basechar 0
LayerCount: 2
Fore
SplineSet
424 678 m 0
 432 680 437 681 440 681 c 0
 452 681 452 673 452 654 c 2
 452 108 l 2
 452 83 463 52 490 44 c 0
 517 36 533 28 533 18 c 0
 533 8 525 -2 499 -2 c 0
 477 -2 427 4 411 4 c 0
 391 4 351 -2 329 -2 c 0
 303 -2 301 8 301 18 c 0
 301 28 311 36 338 44 c 0
 365 52 369 83 369 108 c 2
 369 539 l 2
 369 568 366 590 348 605 c 0
 324 625 294 636 280 636 c 0
 200 636 180 513 180 425 c 2
 180 108 l 1
 180 83 184 52 211 44 c 0
 238 36 247 28 247 18 c 0
 247 8 246 -2 220 -2 c 0
 198 -2 155 4 139 4 c 0
 119 4 72 -2 50 -2 c 0
 24 -2 15 8 15 18 c 0
 15 28 32 36 59 44 c 0
 86 52 97 83 97 108 c 2
 98 362 l 1
 50 362 l 2
 40 363 23 365 23 375 c 0
 23 389 56 418 84 428 c 0
 95 432 97 438 97 449 c 0
 97 508 181 690 332 690 c 0
 356 690 378 687 396 682 c 0
 401 681 419 677 424 678 c 0
EndSplineSet
Validated: 1
Ligature2: "liga_standard subtable" longs l
LCarets2: 1 281
EndChar

StartChar: longs_longs
Encoding: 1114120 -1 222
Width: 552
VWidth: 982
Flags: MW
LayerCount: 2
Fore
SplineSet
350 449 m 0
 350 485 356 506 358 511 c 0
 362 524 361 526 357 535 c 0
 339 578 319 593 279 593 c 0
 219 593 180 553 180 473 c 2
 180 108 l 2
 180 61 194 49 209 44 c 0
 236 36 242 28 242 18 c 0
 242 8 239 -2 213 -2 c 0
 191 -2 154 4 138 4 c 0
 118 4 72 -2 50 -2 c 0
 24 -2 15 8 15 18 c 0
 15 28 32 36 59 44 c 0
 86 52 97 83 97 108 c 2
 97 362 l 1
 49 362 l 2
 39 362 22 365 22 375 c 0
 22 389 55 418 83 428 c 0
 94 432 97 438 97 449 c 0
 97 524 195 649 313 649 c 0
 332 649 354 644 384 630 c 0
 396 624 412 612 417 612 c 0
 422 612 435 622 448 633 c 0
 491 669 536 690 597 690 c 0
 648 690 695 642 695 605 c 0
 695 581 683 559 658 559 c 0
 634 559 621 586 606 607 c 0
 595 623 571 634 542 634 c 0
 474 634 433 557 433 498 c 2
 433 108 l 2
 433 83 444 52 471 44 c 0
 498 36 514 28 514 18 c 0
 514 8 506 -2 480 -2 c 0
 458 -2 407 4 391 4 c 0
 371 4 341 -2 319 -2 c 0
 293 -2 289 8 289 18 c 0
 289 28 301 36 328 44 c 0
 347 50 350 83 350 108 c 2
 351 362 l 2
 303 362 l 2
 293 362 276 365 276 375 c 0
 276 389 309 418 337 428 c 0
 348 432 350 438 350 449 c 0
EndSplineSet
Validated: 1
Substitution2: "Single Substitution lookup 72 subtable" longs_longs.short
Ligature2: "liga_standard subtable" longs longs
LCarets2: 1 267
EndChar

StartChar: longs_longs_i
Encoding: 1114121 -1 223
Width: 788
VWidth: 982
Flags: MW
LayerCount: 2
Fore
SplineSet
609 108 m 2
 609 302 l 2
 609 319 592 344 568 353 c 0
 557 357 547 363 547 374 c 0
 547 385 563 393 576 399 c 0
 587 405 670 438 680 438 c 0
 692 438 692 429 692 409 c 2
 692 108 l 2
 692 83 703 52 730 44 c 0
 757 36 773 28 773 18 c 0
 773 8 765 -2 739 -2 c 0
 717 -2 666 4 651 4 c 0
 631 4 599 -2 577 -2 c 0
 551 -2 542 8 542 18 c 0
 542 28 559 40 586 48 c 0
 606 54 609 83 609 108 c 2
392 4 m 0
 370 4 341 -2 319 -2 c 0
 293 -2 289 8 289 18 c 0
 289 28 301 36 328 44 c 0
 347 50 350 83 350 108 c 2
 351 362 l 2
 303 362 l 2
 293 362 276 365 276 375 c 0
 276 389 309 418 337 428 c 0
 348 432 350 438 350 449 c 0
 350 485 356 506 358 511 c 0
 362 524 361 526 357 535 c 0
 339 578 319 593 279 593 c 0
 219 593 180 553 180 473 c 2
 180 108 l 2
 180 61 194 49 209 44 c 0
 236 36 242 28 242 18 c 0
 242 8 239 -2 213 -2 c 0
 191 -2 154 4 138 4 c 0
 118 4 72 -2 50 -2 c 0
 24 -2 15 8 15 18 c 0
 15 28 32 36 59 44 c 0
 86 52 97 83 97 108 c 2
 97 362 l 1
 49 362 l 2
 39 362 22 365 22 375 c 0
 22 389 55 418 83 428 c 0
 94 432 97 438 97 449 c 0
 97 524 195 649 313 649 c 0
 332 649 354 644 384 630 c 0
 396 624 412 612 417 612 c 0
 422 612 435 622 448 633 c 0
 491 669 527 690 585 690 c 0
 667 690 709 656 709 606 c 0
 709 579 669 561 641 561 c 0
 620 561 622 574 591 605 c 0
 570 626 547 636 533 636 c 0
 468 634 433 557 433 498 c 2
 433 108 l 2
 433 83 438 52 451 48 c 0
 478 40 494 28 494 18 c 0
 494 8 486 -2 460 -2 c 0
 438 -2 408 4 392 4 c 0
EndSplineSet
Validated: 1
Ligature2: "liga_standard subtable" longs longs i
LCarets2: 2 270 521
EndChar

StartChar: longs_p
Encoding: 1114122 -1 224
Width: 716
VWidth: 982
Flags: MW
AnchorPoint: "below_accent" 141 -80 basechar 0
AnchorPoint: "top_accent" 265 785 basechar 0
LayerCount: 2
Fore
SplineSet
336 -161 m 2
 336 302 l 2
 336 319 319 344 295 353 c 0
 284 357 274 363 274 374 c 0
 274 385 290 393 303 399 c 0
 314 405 397 438 407 438 c 0
 419 438 419 429 419 410 c 2
 419 392 l 2
 420 387 425 382 433 390 c 0
 449 406 501 430 546 430 c 0
 629 430 696 341 696 257 c 0
 696 121 601 -6 468 -6 c 0
 448 -6 433 6 429 6 c 0
 420 6 419 1 419 -8 c 2
 419 -169 l 2
 419 -204 433 -212 487 -227 c 0
 514 -235 530 -243 530 -253 c 0
 530 -263 522 -273 496 -273 c 0
 462 -273 402 -260 309 -260 c 0
 283 -260 274 -250 274 -240 c 0
 274 -230 291 -222 318 -214 c 0
 331 -210 336 -186 336 -161 c 2
419 294 m 2
 419 107 l 2
 419 70 454 45 491 45 c 0
 569 45 604 129 604 211 c 0
 604 294 581 378 494 378 c 0
 449 378 419 338 419 294 c 2
50 362 m 2
 40 363 23 365 23 375 c 0
 23 389 56 418 84 428 c 0
 95 432 97 438 97 449 c 0
 97 508 181 690 332 690 c 0
 414 690 466 658 466 608 c 0
 466 585 448 562 423 562 c 0
 403 562 381 577 348 605 c 0
 324 625 294 636 280 636 c 0
 200 636 180 513 180 425 c 2
 180 108 l 1
 180 83 191 52 218 44 c 0
 245 36 261 28 261 18 c 0
 261 8 253 -2 227 -2 c 0
 205 -2 155 4 139 4 c 0
 119 4 72 -2 50 -2 c 0
 24 -2 15 8 15 18 c 0
 15 28 32 36 59 44 c 0
 86 52 97 83 97 108 c 2
 98 362 l 1
 50 362 l 2
EndSplineSet
Validated: 1
EndChar

StartChar: l_l
Encoding: 1114123 -1 225
Width: 484
VWidth: 982
Flags: MW
AnchorPoint: "below_accent" 141 -80 basechar 0
AnchorPoint: "top_accent" 140 785 basechar 0
LayerCount: 2
Fore
SplineSet
305 567 m 2
 305 584 290 604 266 613 c 0
 255 617 243 625 243 636 c 0
 243 647 258 655 272 657 c 0
 312 664 366 681 376 681 c 0
 388 681 388 673 388 654 c 2
 388 108 l 2
 388 83 399 52 426 44 c 0
 453 36 469 28 469 18 c 0
 469 8 461 -2 435 -2 c 0
 413 -2 363 4 347 4 c 0
 327 4 309 -2 287 -2 c 0
 261 -2 257 8 257 18 c 0
 257 28 273 41 284 44 c 0
 304 50 305 55 305 108 c 2
 305 567 l 2
97 567 m 2
 97 584 82 604 58 613 c 0
 47 617 35 625 35 636 c 0
 35 647 50 655 64 657 c 0
 104 664 158 681 168 681 c 0
 180 681 180 673 180 654 c 2
 180 108 l 2
 180 72 188 49 204 44 c 0
 220 39 230 28 230 18 c 0
 230 8 221 -2 195 -2 c 0
 173 -2 155 4 139 4 c 0
 119 4 72 -2 50 -2 c 0
 24 -2 15 8 15 18 c 0
 15 28 32 36 59 44 c 0
 86 52 97 83 97 108 c 2
 97 567 l 2
EndSplineSet
Validated: 1
EndChar

StartChar: uniA751
Encoding: 42833 42833 229
Width: 445
VWidth: 982
Flags: MW
LayerCount: 2
Fore
SplineSet
-14 -136 m 2
 -56 -136 -69 -144 -87 -175 c 0
 -92 -184 -98 -189 -108 -189 c 0
 -122 -189 -141 -170 -141 -123 c 0
 -141 -103 -127 -93 -104 -93 c 2
 65 -93 l 1
 65 302 l 2
 65 319 48 344 24 353 c 0
 13 357 3 363 3 374 c 0
 3 385 19 393 32 399 c 0
 43 405 126 438 136 438 c 0
 148 438 148 429 148 410 c 2
 148 392 l 1
 149 387 154 382 162 390 c 0
 178 406 230 430 275 430 c 0
 358 430 425 341 425 257 c 0
 425 121 330 -6 197 -6 c 0
 177 -6 162 6 158 6 c 0
 149 6 148 1 148 -8 c 2
 148 -93 l 1
 306 -93 l 2
 353 -93 377 -97 377 -115 c 0
 377 -130 361 -136 336 -136 c 2
 148 -136 l 1
 148 -169 l 2
 148 -204 162 -212 216 -227 c 0
 243 -235 259 -243 259 -253 c 0
 259 -263 251 -273 225 -273 c 0
 191 -273 131 -260 38 -260 c 0
 12 -260 3 -250 3 -240 c 0
 3 -230 20 -222 47 -214 c 0
 60 -210 65 -186 65 -161 c 2
 65 -136 l 1
 -14 -136 l 2
148 294 m 2
 148 107 l 2
 148 70 183 45 220 45 c 0
 298 45 333 129 333 211 c 0
 333 294 310 378 223 378 c 0
 178 378 148 338 148 294 c 2
EndSplineSet
Validated: 1
EndChar

StartChar: uniA753
Encoding: 42835 42835 230
Width: 662
VWidth: 982
Flags: MW
LayerCount: 2
Fore
SplineSet
365 294 m 2
 365 93 l 2
 365 56 400 45 437 45 c 0
 515 45 550 129 550 211 c 0
 550 294 527 378 440 378 c 0
 395 378 365 338 365 294 c 2
282 53 m 1
 250 65 213 74 168 74 c 0
 116 74 102 16 102 -40 c 0
 102 -80 104 -111 104 -142 c 0
 104 -177 24 -257 -36 -257 c 0
 -63 -257 -94 -240 -94 -210 c 0
 -94 -195 -80 -181 -64 -181 c 0
 -47 -181 -25 -193 3 -193 c 0
 21 -193 37 -179 37 -161 c 0
 37 -111 23 -80 23 -20 c 0
 23 51 138 124 208 124 c 0
 230 124 257 118 282 109 c 1
 282 302 l 2
 282 319 265 344 241 353 c 0
 230 357 220 363 220 374 c 0
 220 385 236 393 249 399 c 0
 260 405 343 438 353 438 c 0
 365 438 365 429 365 410 c 2
 365 392 l 1
 366 387 371 382 379 390 c 0
 395 406 447 430 492 430 c 0
 575 430 642 341 642 257 c 0
 642 121 547 -6 414 -6 c 0
 394 -6 379 6 375 6 c 0
 366 6 365 1 365 -8 c 2
 365 -169 l 2
 365 -204 379 -212 433 -227 c 0
 460 -235 476 -243 476 -253 c 0
 476 -263 468 -273 442 -273 c 0
 408 -273 348 -260 255 -260 c 0
 229 -260 220 -250 220 -240 c 0
 220 -230 237 -222 264 -214 c 0
 277 -210 282 -186 282 -161 c 2
 282 53 l 1
EndSplineSet
Validated: 1
EndChar

StartChar: uniA757
Encoding: 42839 42839 233
Width: 460
VWidth: 982
Flags: MW
LayerCount: 2
Fore
SplineSet
114 230 m 0
 114 133 170 37 271 37 c 0
 297 37 339 56 339 82 c 2
 339 266 l 2
 339 335 283 387 210 387 c 0
 140 387 114 303 114 230 c 0
325 18 m 0
 283 -5 250 -8 204 -8 c 0
 99 -8 22 94 22 199 c 0
 22 319 108 430 229 430 c 0
 291 430 315 422 353 400 c 0
 362 395 363 395 370 399 c 0
 381 406 398 417 408 417 c 0
 420 417 422 403 422 384 c 2
 422 -93 l 1
 485 -93 l 2
 532 -93 556 -97 556 -115 c 0
 556 -130 540 -136 515 -136 c 2
 422 -136 l 1
 422 -162 l 2
 422 -187 429 -207 446 -212 c 0
 473 -220 487 -228 487 -238 c 0
 487 -248 481 -258 455 -258 c 0
 373 -258 305 -272 282 -272 c 0
 256 -272 247 -262 247 -252 c 0
 247 -242 264 -234 291 -226 c 0
 318 -218 339 -187 339 -162 c 2
 339 -136 l 1
 235 -136 l 2
 193 -136 180 -144 162 -175 c 0
 157 -184 151 -189 141 -189 c 0
 127 -189 108 -170 108 -123 c 0
 108 -103 122 -94 145 -94 c 2
 339 -93 l 1
 339 10 l 2
 339 27 330 21 325 18 c 0
EndSplineSet
Validated: 1
EndChar

StartChar: uniA759
Encoding: 42841 42841 235
Width: 698
VWidth: 982
Flags: MW
LayerCount: 2
Fore
SplineSet
325 18 m 0
 283 -5 250 -8 204 -8 c 0
 99 -8 22 94 22 199 c 0
 22 319 108 430 229 430 c 0
 291 430 315 422 353 400 c 0
 362 395 363 395 370 399 c 0
 381 406 398 417 408 417 c 0
 420 417 422 403 422 384 c 2
 422 324 l 1
 467 360 519 391 580 391 c 0
 645 391 678 316 678 252 c 0
 678 171 625 117 560 58 c 0
 528 29 481 -12 422 -56 c 1
 422 -162 l 2
 422 -187 429 -207 446 -212 c 0
 473 -220 487 -228 487 -238 c 0
 487 -248 481 -258 455 -258 c 0
 373 -258 305 -272 282 -272 c 0
 256 -272 247 -262 247 -252 c 0
 247 -242 264 -234 291 -226 c 0
 318 -218 339 -187 339 -162 c 2
 339 -116 l 1
 301 -142 259 -167 216 -191 c 0
 194 -203 156 -277 133 -277 c 0
 119 -277 80 -242 80 -227 c 0
 80 -210 135 -181 178 -157 c 0
 237 -124 291 -88 339 -54 c 1
 339 10 l 2
 339 27 330 21 325 18 c 0
114 230 m 0
 114 133 170 37 271 37 c 0
 297 37 339 56 339 82 c 2
 339 266 l 2
 339 335 283 387 210 387 c 0
 140 387 114 303 114 230 c 0
422 8 m 1
 471 47 507 79 524 95 c 0
 570 138 597 173 597 240 c 0
 597 279 566 312 526 312 c 0
 490 312 455 295 422 255 c 1
 422 8 l 1
EndSplineSet
Validated: 1
EndChar

StartChar: uniE01C
Encoding: 57372 57372 236
Width: 656
VWidth: 982
Flags: HMW
LayerCount: 2
Fore
SplineSet
522 115 m 0
 584 115 636 65 636 5 c 0
 636 -61 559 -174 500 -174 c 0
 491 -174 486 -169 486 -161 c 0
 486 -144 559 -99 559 -50 c 0
 559 -13 542 21 510 27 c 0
 485 31 466 40 466 63 c 0
 466 94 493 115 522 115 c 0
548 353 m 0
 580 353 602 323 602 291 c 0
 602 256 570 232 535 232 c 0
 504 232 479 257 479 288 c 0
 479 325 511 353 548 353 c 0
EndSplineSet
Refer: 81 113 N 1 0 0 1 0 0 2
Validated: 98305
EndChar

StartChar: uniE00C
Encoding: 57356 57356 237
Width: 656
VWidth: 982
Flags: HMW
LayerCount: 2
Fore
SplineSet
522 115 m 0
 584 115 636 65 636 5 c 0
 636 -61 559 -174 500 -174 c 0
 491 -174 486 -169 486 -161 c 0
 486 -144 559 -99 559 -50 c 0
 559 -13 542 21 510 27 c 0
 485 31 466 40 466 63 c 0
 466 94 493 115 522 115 c 0
548 353 m 0
 580 353 602 323 602 291 c 0
 602 256 570 232 535 232 c 0
 504 232 479 257 479 288 c 0
 479 325 511 353 548 353 c 0
EndSplineSet
Refer: 231 57374 N 1 0 0 1 0 0 2
Validated: 98305
EndChar

StartChar: uni2619
Encoding: 9753 9753 240
Width: 1385
VWidth: 982
Flags: MW
LayerCount: 2
Fore
SplineSet
1176 587 m 0
 1247 587 1347 541 1347 459 c 0
 1347 418 1319 378 1269 378 c 0
 1233 378 1190 388 1190 424 c 0
 1190 453 1207 478 1207 496 c 0
 1207 518 1196 534 1160 534 c 0
 1106 534 1019 433 1019 343 c 0
 1019 307 1038 295 1060 293 c 0
 1202 281 1311 177 1311 28 c 0
 1311 -95 1212 -223 1132 -223 c 0
 1100 -223 1054 -200 1054 -165 c 0
 1054 -141 1084 -127 1110 -123 c 0
 1170 -114 1204 -98 1204 -63 c 0
 1204 -42 1177 -23 1127 -1 c 0
 1067 26 1003 109 979 223 c 0
 975 243 958 253 945 253 c 0
 933 253 913 231 908 204 c 0
 893 127 802 -8 674 -8 c 0
 614 -8 561 40 531 98 c 0
 524 112 517 117 504 117 c 0
 478 117 360 90 341 90 c 0
 269 90 173 120 146 171 c 0
 138 186 110 199 72 199 c 0
 54 199 43 206 43 220 c 0
 43 255 51 271 72 277 c 0
 101 285 129 285 143 289 c 0
 151 291 164 305 174 337 c 0
 180 356 199 369 223 378 c 0
 285 401 353 409 432 409 c 0
 479 409 483 434 504 459 c 0
 551 515 612 545 693 545 c 0
 797 545 903 436 903 372 c 0
 903 346 924 326 950 326 c 0
 968 326 986 338 986 354 c 0
 986 465 1066 587 1176 587 c 0
555 415 m 0
 555 390 596 351 596 298 c 0
 596 209 575 176 575 152 c 0
 575 142 585 137 596 137 c 0
 646 137 691 196 691 265 c 0
 691 335 647 439 581 439 c 0
 564 439 555 429 555 415 c 0
1043 217 m 0
 1043 134 1154 25 1214 25 c 0
 1242 25 1249 60 1249 92 c 0
 1249 164 1129 247 1068 247 c 0
 1053 247 1043 237 1043 217 c 0
EndSplineSet
Validated: 1
EndChar

StartChar: uni2767
Encoding: 10087 10087 241
Width: 1385
VWidth: 982
Flags: MW
LayerCount: 2
Fore
SplineSet
214 -101 m 0
 143 -101 43 -55 43 27 c 0
 43 68 71 108 121 108 c 0
 157 108 200 98 200 62 c 0
 200 33 183 8 183 -10 c 0
 183 -32 194 -48 230 -48 c 0
 284 -48 371 53 371 143 c 0
 371 179 352 191 330 193 c 0
 188 205 79 309 79 458 c 0
 79 581 178 709 258 709 c 0
 290 709 336 686 336 651 c 0
 336 627 306 613 280 609 c 0
 220 600 186 584 186 549 c 0
 186 528 213 509 263 487 c 0
 323 460 387 377 411 263 c 0
 415 243 432 233 445 233 c 0
 457 233 477 255 482 282 c 0
 497 359 588 494 716 494 c 0
 776 494 829 446 859 388 c 0
 866 374 873 369 886 369 c 0
 912 369 1030 396 1049 396 c 0
 1121 396 1217 366 1244 315 c 0
 1252 300 1280 287 1318 287 c 0
 1336 287 1347 280 1347 266 c 0
 1347 231 1339 215 1318 209 c 0
 1289 201 1261 201 1247 197 c 0
 1239 195 1226 181 1216 149 c 0
 1210 130 1191 117 1167 108 c 0
 1105 85 1037 77 958 77 c 0
 911 77 907 52 886 27 c 0
 839 -29 778 -59 697 -59 c 0
 593 -59 487 50 487 114 c 0
 487 140 466 160 440 160 c 0
 422 160 404 148 404 132 c 0
 404 21 324 -101 214 -101 c 0
835 71 m 0
 835 96 794 135 794 188 c 0
 794 277 815 310 815 334 c 0
 815 344 805 349 794 349 c 0
 744 349 699 290 699 221 c 0
 699 151 743 47 809 47 c 0
 826 47 835 57 835 71 c 0
347 269 m 0
 347 352 236 461 176 461 c 0
 148 461 141 426 141 394 c 0
 141 322 261 239 322 239 c 0
 337 239 347 249 347 269 c 0
EndSplineSet
Validated: 1
EndChar

StartChar: hyphen
Encoding: 45 45 244
Width: 386
VWidth: 982
Flags: MW
LayerCount: 2
Fore
SplineSet
320 271 m 6
 334 272 351 266 351 243 c 12
 351 220 341 195 318 194 c 6
 99 176 l 6
 65 173 45 175 45 195 c 4
 45 214 56 249 82 252 c 6
 320 271 l 6
EndSplineSet
Validated: 33
Substitution2: "sups subtable" hyphen.sups
Substitution2: "sinf subtable" hyphen.sinf
Substitution2: "ordn subtable" hyphen.ordn
Substitution2: "subs subtable" hyphen.subs
Substitution2: "'case' Case-Sensitive Forms lookup 8 subtable" hyphen.cap
EndChar

StartChar: semicolon
Encoding: 59 59 245
Width: 231
VWidth: 982
Flags: MW
LayerCount: 2
Fore
SplineSet
97 115 m 0
 159 115 211 65 211 5 c 0
 211 -61 134 -174 75 -174 c 0
 66 -174 61 -169 61 -161 c 0
 61 -144 134 -99 134 -50 c 0
 134 -13 106 -2 80 13 c 0
 58 25 41 40 41 63 c 0
 41 94 68 115 97 115 c 0
123 353 m 0
 155 353 177 323 177 291 c 0
 177 256 145 232 110 232 c 0
 79 232 54 257 54 288 c 0
 54 325 86 353 123 353 c 0
EndSplineSet
Validated: 1
Substitution2: "sups subtable" semicolon.sups
Substitution2: "sinf subtable" semicolon.sinf
Substitution2: "ordn subtable" semicolon.ordn
Substitution2: "subs subtable" semicolon.subs
EndChar

StartChar: uniA770
Encoding: 42864 42864 246
Width: 294
VWidth: 982
Flags: MW
LayerCount: 2
Fore
SplineSet
145 661 m 0
 208 661 266 617 266 554 c 0
 266 394 107 327 59 327 c 0
 36 327 22 334 22 353 c 0
 22 371 37 376 65 382 c 0
 96 389 123 403 140 427 c 0
 145 434 141 443 129 445 c 0
 94 451 38 489 38 563 c 0
 38 620 88 661 145 661 c 0
109 531 m 0
 109 518 131 484 147 484 c 0
 192 484 203 509 203 571 c 0
 203 589 176 625 158 625 c 0
 113 625 109 586 109 531 c 0
EndSplineSet
Validated: 1
EndChar

StartChar: uni211F
Encoding: 8479 8479 248
Width: 635
VWidth: 982
Flags: MW
LayerCount: 2
Fore
SplineSet
248 -217 m 2
 225 -248 208 -269 192 -269 c 0
 186 -269 175 -260 175 -256 c 0
 175 -248 194 -223 227 -179 c 2
 504 195 l 2
 510 203 518 218 518 225 c 0
 518 231 506 256 506 283 c 0
 506 303 554 364 571 364 c 0
 584 364 610 317 610 294 c 0
 610 271 590 245 561 206 c 2
 248 -217 l 2
385 18 m 2
 232 199 l 2
 226 206 219 209 216 209 c 2
 200 209 l 2
 188 209 185 200 185 186 c 2
 185 108 l 2
 185 83 191 52 218 44 c 0
 245 36 261 28 261 18 c 0
 261 8 253 -2 227 -2 c 0
 205 -2 155 4 139 4 c 0
 119 4 72 -2 50 -2 c 0
 24 -2 15 8 15 18 c 0
 15 28 32 36 59 44 c 0
 86 52 97 83 97 108 c 2
 94 340 l 2
 94 375 69 403 48 410 c 0
 33 415 15 423 15 433 c 0
 15 443 23 453 39 453 c 0
 54 453 118 450 133 450 c 0
 148 450 227 454 252 454 c 0
 330 454 399 420 399 349 c 0
 399 300 360 268 327 248 c 0
 318 243 323 239 330 230 c 2
 430 105 l 2
 455 74 511 48 537 48 c 0
 582 48 592 55 592 33 c 0
 592 -17 523 -17 478 -17 c 0
 445 -17 406 -6 385 18 c 2
185 375 m 2
 185 291 l 2
 185 266 201 257 221 257 c 0
 261 257 304 290 304 330 c 0
 304 368 272 404 234 404 c 0
 209 404 185 397 185 375 c 2
EndSplineSet
Validated: 37
EndChar

StartChar: uni2123
Encoding: 8483 8483 249
Width: 558
VWidth: 982
Flags: MW
LayerCount: 2
Fore
SplineSet
83 -80 m 2
 69 -107 52 -135 36 -135 c 0
 30 -135 14 -123 14 -119 c 0
 14 -102 29 -80 49 -42 c 2
 327 498 l 2
 336 516 338 529 338 546 c 0
 338 572 319 585 319 612 c 0
 319 632 359 691 371 691 c 0
 381 691 422 636 422 613 c 0
 422 590 404 548 384 509 c 2
 83 -80 l 2
407 414 m 0
 396 416 388 424 388 434 c 0
 388 444 395 453 412 453 c 0
 428 453 438 449 454 449 c 0
 470 449 488 453 504 453 c 0
 521 453 530 444 530 434 c 0
 530 424 510 416 494 411 c 0
 482 407 450 366 435 329 c 2
 328 119 l 2
 306 77 277 -25 258 -25 c 0
 248 -25 238 -1 231 17 c 2
 103 323 l 2
 86 363 75 399 38 411 c 0
 28 414 16 424 16 434 c 0
 16 444 25 453 42 453 c 0
 58 453 105 449 121 449 c 0
 137 449 180 453 196 453 c 0
 213 453 223 444 223 434 c 0
 223 424 211 413 187 408 c 8
 169 404 176 379 183 361 c 2
 265 157 l 2
 270 147 274 136 280 136 c 0
 287 136 293 148 298 157 c 2
 389 327 l 2
 400 347 418 391 418 398 c 0
 418 405 416 413 407 414 c 0
EndSplineSet
Validated: 37
EndChar

StartChar: e.fina
Encoding: 1114124 -1 250
Width: 1175
VWidth: 982
Flags: MW
LayerCount: 2
Fore
SplineSet
127 315 m 8
 127 308 128 304 140 304 c 2
 255 304 l 2
 274 304 283 321 283 335 c 0
 283 364 253 384 224 384 c 0
 164 384 127 335 127 315 c 8
23 213 m 0
 23 336 116 430 238 430 c 0
 306 430 370 377 370 326 c 0
 370 299 349 258 323 258 c 2
 129 258 l 2
 115 258 113 256 110 248 c 0
 106 237 106 235 106 218 c 0
 106 33 426 16 495 16 c 0
 701 16 1105 95 1105 324 c 0
 1105 334 1097 353 1077 380 c 0
 1062 402 1052 419 1052 430 c 0
 1052 445 1062 455 1083 455 c 0
 1115 455 1158 418 1158 351 c 0
 1158 67 732 -65 401 -65 c 0
 211 -65 23 22 23 213 c 0
EndSplineSet
Validated: 1
EndChar

StartChar: m.fina
Encoding: 1114125 -1 251
Width: 1441
VWidth: 982
Flags: MW
LayerCount: 2
Fore
SplineSet
677 4 m 0
 655 4 625 -2 603 -2 c 0
 577 -2 573 8 573 18 c 0
 573 28 585 36 612 44 c 0
 630 49 635 83 635 108 c 2
 635 261 l 2
 635 320 600 378 548 378 c 0
 489 378 449 339 449 268 c 2
 449 108 l 2
 449 83 453 50 472 44 c 0
 499 36 510 28 510 18 c 0
 510 8 507 -2 481 -2 c 0
 459 -2 424 4 408 4 c 0
 389 4 356 -2 334 -2 c 0
 308 -2 304 8 304 18 c 0
 304 28 316 36 343 44 c 0
 361 49 366 83 366 108 c 2
 366 261 l 2
 366 320 331 378 279 378 c 0
 221 378 181 344 181 268 c 2
 180 108 l 2
 180 83 184 50 203 44 c 0
 230 36 241 28 241 18 c 0
 241 8 238 -2 212 -2 c 0
 190 -2 155 4 139 4 c 0
 119 4 72 -2 50 -2 c 0
 24 -2 20 8 20 18 c 0
 20 28 32 36 59 44 c 0
 86 52 97 83 97 108 c 2
 97 302 l 2
 97 319 80 344 56 353 c 0
 45 357 35 363 35 374 c 0
 35 385 51 393 64 399 c 0
 75 405 158 438 168 438 c 0
 180 438 180 429 180 410 c 2
 180 385 l 2
 180 370 192 384 200 391 c 0
 233 418 272 430 324 430 c 0
 368 430 406 403 427 369 c 0
 430 365 432 364 434 364 c 0
 439 364 450 375 469 391 c 0
 502 418 541 430 593 430 c 0
 663 430 718 364 718 291 c 2
 718 110 l 2
 718 77 722 79 751 79 c 0
 906 79 996 71 1152 71 c 0
 1278 71 1347 97 1347 213 c 0
 1347 239 1340 251 1340 260 c 0
 1340 284 1349 308 1377 308 c 0
 1394 308 1423 280 1423 236 c 0
 1423 67 1240 -6 1038 -6 c 0
 893 -6 790 4 677 4 c 0
EndSplineSet
Validated: 33
EndChar

StartChar: uni0307
Encoding: 775 775 252
Width: 0
VWidth: 982
Flags: MW
AnchorPoint: "top_accent" 85 596 mark 0
LayerCount: 2
Fore
SplineSet
85 645 m 0
 115 645 140 621 140 591 c 0
 140 560 116 535 85 535 c 0
 54 535 30 560 30 591 c 0
 30 621 55 645 85 645 c 0
EndSplineSet
Validated: 1
Substitution2: "Smallcaps1 subtable" uni0307.sc
Substitution2: "Single Substitution lookup 17 subtable" uni0307.stack
Substitution2: "Single Substitution lookup 15 subtable" uni0307.stack
Substitution2: "'case' Case-Sensitive Forms lookup 8 subtable" uni0307.cap
EndChar

StartChar: dotlessj
Encoding: 567 567 253
Width: 231
VWidth: 982
Flags: MW
AnchorPoint: "top_accent" 133 596 basechar 0
LayerCount: 2
Fore
SplineSet
93 302 m 2
 93 320 76 344 52 353 c 0
 41 357 31 363 31 374 c 0
 31 385 47 393 60 399 c 0
 71 405 154 438 164 438 c 0
 176 438 176 429 176 410 c 2
 176 27 l 2
 176 -95 107 -187 52 -242 c 0
 28 -266 18 -267 12 -267 c 0
 1 -267 -5 -258 -5 -246 c 256
 -5 -241 -2 -231 7 -225 c 0
 22 -215 43 -190 50 -178 c 0
 71 -144 93 -86 93 -9 c 2
 93 302 l 2
EndSplineSet
Validated: 1
EndChar

StartChar: uni1DD3
Encoding: 7635 7635 261
Width: 0
VWidth: 982
Flags: MW
AnchorPoint: "top_accent" 239 596 mark 0
LayerCount: 2
Fore
SplineSet
432 675 m 0
 459 675 468 648 468 626 c 0
 468 561 421 516 356 516 c 0
 304 516 281 590 265 590 c 0
 260 590 194 516 189 516 c 0
 166 516 136 628 97 628 c 0
 66 628 52 601 52 573 c 0
 52 545 80 541 80 514 c 0
 80 501 68 499 59 499 c 0
 33 499 10 530 10 562 c 0
 10 633 61 677 131 677 c 0
 190 677 199 603 219 603 c 0
 229 603 286 674 296 674 c 0
 324 674 336 569 381 569 c 0
 409 569 429 589 429 617 c 0
 429 629 409 640 409 660 c 0
 409 670 416 675 432 675 c 0
EndSplineSet
Validated: 1
EndChar

StartChar: dcroat
Encoding: 273 273 262
Width: 445
VWidth: 982
Flags: MW
AnchorPoint: "below_accent" 232 -80 basechar 0
AnchorPoint: "top_right" 446 590 basechar 0
AnchorPoint: "cedilla" 372 5 basechar 0
AnchorPoint: "top_accent" 332 785 basechar 0
LayerCount: 2
Fore
SplineSet
115 233 m 0
 115 143 158 56 244 56 c 0
 283 56 322 78 322 118 c 2
 322 271 l 2
 322 334 272 387 210 387 c 0
 140 387 115 303 115 233 c 0
393 681 m 0
 405 681 405 673 405 654 c 2
 405 560 l 1
 531 560 l 2
 544 560 552 569 556 578 c 0
 561 591 568 608 578 608 c 0
 600 608 616 583 616 536 c 0
 616 522 607 512 596 512 c 2
 405 512 l 1
 405 84 l 2
 405 61 411 56 421 56 c 0
 434 56 467 62 475 62 c 0
 480 62 488 53 488 46 c 0
 488 33 483 25 475 21 c 0
 457 12 358 -12 343 -12 c 0
 335 -12 330 -3 329 2 c 0
 326 12 323 25 320 40 c 0
 318 50 315 51 308 41 c 0
 285 8 246 -8 206 -8 c 0
 104 -8 23 80 23 182 c 0
 23 307 105 430 231 430 c 0
 263 430 295 418 309 404 c 0
 318 396 320 401 322 420 c 1
 322 512 l 1
 129 512 l 2
 113 512 105 518 105 526 c 0
 105 541 114 560 138 560 c 2
 322 560 l 1
 322 567 l 2
 322 584 305 604 281 613 c 0
 270 617 258 625 258 636 c 0
 258 647 273 655 287 657 c 0
 327 664 383 681 393 681 c 0
EndSplineSet
Validated: 1
Substitution2: "Smallcaps1 subtable" dcroat.sc
EndChar

StartChar: brokenbar
Encoding: 166 166 263
Width: 157
VWidth: 982
Flags: MW
LayerCount: 2
Fore
SplineSet
55 115 m 2
 55 135 75 151 92 151 c 0
 101 151 102 144 102 115 c 2
 102 -188 l 2
 102 -205 83 -218 67 -218 c 0
 57 -218 55 -210 55 -190 c 2
 55 115 l 2
55 574 m 2
 55 594 75 610 92 610 c 0
 101 610 102 603 102 574 c 2
 102 271 l 2
 102 254 83 241 67 241 c 0
 57 241 55 249 55 269 c 2
 55 574 l 2
EndSplineSet
Validated: 1
Substitution2: "sups subtable" brokenbar.sups
Substitution2: "sinf subtable" brokenbar.sinf
Substitution2: "ordn subtable" brokenbar.ordn
Substitution2: "subs subtable" brokenbar.subs
EndChar

StartChar: uni2016
Encoding: 8214 8214 264
Width: 292
VWidth: 982
Flags: MW
LayerCount: 2
Fore
SplineSet
190 574 m 2
 190 594 210 610 227 610 c 0
 236 610 237 603 237 574 c 2
 237 -188 l 2
 237 -205 218 -218 202 -218 c 0
 192 -218 190 -210 190 -190 c 2
 190 574 l 2
55 574 m 2
 55 594 75 610 92 610 c 0
 101 610 102 603 102 574 c 2
 102 -188 l 2
 102 -205 83 -218 67 -218 c 0
 57 -218 55 -210 55 -190 c 2
 55 574 l 2
EndSplineSet
Validated: 1
Substitution2: "sups subtable" uni2016.sups
Substitution2: "sinf subtable" uni2016.sinf
Substitution2: "ordn subtable" uni2016.ordn
Substitution2: "subs subtable" uni2016.subs
EndChar

StartChar: gravecomb
Encoding: 768 768 265
Width: 0
Flags: MW
AnchorPoint: "top_accent" 124 596 mark 0
LayerCount: 2
Fore
SplineSet
126 512 m 0
 95 545 8 646 8 660 c 0
 8 676 38 683 63 683 c 0
 73 683 84 675 90 665 c 0
 109 632 165 518 165 503 c 0
 165 494 165 490 156 490 c 0
 148 490 134 503 126 512 c 0
EndSplineSet
Validated: 1
Substitution2: "Smallcaps1 subtable" gravecomb.sc
Substitution2: "Single Substitution lookup 24 subtable" gravecomb.grkstack
Substitution2: "Single Substitution lookup 22 subtable" gravecomb.grk
Substitution2: "Single Substitution lookup 17 subtable" gravecomb.stack
Substitution2: "Single Substitution lookup 15 subtable" gravecomb.flat
Substitution2: "Single Substitution lookup 13 subtable" gravecomb.flat
Substitution2: "'case' Case-Sensitive Forms lookup 8 subtable" gravecomb.cap
EndChar

StartChar: acutecomb
Encoding: 769 769 266
Width: 0
Flags: MW
AnchorPoint: "top_accent" 54 596 mark 0
LayerCount: 2
Fore
SplineSet
53 512 m 0
 45 503 31 490 23 490 c 0
 14 490 14 494 14 503 c 0
 14 518 71 632 90 665 c 0
 96 675 107 683 117 683 c 0
 142 683 171 676 171 660 c 0
 171 646 84 545 53 512 c 0
EndSplineSet
Validated: 1
Substitution2: "Smallcaps1 subtable" acutecomb.sc
Substitution2: "Single Substitution lookup 24 subtable" acutecomb.grkstack
Substitution2: "Single Substitution lookup 22 subtable" acutecomb.grk
Substitution2: "Single Substitution lookup 17 subtable" acutecomb.stack
Substitution2: "Single Substitution lookup 15 subtable" acutecomb.flat
Substitution2: "Single Substitution lookup 13 subtable" acutecomb.flat
Substitution2: "'case' Case-Sensitive Forms lookup 8 subtable" acutecomb.cap
EndChar

StartChar: circumflexcomb
Encoding: 770 770 267
Width: 0
Flags: MW
AnchorPoint: "top_accent" 138 596 mark 0
LayerCount: 2
Fore
SplineSet
129 586 m 0
 106 554 82 527 69 512 c 0
 61 503 47 490 39 490 c 0
 30 490 30 494 30 503 c 0
 30 518 98 640 118 673 c 0
 123 682 130 691 138 691 c 0
 146 691 153 682 158 673 c 0
 178 640 247 518 247 503 c 0
 247 494 247 490 238 490 c 0
 230 490 216 503 208 512 c 0
 195 527 169 556 147 586 c 0
 141 594 135 594 129 586 c 0
EndSplineSet
Validated: 1
Substitution2: "Smallcaps1 subtable" circumflexcomb.sc
Substitution2: "Single Substitution lookup 17 subtable" uni0302.stack
Substitution2: "Single Substitution lookup 15 subtable" uni0302.stack
Substitution2: "Single Substitution lookup 13 subtable" uni0302.flat
Substitution2: "'case' Case-Sensitive Forms lookup 8 subtable" circumflexcomb.cap
EndChar

StartChar: tildecomb
Encoding: 771 771 268
Width: 0
Flags: MW
AnchorPoint: "top_stack" 148 644 basemark 0
AnchorPoint: "top_accent" 166 596 mark 0
LayerCount: 2
Fore
SplineSet
40 489 m 0
 30 489 26 499 26 509 c 0
 26 519 89 593 114 593 c 0
 139 593 196 591 221 591 c 0
 256 591 279 635 287 635 c 0
 297 635 303 628 303 618 c 0
 303 608 234 517 209 517 c 0
 184 517 122 518 97 518 c 0
 72 518 48 489 40 489 c 0
EndSplineSet
Validated: 1
Substitution2: "Smallcaps1 subtable" tildecomb.sc
Substitution2: "Single Substitution lookup 17 subtable" tildecomb.stack
Substitution2: "Single Substitution lookup 15 subtable" tildecomb.stack
Substitution2: "'case' Case-Sensitive Forms lookup 8 subtable" tildecomb.cap
EndChar

StartChar: macroncomb
Encoding: 772 772 269
Width: 0
Flags: MW
AnchorPoint: "top_accent" 178 596 mark 0
LayerCount: 2
Fore
SplineSet
84 596 m 2
 287 596 l 2
 293 596 300 590 300 584 c 0
 300 562 290 535 269 535 c 2
 74 535 l 2
 67 535 60 541 60 547 c 0
 60 556 65 596 84 596 c 2
EndSplineSet
Validated: 1
Substitution2: "Smallcaps1 subtable" macroncomb.sc
Substitution2: "Single Substitution lookup 17 subtable" uni0304.stack
Substitution2: "Single Substitution lookup 15 subtable" uni0304.stack
Substitution2: "'case' Case-Sensitive Forms lookup 8 subtable" macroncomb.cap
EndChar

StartChar: uni0305
Encoding: 773 773 270
Width: 0
Flags: MW
AnchorPoint: "top_accent" 201 596 mark 0
LayerCount: 2
Fore
SplineSet
24 618 m 2
 387 618 l 2
 393 618 400 612 400 606 c 0
 400 584 388 562 369 562 c 2
 14 562 l 2
 7 562 0 568 0 574 c 0
 0 583 6 618 24 618 c 2
EndSplineSet
Validated: 1
EndChar

StartChar: brevecomb
Encoding: 774 774 271
Width: 0
Flags: MW
AnchorPoint: "top_accent" 170 596 mark 0
LayerCount: 2
Fore
SplineSet
92 615 m 0
 97 590 121 572 171 572 c 0
 221 572 241 590 246 615 c 0
 248 625 251 636 261 636 c 0
 271 636 276 625 276 612 c 0
 276 562 229 506 159 506 c 0
 89 506 62 562 62 612 c 0
 62 625 67 636 77 636 c 0
 87 636 90 625 92 615 c 0
EndSplineSet
Validated: 1
Substitution2: "Smallcaps1 subtable" brevecomb.sc
Substitution2: "Single Substitution lookup 17 subtable" uni0306.stack
Substitution2: "Single Substitution lookup 15 subtable" uni0306.stack
Substitution2: "'case' Case-Sensitive Forms lookup 8 subtable" brevecomb.cap
EndChar

StartChar: uni0308
Encoding: 776 776 272
Width: 0
Flags: MW
AnchorPoint: "top_stack" 148 474 mark 0
AnchorPoint: "top_stack" 148 636 basemark 0
AnchorPoint: "gravestack" 143 570 basemark 0
AnchorPoint: "acutestack" 152 570 basemark 0
AnchorPoint: "top_accent" 152 596 mark 0
LayerCount: 2
Fore
SplineSet
238 625 m 0
 267 625 291 601 291 572 c 0
 291 543 267 519 238 519 c 0
 209 519 185 543 185 572 c 0
 185 601 209 625 238 625 c 0
67 625 m 0
 96 625 120 601 120 572 c 0
 120 543 96 519 67 519 c 0
 38 519 14 543 14 572 c 0
 14 601 38 625 67 625 c 0
EndSplineSet
Validated: 1
Substitution2: "Smallcaps1 subtable" uni0308.sc
Substitution2: "Single Substitution lookup 19 subtable" uni0308.grkstack
Substitution2: "'case' Case-Sensitive Forms lookup 8 subtable" uni0308.cap
EndChar

StartChar: hookabovecomb
Encoding: 777 777 273
Width: 0
Flags: MW
AnchorPoint: "top_accent" 114 596 mark 0
LayerCount: 2
Fore
SplineSet
37 601 m 0
 19 601 13 626 13 640 c 0
 13 650 17 659 26 664 c 0
 46 676 81 690 120 690 c 0
 156 690 194 672 194 636 c 0
 194 602 171 578 138 564 c 0
 126 559 126 549 126 543 c 0
 126 539 128 534 131 528 c 0
 136 519 115 517 105 517 c 0
 92 517 81 543 81 557 c 0
 81 569 100 582 111 592 c 0
 125 604 133 608 133 624 c 0
 133 640 120 652 104 652 c 0
 85 652 70 641 55 610 c 0
 52 604 43 601 37 601 c 0
EndSplineSet
Validated: 1
Substitution2: "Smallcaps1 subtable" hookabovecomb.sc
Substitution2: "Single Substitution lookup 17 subtable" hookabovecomb.stack
Substitution2: "Single Substitution lookup 15 subtable" hookabovecomb.stack
EndChar

StartChar: ringcomb
Encoding: 778 778 274
Width: 0
Flags: MW
AnchorPoint: "top_accent" 114 596 mark 0
LayerCount: 2
Fore
SplineSet
115 692 m 0
 159 692 196 658 196 614 c 0
 196 562 153 525 109 525 c 0
 65 525 28 564 28 608 c 0
 28 652 71 692 115 692 c 0
74 613 m 0
 74 585 88 555 116 555 c 0
 140 555 150 583 150 607 c 0
 150 634 133 660 106 660 c 0
 84 660 74 635 74 613 c 0
EndSplineSet
Validated: 1
Substitution2: "Smallcaps1 subtable" ringcomb.sc
Substitution2: "Single Substitution lookup 17 subtable" uni030A.stack
Substitution2: "Single Substitution lookup 15 subtable" uni030A.stack
Substitution2: "'case' Case-Sensitive Forms lookup 8 subtable" ringcomb.cap
EndChar

StartChar: hungarumlautcomb
Encoding: 779 779 275
Width: 0
Flags: MW
AnchorPoint: "top_accent" 107 596 mark 0
LayerCount: 2
Fore
SplineSet
177 523 m 0
 169 514 155 501 147 501 c 0
 138 501 138 505 138 514 c 0
 138 529 196 643 215 676 c 0
 221 686 232 694 242 694 c 0
 267 694 295 687 295 671 c 0
 295 657 208 556 177 523 c 0
53 523 m 0
 45 514 31 501 23 501 c 0
 14 501 14 505 14 514 c 0
 14 529 72 643 91 676 c 0
 97 686 108 694 118 694 c 0
 143 694 171 687 171 671 c 0
 171 657 84 556 53 523 c 0
EndSplineSet
Validated: 1
Substitution2: "Smallcaps1 subtable" hungarumlautcomb.sc
Substitution2: "'case' Case-Sensitive Forms lookup 8 subtable" hungarumlautcomb.cap
EndChar

StartChar: caroncomb
Encoding: 780 780 276
Width: 0
Flags: MW
AnchorPoint: "top_accent" 140 596 mark 0
LayerCount: 2
Fore
SplineSet
148 590 m 0
 171 622 195 649 208 664 c 0
 216 673 230 686 238 686 c 0
 247 686 247 682 247 673 c 0
 247 658 179 536 159 503 c 0
 154 494 147 485 139 485 c 0
 131 485 124 494 119 503 c 0
 99 536 30 658 30 673 c 0
 30 682 30 686 39 686 c 0
 47 686 61 673 69 664 c 0
 82 649 108 620 130 590 c 0
 136 582 142 582 148 590 c 0
EndSplineSet
Validated: 1
Substitution2: "Smallcaps1 subtable" caroncomb.sc
Substitution2: "Single Substitution lookup 17 subtable" uni030C.stack
Substitution2: "Single Substitution lookup 15 subtable" uni030C.stack
Substitution2: "Single Substitution lookup 13 subtable" uni030C.flat
Substitution2: "Single Substitution lookup 12 subtable" uni030C.alt
Substitution2: "'case' Case-Sensitive Forms lookup 8 subtable" caroncomb.cap
EndChar

StartChar: uni0311
Encoding: 785 785 277
Width: 0
Flags: MW
AnchorPoint: "top_accent" 171 596 mark 0
LayerCount: 2
Fore
SplineSet
246 527 m 0
 241 552 217 570 167 570 c 0
 117 570 97 552 92 527 c 0
 90 517 87 506 77 506 c 0
 67 506 62 517 62 530 c 0
 62 580 105 636 175 636 c 0
 245 636 276 580 276 530 c 0
 276 517 271 506 261 506 c 0
 251 506 248 517 246 527 c 0
EndSplineSet
Validated: 1
Substitution2: "Smallcaps1 subtable" uni0311.sc
Substitution2: "'case' Case-Sensitive Forms lookup 8 subtable" uni0311.cap
EndChar

StartChar: uni0328
Encoding: 808 808 457
Width: 0
VWidth: 982
Flags: MW
AnchorPoint: "ogonek" 126 5 mark 0
LayerCount: 2
Fore
SplineSet
67 -127 m 0
 67 -158 79 -192 110 -192 c 0
 137 -192 160 -181 176 -159 c 0
 180 -153 185 -146 190 -146 c 0
 199 -146 202 -153 202 -164 c 0
 202 -224 138 -270 77 -270 c 0
 34 -270 5 -221 5 -170 c 0
 5 -88 54 -30 116 8 c 1
 156 8 l 1
 94 -40 67 -68 67 -127 c 0
EndSplineSet
Validated: 1
Substitution2: "'case' Case-Sensitive Forms lookup 8 subtable" uni0328.cap
EndChar

StartChar: uni0327
Encoding: 807 807 458
Width: 0
VWidth: 982
Flags: MW
AnchorPoint: "cedilla" 142 4 mark 0
LayerCount: 2
Fore
SplineSet
172 5 m 1
 132 -23 114 -51 114 -62 c 0
 114 -82 195 -126 195 -175 c 0
 195 -230 119 -269 64 -269 c 0
 40 -269 30 -253 30 -227 c 0
 30 -212 42 -195 53 -195 c 0
 59 -195 90 -224 111 -224 c 0
 128 -224 129 -215 129 -200 c 0
 129 -163 47 -125 47 -99 c 0
 47 -69 69 -50 132 5 c 1
 172 5 l 1
EndSplineSet
Validated: 1
Substitution2: "'case' Case-Sensitive Forms lookup 8 subtable" uni0327.cap
EndChar

StartChar: uni030F
Encoding: 783 783 683
Width: 0
Flags: MW
AnchorPoint: "top_accent" 190 596 mark 0
LayerCount: 2
Fore
SplineSet
247 512 m 0
 216 545 129 646 129 660 c 0
 129 676 159 683 184 683 c 0
 194 683 205 675 211 665 c 0
 230 632 286 518 286 503 c 0
 286 494 286 490 277 490 c 0
 269 490 255 503 247 512 c 0
126 512 m 0
 95 545 8 646 8 660 c 0
 8 676 38 683 63 683 c 0
 73 683 84 675 90 665 c 0
 109 632 165 518 165 503 c 0
 165 494 165 490 156 490 c 0
 148 490 134 503 126 512 c 0
EndSplineSet
Validated: 1
Substitution2: "'case' Case-Sensitive Forms lookup 8 subtable" uni030F.cap
EndChar

StartChar: uni0313
Encoding: 787 787 684
Width: 0
VWidth: 982
Flags: MW
AnchorPoint: "top_accent" 93 596 mark 0
LayerCount: 2
Fore
SplineSet
62 690 m 0
 107 690 149 656 149 610 c 0
 149 548 100 490 44 490 c 0
 33 490 28 493 28 503 c 0
 28 515 83 536 83 568 c 0
 83 597 71 612 47 619 c 0
 29 625 15 639 15 659 c 0
 15 681 39 690 62 690 c 0
EndSplineSet
Validated: 1
Substitution2: "Smallcaps1 subtable" uni0313.sc
Substitution2: "Single Substitution lookup 21 subtable" uni0313.grkstack
Substitution2: "Single Substitution lookup 20 subtable" uni0313.grk
EndChar

StartChar: uni0314
Encoding: 788 788 685
Width: 0
VWidth: 982
Flags: MW
AnchorPoint: "top_accent" 93 596 mark 0
LayerCount: 2
Fore
SplineSet
102 690 m 0
 125 690 149 681 149 659 c 0
 149 639 135 625 117 619 c 0
 93 612 81 597 81 568 c 0
 81 536 136 515 136 503 c 0
 136 493 131 490 120 490 c 0
 64 490 15 548 15 610 c 0
 15 656 57 690 102 690 c 0
EndSplineSet
Validated: 1
Substitution2: "Smallcaps1 subtable" uni0314.sc
Substitution2: "Single Substitution lookup 21 subtable" uni0314.grkstack
Substitution2: "Single Substitution lookup 20 subtable" uni0314.grk
EndChar

StartChar: uni0312
Encoding: 786 786 686
Width: 0
VWidth: 982
Flags: MW
AnchorPoint: "top_accent" 93 596 mark 0
LayerCount: 2
Fore
SplineSet
102 490 m 0
 57 490 15 524 15 570 c 0
 15 632 73 690 129 690 c 0
 140 690 145 687 145 677 c 0
 145 665 81 644 81 612 c 0
 81 583 93 568 117 561 c 0
 135 555 149 541 149 521 c 0
 149 499 125 490 102 490 c 0
EndSplineSet
Validated: 1
Substitution2: "Smallcaps1 subtable" uni0312.sc
EndChar

StartChar: uni0315
Encoding: 789 789 688
Width: 0
VWidth: 982
Flags: MW
AnchorPoint: "top_right" 35 608 mark 0
LayerCount: 2
Fore
SplineSet
62 690 m 0
 107 690 149 656 149 610 c 0
 149 548 100 490 44 490 c 0
 33 490 28 493 28 503 c 0
 28 515 83 536 83 568 c 0
 83 597 71 612 47 619 c 0
 29 625 15 639 15 659 c 0
 15 681 39 690 62 690 c 0
EndSplineSet
Validated: 1
Substitution2: "Smallcaps1 subtable" uni0315.sc
EndChar

StartChar: caroncomb.cap
Encoding: 1114133 -1 701
Width: 0
Flags: MW
AnchorPoint: "top_stack" 151 720 mark 0
AnchorPoint: "top_stack" 151 850 basemark 0
AnchorPoint: "top_accent" 151 705 mark 0
LayerCount: 2
Fore
SplineSet
20 822 m 0
 33 822 115 788 141 773 c 0
 150 768 152 768 161 773 c 0
 187 788 269 823 282 823 c 0
 291 823 296 818 296 812 c 0
 296 808 295 804 290 800 c 2
 192 722 l 2
 172 706 166 700 151 700 c 0
 136 700 130 706 110 722 c 2
 12 800 l 2
 7 804 5 808 5 812 c 0
 5 818 11 822 20 822 c 0
EndSplineSet
Validated: 1
Substitution2: "c2sc subtable" caroncomb.sc
EndChar

StartChar: circumflexcomb.cap
Encoding: 1114134 -1 702
Width: 0
Flags: MW
AnchorPoint: "top_stack" 151 685 mark 0
AnchorPoint: "top_stack" 151 830 basemark 0
AnchorPoint: "gravestack" 61 758 basemark 0
AnchorPoint: "acutestack" 241 758 basemark 0
AnchorPoint: "hookstack" 249 775 basemark 0
AnchorPoint: "top_accent" 151 705 mark 0
LayerCount: 2
Fore
SplineSet
20 681 m 0
 11 681 5 685 5 691 c 0
 5 695 7 699 12 703 c 2
 110 786 l 2
 129 803 136 808 151 808 c 0
 166 808 173 803 192 786 c 2
 290 703 l 2
 295 699 296 695 296 691 c 0
 296 685 291 680 282 680 c 0
 269 680 187 715 161 730 c 0
 152 735 150 735 141 730 c 0
 115 715 33 681 20 681 c 0
EndSplineSet
Validated: 1
Substitution2: "c2sc subtable" circumflexcomb.sc
EndChar

StartChar: acutecomb.cap
Encoding: 1114135 -1 703
Width: 0
Flags: MW
AnchorPoint: "top_stack" 52 710 mark 0
AnchorPoint: "top_accent" 48 705 mark 0
LayerCount: 2
Fore
SplineSet
12 685 m 0
 8 685 6 688 6 691 c 0
 6 695 8 701 11 706 c 0
 35 746 55 786 82 825 c 0
 89 835 98 838 109 838 c 0
 123 838 173 829 173 815 c 0
 173 808 169 804 160 796 c 0
 120 762 70 724 30 694 c 0
 21 687 15 685 12 685 c 0
EndSplineSet
Validated: 1
Substitution2: "c2sc subtable" acutecomb.sc
EndChar

StartChar: gravecomb.cap
Encoding: 1114136 -1 704
Width: 0
Flags: MW
AnchorPoint: "top_stack" 127 710 mark 0
AnchorPoint: "top_accent" 131 705 mark 0
LayerCount: 2
Fore
SplineSet
167 685 m 0
 164 685 158 687 149 694 c 0
 109 724 59 762 19 796 c 0
 10 804 6 808 6 815 c 0
 6 829 56 838 70 838 c 0
 81 838 90 835 97 825 c 0
 124 786 144 746 168 706 c 0
 171 701 173 695 173 691 c 0
 173 688 171 685 167 685 c 0
EndSplineSet
Validated: 1
Substitution2: "c2sc subtable" gravecomb.sc
EndChar

StartChar: tildecomb.cap
Encoding: 1114137 -1 705
Width: 0
Flags: MW
AnchorPoint: "top_stack" 143 706 mark 0
AnchorPoint: "top_stack" 143 820 basemark 0
AnchorPoint: "top_accent" 142 705 mark 0
LayerCount: 2
Fore
SplineSet
202 709 m 0
 177 709 103 714 78 714 c 0
 58 714 31 689 21 689 c 0
 13 689 5 696 5 706 c 0
 5 729 64 774 89 774 c 0
 114 774 183 770 208 770 c 0
 243 770 258 809 270 809 c 0
 280 809 287 802 287 792 c 0
 287 772 229 709 202 709 c 0
EndSplineSet
Validated: 1
Substitution2: "c2sc subtable" tildecomb.sc
EndChar

StartChar: brevecomb.cap
Encoding: 1114138 -1 706
Width: 0
Flags: MW
AnchorPoint: "top_stack" 142 695 mark 0
AnchorPoint: "top_stack" 142 851 basemark 0
AnchorPoint: "acutestack" 89 811 basemark 0
AnchorPoint: "hookstack" 102 837 basemark 0
AnchorPoint: "gravestack" 189 807 basemark 0
AnchorPoint: "top_accent" 145 705 mark 0
LayerCount: 2
Fore
SplineSet
39 799 m 0
 66 767 99 758 142 758 c 0
 185 758 218 767 245 799 c 0
 251 807 259 820 269 820 c 0
 279 820 279 809 279 796 c 0
 279 756 227 692 142 692 c 0
 57 692 5 756 5 796 c 0
 5 809 9 820 15 820 c 0
 25 820 33 807 39 799 c 0
EndSplineSet
Validated: 1
Substitution2: "c2sc subtable" brevecomb.sc
EndChar

StartChar: uni0308.cap
Encoding: 1114139 -1 707
Width: 0
Flags: MW
AnchorPoint: "top_stack" 152 689 mark 0
AnchorPoint: "top_stack" 152 825 basemark 0
AnchorPoint: "gravestack" 182 814 basemark 0
AnchorPoint: "acutestack" 90 816 basemark 0
AnchorPoint: "top_accent" 150 705 mark 0
LayerCount: 2
Fore
SplineSet
246 795 m 0
 274 795 300 769 300 741 c 0
 300 713 274 687 246 687 c 0
 218 687 192 713 192 741 c 0
 192 769 218 795 246 795 c 0
59 795 m 0
 87 795 113 769 113 741 c 0
 113 713 87 687 59 687 c 0
 31 687 5 713 5 741 c 0
 5 769 31 795 59 795 c 0
EndSplineSet
Validated: 1
Substitution2: "c2sc subtable" uni0308.sc
EndChar

StartChar: hungarumlautcomb.cap
Encoding: 1114140 -1 708
Width: 0
Flags: MW
AnchorPoint: "top_accent" 115 705 mark 0
LayerCount: 2
Fore
SplineSet
144 697 m 0
 140 697 138 700 138 703 c 0
 138 707 140 713 143 718 c 0
 167 758 187 798 214 837 c 0
 221 847 230 850 241 850 c 0
 255 850 305 841 305 827 c 0
 305 820 301 816 292 808 c 0
 252 774 202 736 162 706 c 0
 153 699 147 697 144 697 c 0
12 697 m 0
 8 697 6 700 6 703 c 0
 6 707 8 713 11 718 c 0
 35 758 54 798 81 837 c 0
 88 847 97 850 108 850 c 0
 122 850 173 841 173 827 c 0
 173 820 169 816 160 808 c 0
 120 774 70 736 30 706 c 0
 21 699 15 697 12 697 c 0
EndSplineSet
Validated: 1
Substitution2: "c2sc subtable" hungarumlautcomb.sc
EndChar

StartChar: macroncomb.cap
Encoding: 1114141 -1 709
Width: 0
Flags: MW
AnchorPoint: "top_stack" 155 706 mark 0
AnchorPoint: "top_stack" 155 819 basemark 0
AnchorPoint: "top_accent" 154 705 mark 0
LayerCount: 2
Fore
SplineSet
29 777 m 2
 292 777 l 2
 298 777 305 771 305 765 c 0
 305 745 290 717 274 717 c 2
 19 717 l 2
 12 717 5 723 5 729 c 0
 5 738 10 777 29 777 c 2
EndSplineSet
Validated: 1
Substitution2: "c2sc subtable" macroncomb.sc
EndChar

StartChar: uni0311.cap
Encoding: 1114142 -1 710
Width: 0
Flags: MW
AnchorPoint: "top_accent" 144 705 mark 0
LayerCount: 2
Fore
SplineSet
245 713 m 0
 218 745 185 754 142 754 c 0
 99 754 66 745 39 713 c 0
 33 705 25 692 15 692 c 0
 5 692 5 703 5 716 c 0
 5 756 57 820 142 820 c 0
 227 820 279 756 279 716 c 0
 279 703 279 692 269 692 c 0
 259 692 251 705 245 713 c 0
EndSplineSet
Validated: 1
Substitution2: "c2sc subtable" uni0311.sc
EndChar

StartChar: ringcomb.cap
Encoding: 1114143 -1 711
Width: 0
Flags: MW
AnchorPoint: "top_stack" 94 873 basemark 0
AnchorPoint: "top_accent" 92 735 mark 0
LayerCount: 2
Fore
SplineSet
92 844 m 0
 134 844 175 819 175 777 c 0
 175 730 131 700 84 700 c 0
 41 700 1 726 1 769 c 0
 1 815 46 844 92 844 c 0
47 772 m 0
 47 744 65 726 93 726 c 0
 118 726 129 747 129 772 c 0
 129 799 112 817 85 817 c 0
 59 817 47 798 47 772 c 0
EndSplineSet
Validated: 1
Substitution2: "c2sc subtable" ringcomb.sc
EndChar

StartChar: uni0307.cap
Encoding: 1114144 -1 712
Width: 0
Flags: MW
AnchorPoint: "top_stack" 60 725 mark 0
AnchorPoint: "top_stack" 60 830 basemark 0
AnchorPoint: "top_accent" 68 705 mark 0
LayerCount: 2
Fore
SplineSet
64 805 m 0
 96 805 123 778 123 746 c 0
 123 714 96 687 64 687 c 0
 32 687 5 714 5 746 c 0
 5 778 32 805 64 805 c 0
EndSplineSet
Validated: 1
Substitution2: "c2sc subtable" uni0307.sc
EndChar

StartChar: uni0327.cap
Encoding: 1114145 -1 713
Width: 0
Flags: MW
AnchorPoint: "cedilla" 129 15 mark 0
LayerCount: 2
Fore
SplineSet
27 -115 m 0
 27 -108 30 -104 33 -100 c 2
 113 8 l 1
 144 8 l 1
 103 -54 l 2
 98 -61 108 -68 113 -70 c 0
 141 -82 179 -112 179 -159 c 0
 179 -227 95 -275 50 -275 c 0
 15 -275 5 -258 5 -243 c 0
 5 -220 13 -209 21 -209 c 0
 29 -209 35 -222 84 -222 c 0
 101 -222 126 -212 126 -183 c 0
 126 -159 114 -129 79 -129 c 0
 67 -129 62 -132 53 -132 c 0
 36 -132 27 -121 27 -115 c 0
EndSplineSet
Validated: 1
Substitution2: "c2sc subtable" uni0327
EndChar

StartChar: uni0328.cap
Encoding: 1114146 -1 714
Width: 0
Flags: MW
AnchorPoint: "ogonek" 161 15 mark 0
LayerCount: 2
Fore
SplineSet
112 -274 m 0
 49 -274 5 -224 5 -161 c 0
 5 -60 150 18 150 18 c 1
 176 18 l 1
 176 18 90 -42 90 -142 c 0
 90 -177 114 -203 149 -203 c 0
 184 -203 221 -168 230 -163 c 0
 235 -160 242 -161 242 -169 c 0
 242 -212 166 -274 112 -274 c 0
EndSplineSet
Validated: 1
Substitution2: "c2sc subtable" uni0328
EndChar

StartChar: uni0316.cap
Encoding: 1114147 -1 715
Width: 0
Flags: MW
AnchorPoint: "below_accent" 85 -80 mark 0
LayerCount: 2
Fore
SplineSet
167 -215 m 0
 164 -215 158 -213 149 -206 c 0
 109 -176 59 -138 19 -104 c 0
 10 -96 6 -92 6 -85 c 0
 6 -71 56 -62 70 -62 c 0
 81 -62 90 -65 97 -75 c 0
 124 -114 144 -154 168 -194 c 0
 171 -199 173 -205 173 -209 c 0
 173 -212 171 -215 167 -215 c 0
EndSplineSet
Validated: 1
Substitution2: "c2sc subtable" uni0316
EndChar

StartChar: uni0317.cap
Encoding: 1114148 -1 716
Width: 0
Flags: MW
AnchorPoint: "below_accent" 85 -80 mark 0
LayerCount: 2
Fore
SplineSet
12 -215 m 0
 8 -215 6 -212 6 -209 c 0
 6 -205 8 -199 11 -194 c 0
 35 -154 55 -114 82 -75 c 0
 89 -65 98 -62 109 -62 c 0
 123 -62 173 -71 173 -85 c 0
 173 -92 169 -96 160 -104 c 0
 120 -138 70 -176 30 -206 c 0
 21 -213 15 -215 12 -215 c 0
EndSplineSet
Validated: 1
Substitution2: "c2sc subtable" uni0317
EndChar

StartChar: diaresisbelowcomb.cap
Encoding: 1114149 -1 717
Width: 0
Flags: MW
AnchorPoint: "below_accent" 152 -80 mark 0
LayerCount: 2
Fore
SplineSet
246 -87 m 0
 274 -87 300 -113 300 -141 c 0
 300 -169 274 -195 246 -195 c 0
 218 -195 192 -169 192 -141 c 0
 192 -113 218 -87 246 -87 c 0
59 -87 m 0
 87 -87 113 -113 113 -141 c 0
 113 -169 87 -195 59 -195 c 0
 31 -195 5 -169 5 -141 c 0
 5 -113 31 -87 59 -87 c 0
EndSplineSet
Validated: 1
Substitution2: "c2sc subtable" diaresisbelowcomb
EndChar

StartChar: uni0325.cap
Encoding: 1114150 -1 718
Width: 0
Flags: MW
AnchorPoint: "below_accent" 88 -80 mark 0
LayerCount: 2
Fore
SplineSet
92 -62 m 0
 134 -62 175 -87 175 -129 c 0
 175 -176 131 -206 84 -206 c 0
 41 -206 1 -180 1 -137 c 0
 1 -91 46 -62 92 -62 c 0
47 -134 m 0
 47 -162 65 -180 93 -180 c 0
 118 -180 129 -159 129 -134 c 0
 129 -107 112 -89 85 -89 c 0
 59 -89 47 -108 47 -134 c 0
EndSplineSet
Validated: 1
Substitution2: "c2sc subtable" uni0325
EndChar

StartChar: uni032C.cap
Encoding: 1114151 -1 719
Width: 0
Flags: MW
AnchorPoint: "below_accent" 151 -80 mark 0
LayerCount: 2
Fore
SplineSet
20 -78 m 0
 33 -78 115 -114 141 -129 c 0
 150 -134 152 -134 161 -129 c 0
 187 -114 269 -77 282 -77 c 0
 291 -77 296 -82 296 -88 c 0
 296 -92 295 -96 290 -100 c 2
 192 -178 l 2
 172 -194 166 -200 151 -200 c 0
 136 -200 130 -194 110 -178 c 2
 12 -100 l 2
 7 -96 5 -92 5 -88 c 0
 5 -82 11 -78 20 -78 c 0
EndSplineSet
Validated: 1
Substitution2: "c2sc subtable" uni032C
EndChar

StartChar: uni032D.cap
Encoding: 1114152 -1 720
Width: 0
Flags: MW
AnchorPoint: "below_accent" 150 -80 mark 0
LayerCount: 2
Fore
SplineSet
20 -219 m 0
 11 -219 5 -215 5 -209 c 0
 5 -205 7 -201 12 -197 c 2
 110 -114 l 2
 129 -97 136 -92 151 -92 c 0
 166 -92 173 -97 192 -114 c 2
 290 -197 l 2
 295 -201 296 -205 296 -209 c 0
 296 -215 291 -220 282 -220 c 0
 269 -220 187 -183 161 -168 c 0
 152 -163 150 -163 141 -168 c 0
 115 -183 33 -219 20 -219 c 0
EndSplineSet
Validated: 1
Substitution2: "c2sc subtable" uni032D
EndChar

StartChar: uni032E.cap
Encoding: 1114153 -1 721
Width: 0
Flags: MW
AnchorPoint: "below_accent" 145 -80 mark 0
LayerCount: 2
Fore
SplineSet
39 -101 m 0
 66 -133 99 -142 142 -142 c 0
 185 -142 218 -133 245 -101 c 0
 251 -93 259 -80 269 -80 c 0
 279 -80 279 -91 279 -104 c 0
 279 -144 222 -208 137 -208 c 0
 52 -208 5 -144 5 -104 c 0
 5 -91 9 -80 15 -80 c 0
 25 -80 33 -93 39 -101 c 0
EndSplineSet
Validated: 1
Substitution2: "c2sc subtable" uni032E
EndChar

StartChar: uni032F.cap
Encoding: 1114154 -1 722
Width: 0
Flags: MW
AnchorPoint: "below_accent" 142 -80 mark 0
LayerCount: 2
Fore
SplineSet
245 -182 m 0
 218 -150 185 -141 142 -141 c 0
 99 -141 66 -150 39 -182 c 0
 33 -190 25 -203 15 -203 c 0
 5 -203 5 -192 5 -179 c 0
 5 -139 57 -75 142 -75 c 0
 227 -75 279 -139 279 -179 c 0
 279 -192 279 -203 269 -203 c 0
 259 -203 251 -190 245 -182 c 0
EndSplineSet
Validated: 1
Substitution2: "c2sc subtable" uni032F
EndChar

StartChar: uni0330.cap
Encoding: 1114155 -1 723
Width: 1000
Flags: MW
AnchorPoint: "below_accent" 146 -80 mark 0
LayerCount: 2
Fore
SplineSet
202 -179 m 0
 177 -179 98 -175 73 -175 c 0
 53 -175 31 -206 21 -206 c 0
 13 -206 5 -199 5 -189 c 0
 5 -166 59 -115 84 -115 c 0
 109 -115 183 -118 208 -118 c 0
 243 -118 256 -80 268 -80 c 0
 278 -80 285 -87 285 -97 c 0
 285 -117 229 -179 202 -179 c 0
EndSplineSet
Validated: 1
Substitution2: "c2sc subtable" uni0330
EndChar

StartChar: uni0331.cap
Encoding: 1114156 -1 724
Width: 1000
Flags: MW
AnchorPoint: "below_accent" 160 -80 mark 0
LayerCount: 2
Fore
SplineSet
29 -107 m 2
 292 -107 l 2
 298 -107 305 -113 305 -119 c 0
 305 -139 290 -167 274 -167 c 2
 19 -167 l 2
 12 -167 5 -161 5 -155 c 0
 5 -146 10 -107 29 -107 c 2
EndSplineSet
Validated: 1
Substitution2: "c2sc subtable" uni0331
EndChar

StartChar: uni030F.cap
Encoding: 1114157 -1 725
Width: 0
Flags: MW
AnchorPoint: "top_accent" 161 705 mark 0
LayerCount: 2
Fore
SplineSet
94 836 m 0
 108 812 148 722 148 712 c 0
 148 705 143 700 137 700 c 0
 129 700 115 711 109 718 c 0
 95 734 43 785 22 803 c 0
 13 811 5 820 5 829 c 0
 5 846 33 857 64 857 c 0
 77 857 84 852 94 836 c 0
146 829 m 0
 146 845 182 857 206 857 c 0
 219 857 226 852 236 836 c 0
 250 812 290 720 290 713 c 0
 290 705 284 700 279 700 c 0
 271 700 257 711 251 718 c 0
 237 734 185 785 164 803 c 0
 155 811 146 821 146 829 c 0
EndSplineSet
Validated: 1
Substitution2: "c2sc subtable" uni030F
EndChar

StartChar: acutecomb.capstack
Encoding: 1114158 -1 726
Width: 0
Flags: MW
AnchorPoint: "acutestack" 0 710 mark 0
LayerCount: 2
Fore
SplineSet
5 716 m 0
 5 721 7 725 13 731 c 0
 28 745 75 790 99 808 c 0
 105 812 110 814 115 814 c 0
 126 814 165 781 165 770 c 0
 165 765 158 760 147 755 c 0
 107 738 64 723 33 713 c 0
 27 711 18 710 15 710 c 0
 10 710 5 712 5 716 c 0
EndSplineSet
Validated: 1
EndChar

StartChar: gravecomb.capstack
Encoding: 1114159 -1 727
Width: 0
Flags: MW
AnchorPoint: "gravestack" 170 710 mark 0
LayerCount: 2
Fore
SplineSet
165 716 m 0
 165 712 160 710 155 710 c 0
 152 710 143 711 137 713 c 0
 106 723 63 738 23 755 c 0
 12 760 5 765 5 770 c 0
 5 781 44 814 55 814 c 0
 60 814 65 812 71 808 c 0
 95 790 142 745 157 731 c 0
 163 725 165 721 165 716 c 0
EndSplineSet
Validated: 1
EndChar

StartChar: tildecomb.capstack
Encoding: 1114160 -1 728
Width: 0
Flags: MW
AnchorPoint: "gravestack" 201 818 basemark 0
AnchorPoint: "acutestack" 93 818 basemark 0
AnchorPoint: "top_accent" 142 705 mark 0
LayerCount: 2
Fore
SplineSet
202 720 m 0
 177 720 108 722 83 722 c 0
 49 722 34 688 24 688 c 0
 16 688 5 695 5 705 c 0
 5 738 55 794 92 794 c 0
 117 794 183 791 208 791 c 0
 243 791 258 836 270 836 c 0
 280 836 287 829 287 819 c 0
 287 789 239 720 202 720 c 0
EndSplineSet
Validated: 1
EndChar

StartChar: uni0302.flat
Encoding: 1114161 -1 729
Width: 0
Flags: MW
AnchorPoint: "top_accent" 137 785 mark 0
LayerCount: 2
Fore
SplineSet
146 739 m 2
 138 743 134 743 126 739 c 2
 72 718 l 2
 59 713 33 701 20 701 c 0
 11 701 5 705 5 711 c 0
 5 715 7 719 12 723 c 2
 98 790 l 2
 110 799 125 812 136 812 c 0
 147 812 162 799 174 790 c 2
 260 724 l 2
 265 720 266 716 266 712 c 0
 266 706 261 701 252 701 c 0
 239 701 212 713 200 718 c 2
 146 739 l 2
EndSplineSet
Validated: 1
EndChar

StartChar: uni030C.flat
Encoding: 1114162 -1 730
Width: 0
Flags: MW
AnchorPoint: "top_accent" 137 785 mark 0
LayerCount: 2
Fore
SplineSet
146 758 m 2
 200 781 l 2
 213 786 239 799 252 799 c 0
 261 799 266 794 266 788 c 0
 266 784 264 779 260 776 c 2
 174 710 l 2
 162 701 147 688 136 688 c 0
 125 688 110 701 98 710 c 2
 12 777 l 2
 7 781 5 785 5 789 c 0
 5 795 11 799 20 799 c 0
 33 799 59 786 72 781 c 2
 126 758 l 2
 134 754 138 754 146 758 c 2
EndSplineSet
Validated: 1
EndChar

StartChar: uni030C.alt
Encoding: 1114163 -1 731
Width: 0
Flags: MW
AnchorPoint: "top_left" 18 596 mark 0
AnchorPoint: "top_right" 20 608 mark 0
LayerCount: 2
Fore
SplineSet
5 657 m 0
 5 678 40 705 61 705 c 0
 73 705 74 691 74 675 c 0
 74 638 53 574 35 537 c 0
 27 520 20 512 14 512 c 0
 10 512 7 522 7 535 c 0
 7 540 10 569 10 584 c 0
 10 621 5 641 5 657 c 0
EndSplineSet
Validated: 1
Substitution2: "Single Substitution lookup 60 subtable" caroncomb.sc
EndChar

StartChar: gravecomb.flat
Encoding: 1114164 -1 732
Width: 0
Flags: MW
AnchorPoint: "top_stack" 135 532 mark 0
AnchorPoint: "top_stack" 123 650 basemark 0
AnchorPoint: "top_accent" 105 590 mark 0
LayerCount: 2
Fore
SplineSet
179 504 m 0
 135 516 26 549 4 561 c 0
 1 563 0 567 0 570 c 0
 0 582 16 610 40 610 c 0
 47 610 54 607 61 604 c 0
 95 590 198 536 216 517 c 0
 219 513 220 510 220 507 c 0
 220 502 213 499 206 499 c 0
 197 499 187 502 179 504 c 0
EndSplineSet
Validated: 1
EndChar

StartChar: acutecomb.flat
Encoding: 1114165 -1 733
Width: 0
Flags: MW
AnchorPoint: "top_stack" 93 515 mark 0
AnchorPoint: "top_stack" 98 649 basemark 0
AnchorPoint: "top_accent" 121 590 mark 0
LayerCount: 2
Fore
SplineSet
41 504 m 0
 33 502 23 499 14 499 c 0
 7 499 0 502 0 507 c 0
 0 510 1 513 4 517 c 0
 22 536 125 600 159 614 c 0
 166 617 173 620 180 620 c 0
 204 620 220 582 220 570 c 0
 220 567 219 563 216 561 c 0
 194 549 85 516 41 504 c 0
EndSplineSet
Validated: 1
EndChar

StartChar: gravecomb.stack
Encoding: 1114166 -1 734
Width: 0
Flags: MW
AnchorPoint: "gravestack" 92 456 mark 0
LayerCount: 2
Fore
SplineSet
92 471 m 0
 85 478 10 581 10 593 c 0
 10 608 49 623 59 623 c 0
 69 623 76 615 82 605 c 0
 87 596 119 479 119 464 c 0
 119 459 119 456 114 456 c 0
 109 456 98 465 92 471 c 0
EndSplineSet
Validated: 1
Substitution2: "Smallcaps1 subtable" gravecomb.stacksc
EndChar

StartChar: acutecomb.stack
Encoding: 1114167 -1 735
Width: 0
Flags: MW
AnchorPoint: "acutestack" 32 456 mark 0
LayerCount: 2
Fore
SplineSet
43 471 m 0
 37 465 26 456 21 456 c 0
 16 456 16 459 16 464 c 0
 16 479 48 596 53 605 c 0
 59 615 66 623 76 623 c 0
 86 623 125 608 125 593 c 0
 125 581 50 478 43 471 c 0
EndSplineSet
Validated: 1
Substitution2: "Smallcaps1 subtable" acutecomb.stacksc
EndChar

StartChar: uni0302.stack
Encoding: 1114168 -1 736
Width: 0
Flags: MW
AnchorPoint: "top_stack" 116 447 mark 0
AnchorPoint: "hookstack" 224 564 basemark 0
AnchorPoint: "acutestack" 224 558 basemark 0
AnchorPoint: "gravestack" 9 558 basemark 0
AnchorPoint: "top_stack" 116 640 basemark 0
AnchorPoint: "top_accent" 117 572 mark 0
LayerCount: 2
Fore
SplineSet
109 520 m 2
 40 460 l 2
 31 453 22 447 14 447 c 0
 5 447 5 451 5 460 c 0
 5 475 94 590 94 590 c 2
 100 598 108 608 116 608 c 0
 124 608 132 598 138 590 c 2
 138 590 228 475 228 460 c 0
 228 451 228 447 219 447 c 0
 211 447 202 452 193 460 c 2
 124 520 l 2
 119 525 114 525 109 520 c 2
EndSplineSet
Validated: 1
Substitution2: "Smallcaps1 subtable" uni0302.stacksc
EndChar

StartChar: tildecomb.stack
Encoding: 1114169 -1 737
Width: 0
Flags: MW
AnchorPoint: "top_stack" 139 473 mark 0
AnchorPoint: "top_stack" 139 600 basemark 0
AnchorPoint: "gravestack" 150 590 basemark 0
AnchorPoint: "acutestack" 155 590 basemark 0
AnchorPoint: "top_accent" 146 572 mark 0
LayerCount: 2
Fore
SplineSet
19 458 m 0
 9 458 5 468 5 478 c 0
 5 488 68 547 93 547 c 0
 118 547 175 531 200 531 c 0
 235 531 249 562 257 562 c 0
 267 562 273 555 273 545 c 0
 273 535 213 470 188 470 c 0
 163 470 101 486 76 486 c 0
 51 486 27 458 19 458 c 0
EndSplineSet
Validated: 1
Substitution2: "Smallcaps1 subtable" tildecomb.stacksc
EndChar

StartChar: uni0304.stack
Encoding: 1114170 -1 738
Width: 0
Flags: MW
AnchorPoint: "top_stack" 180 491 mark 0
AnchorPoint: "top_stack" 180 590 basemark 0
AnchorPoint: "gravestack" 186 570 basemark 0
AnchorPoint: "acutestack" 182 570 basemark 0
AnchorPoint: "top_accent" 180 572 mark 0
LayerCount: 2
Fore
SplineSet
74 545 m 2
 297 545 l 2
 303 545 310 539 310 533 c 0
 310 511 298 490 279 490 c 2
 64 490 l 2
 57 490 50 496 50 502 c 0
 50 511 56 545 74 545 c 2
EndSplineSet
Validated: 1
Substitution2: "Smallcaps1 subtable" uni0304.stacksc
EndChar

StartChar: uni0306.stack
Encoding: 1114171 -1 739
Width: 0
Flags: MW
AnchorPoint: "top_stack" 167 465 mark 0
AnchorPoint: "hookstack" 132 612 basemark 0
AnchorPoint: "acutestack" 172 566 basemark 0
AnchorPoint: "gravestack" 161 566 basemark 0
AnchorPoint: "top_stack" 167 617 basemark 0
AnchorPoint: "top_accent" 166 572 mark 0
LayerCount: 2
Fore
SplineSet
86 562 m 0
 95 538 131 523 167 523 c 0
 204 523 241 538 250 562 c 0
 253 571 261 583 271 583 c 0
 281 583 284 572 284 559 c 0
 284 524 233 461 163 461 c 0
 93 461 50 524 50 559 c 0
 50 572 53 583 63 583 c 0
 73 583 83 571 86 562 c 0
EndSplineSet
Validated: 1
Substitution2: "Smallcaps1 subtable" uni0306.stacksc
EndChar

StartChar: uni0307.stack
Encoding: 1114172 -1 740
Width: 0
Flags: MW
AnchorPoint: "top_stack" 111 500 mark 0
AnchorPoint: "top_stack" 111 640 basemark 0
AnchorPoint: "top_accent" 109 572 mark 0
LayerCount: 2
Fore
SplineSet
54 547 m 0
 54 576 80 602 108 602 c 0
 137 602 163 576 163 547 c 0
 163 519 137 493 108 493 c 0
 80 493 54 519 54 547 c 0
EndSplineSet
Validated: 1
Substitution2: "Smallcaps1 subtable" uni0307.stacksc
EndChar

StartChar: uni030A.stack
Encoding: 1114173 -1 741
Width: 1000
Flags: MW
AnchorPoint: "top_stack" 111 630 basemark 0
AnchorPoint: "top_accent" 111 572 mark 0
LayerCount: 2
Fore
SplineSet
115 615 m 0
 155 615 196 585 196 545 c 0
 196 502 149 464 109 464 c 0
 69 464 28 499 28 539 c 0
 28 579 75 615 115 615 c 0
73 544 m 0
 73 519 88 495 116 495 c 0
 144 495 152 518 152 538 c 0
 152 567 134 584 109 584 c 0
 81 584 73 563 73 544 c 0
EndSplineSet
Validated: 1
Substitution2: "Smallcaps1 subtable" uni030A.stacksc
EndChar

StartChar: uni030C.stack
Encoding: 1114174 -1 742
Width: 1000
Flags: MW
AnchorPoint: "top_stack" 117 507 mark 0
AnchorPoint: "top_stack" 117 635 basemark 0
AnchorPoint: "acutestack" 120 580 basemark 0
AnchorPoint: "gravestack" 114 580 basemark 0
AnchorPoint: "top_accent" 117 572 mark 0
LayerCount: 2
Fore
SplineSet
124 535 m 2
 193 595 l 2
 202 602 211 608 219 608 c 0
 228 608 228 604 228 595 c 0
 228 580 139 465 139 465 c 2
 133 457 125 447 117 447 c 0
 109 447 101 457 95 465 c 2
 95 465 5 580 5 595 c 0
 5 604 5 608 14 608 c 0
 22 608 31 603 40 595 c 2
 109 535 l 2
 114 530 119 530 124 535 c 2
EndSplineSet
Validated: 1
Substitution2: "Smallcaps1 subtable" uni030C.stacksc
EndChar

StartChar: periodcentered
Encoding: 183 183 745
Width: 204
VWidth: 982
Flags: MW
LayerCount: 2
Fore
SplineSet
102 434 m 0
 136 434 164 406 164 372 c 0
 164 338 136 310 102 310 c 0
 68 310 40 338 40 372 c 0
 40 406 68 434 102 434 c 0
EndSplineSet
Validated: 1
Substitution2: "Single Substitution lookup 4 subtable" periodcentered.CATuc
Substitution2: "Single Substitution lookup 3 subtable" periodcentered.CAT
EndChar

StartChar: longs_longs_l
Encoding: 1114177 -1 748
Width: 788
VWidth: 982
Flags: MW
LayerCount: 2
Fore
SplineSet
392 4 m 0
 371 4 341 -2 319 -2 c 0
 293 -2 289 8 289 18 c 0
 289 28 301 36 328 44 c 0
 347 50 350 83 350 108 c 2
 351 362 l 2
 303 362 l 2
 293 362 276 365 276 375 c 0
 276 389 309 418 337 428 c 0
 348 432 350 438 350 449 c 0
 350 485 356 506 358 511 c 0
 362 524 361 526 357 535 c 0
 339 578 319 593 279 593 c 0
 219 593 180 553 180 473 c 2
 180 108 l 2
 180 61 194 49 209 44 c 0
 236 36 242 28 242 18 c 0
 242 8 239 -2 213 -2 c 0
 191 -2 154 4 138 4 c 0
 118 4 72 -2 50 -2 c 0
 24 -2 15 8 15 18 c 0
 15 28 32 36 59 44 c 0
 86 52 97 83 97 108 c 2
 97 362 l 1
 49 362 l 2
 39 362 22 365 22 375 c 0
 22 389 55 418 83 428 c 0
 94 432 97 438 97 449 c 0
 97 524 195 649 313 649 c 0
 332 649 354 644 384 630 c 0
 396 624 412 612 417 612 c 0
 422 612 435 621 448 633 c 0
 484 666 515 690 572 690 c 0
 596 690 618 687 636 682 c 0
 641 681 659 677 664 678 c 0
 672 680 677 681 680 681 c 0
 692 681 692 673 692 654 c 2
 692 108 l 2
 692 83 703 52 730 44 c 0
 757 36 773 28 773 18 c 0
 773 8 765 -2 739 -2 c 0
 717 -2 667 4 651 4 c 0
 631 4 591 -2 569 -2 c 0
 543 -2 541 8 541 18 c 0
 541 28 551 36 578 44 c 0
 605 52 609 83 609 108 c 2
 609 539 l 2
 609 568 605 586 588 605 c 0
 567 628 547 636 533 636 c 0
 453 636 433 513 433 425 c 2
 433 108 l 1
 433 83 437 52 464 44 c 0
 491 36 500 28 500 18 c 0
 500 8 499 -2 473 -2 c 0
 451 -2 408 4 392 4 c 0
EndSplineSet
Validated: 1
Ligature2: "liga_standard subtable" longs longs l
LCarets2: 2 256 530
EndChar

StartChar: longs_s
Encoding: 1114178 -1 749
Width: 566
VWidth: 982
Flags: MW
LayerCount: 2
Fore
SplineSet
428 430 m 0
 459 430 481 419 512 406 c 24
 519 403 520 400 523 390 c 0
 526 379 528 350 528 341 c 0
 528 329 528 319 516 319 c 0
 506 319 499 327 486 344 c 0
 477 356 449 384 418 384 c 0
 381 384 372 359 372 341 c 0
 372 320 383 308 398 297 c 2
 497 222 l 2
 535 193 545 176 545 138 c 0
 545 44 482 -8 394 -8 c 0
 366 -8 338 -4 328 0 c 0
 313 6 308 7 303 20 c 0
 298 33 286 68 286 83 c 0
 286 100 287 115 297 115 c 0
 307 115 327 106 341 75 c 0
 354 48 385 37 418 37 c 0
 446 37 479 61 479 87 c 0
 479 130 442 150 432 157 c 2
 384 191 l 2
 345 219 300 270 300 305 c 8
 300 375 358 430 428 430 c 0
50 362 m 2
 40 363 23 365 23 375 c 0
 23 389 56 418 84 428 c 0
 95 432 97 438 97 449 c 0
 97 508 181 690 332 690 c 0
 414 690 466 658 466 608 c 0
 466 585 448 562 423 562 c 0
 403 562 381 577 348 605 c 0
 324 625 294 636 280 636 c 0
 200 636 180 513 180 425 c 2
 180 108 l 1
 180 83 191 52 218 44 c 0
 245 36 261 28 261 18 c 0
 261 8 253 -2 227 -2 c 0
 205 -2 155 4 139 4 c 0
 119 4 72 -2 50 -2 c 0
 24 -2 15 8 15 18 c 0
 15 28 32 36 59 44 c 0
 86 52 97 83 97 108 c 2
 98 362 l 1
 50 362 l 2
EndSplineSet
Validated: 1
Ligature2: "liga_standard subtable" longs s
LCarets2: 1 276
EndChar

StartChar: Dcroat
Encoding: 272 272 750
Width: 716
VWidth: 982
Flags: HMW
LayerCount: 2
Fore
SplineSet
36 302 m 2
 22 302 0 303 0 314 c 0
 0 332 21 350 53 350 c 2
 359 350 l 2
 384 350 401 348 401 340 c 0
 401 325 388 302 358 302 c 2
 36 302 l 2
EndSplineSet
Refer: 36 68 N 1 0 0 1 0 0 2
Validated: 98309
Substitution2: "c2sc subtable" Dcroat.sc
EndChar

StartChar: Hbar
Encoding: 294 294 751
Width: 725
VWidth: 982
Flags: HMW
LayerCount: 2
Fore
SplineSet
36 413 m 2
 22 413 0 414 0 425 c 0
 0 443 21 461 53 461 c 2
 683 461 l 2
 708 461 725 459 725 451 c 0
 725 436 712 413 682 413 c 2
 36 413 l 2
EndSplineSet
Refer: 40 72 N 1 0 0 1 0 0 2
Validated: 98309
Substitution2: "c2sc subtable" Hbar.sc
EndChar

StartChar: hbar
Encoding: 295 295 752
Width: 543
VWidth: 982
Flags: HMW
LayerCount: 2
Fore
SplineSet
36 495 m 2
 22 495 0 496 0 507 c 0
 0 525 21 543 53 543 c 2
 306 543 l 2
 331 543 348 541 348 533 c 0
 348 518 335 495 305 495 c 2
 36 495 l 2
EndSplineSet
Refer: 72 104 N 1 0 0 1 0 0 2
Validated: 98309
Substitution2: "Smallcaps1 subtable" hbar.sc
EndChar

StartChar: Lslash
Encoding: 321 321 753
Width: 591
VWidth: 982
Flags: MW
LayerCount: 2
Fore
SplineSet
43 216 m 2
 30 210 7 214 7 225 c 0
 7 243 31 261 60 274 c 2
 122 303 l 1
 122 482 l 2
 122 539 97 540 40 556 c 0
 31 559 24 564 24 573 c 0
 24 585 38 591 60 591 c 0
 99 591 135 586 171 586 c 0
 206 586 247 591 281 591 c 0
 296 591 316 585 316 573 c 0
 316 564 310 559 301 556 c 0
 244 540 217 539 217 482 c 2
 217 347 l 1
 346 407 l 2
 369 418 388 405 388 397 c 0
 388 382 372 370 345 357 c 2
 217 297 l 1
 217 139 l 2
 217 88 238 45 286 45 c 2
 395 45 l 2
 472 45 485 105 514 166 c 0
 519 177 532 185 541 185 c 0
 551 185 559 166 559 138 c 0
 559 111 534 30 526 17 c 0
 518 2 515 -2 498 -2 c 0
 461 -2 272 3 166 3 c 0
 119 3 60 -2 53 -2 c 0
 42 -1 20 5 20 15 c 0
 20 30 53 35 75 45 c 0
 109 60 122 92 122 129 c 2
 122 253 l 1
 43 216 l 2
EndSplineSet
Validated: 33
Substitution2: "c2sc subtable" Lslash.sc
EndChar

StartChar: lslash
Encoding: 322 322 754
Width: 276
VWidth: 982
Flags: MW
LayerCount: 2
Fore
SplineSet
43 296 m 2
 18 282 7 289 7 300 c 0
 7 318 17 330 60 354 c 2
 97 375 l 1
 97 567 l 2
 97 584 82 604 58 613 c 0
 47 617 35 625 35 636 c 0
 35 647 50 655 64 657 c 0
 104 664 158 681 168 681 c 0
 180 681 180 673 180 654 c 2
 180 421 l 1
 229 449 l 2
 249 460 271 452 271 444 c 0
 271 429 252 412 228 399 c 2
 180 372 l 1
 180 108 l 2
 180 83 191 52 218 44 c 0
 245 36 261 28 261 18 c 0
 261 8 253 -2 227 -2 c 0
 205 -2 155 4 139 4 c 0
 119 4 72 -2 50 -2 c 0
 24 -2 15 8 15 18 c 0
 15 28 32 36 59 44 c 0
 86 52 97 83 97 108 c 2
 97 326 l 1
 43 296 l 2
EndSplineSet
Validated: 33
Substitution2: "Smallcaps1 subtable" lslash.sc
EndChar

StartChar: kgreenlandic
Encoding: 312 312 758
Width: 529
VWidth: 982
Flags: MW
LayerCount: 2
Fore
SplineSet
97 302 m 2
 97 318 80 344 56 353 c 0
 45 357 35 363 35 374 c 0
 35 385 51 393 64 399 c 0
 75 405 158 438 168 438 c 0
 180 438 180 428 180 409 c 2
 180 245 l 2
 180 232 182 222 202 222 c 0
 219 222 254 246 267 264 c 2
 324 332 l 2
 335 345 340 355 340 362 c 0
 340 372 329 379 323 380 c 0
 308 383 299 387 299 397 c 0
 299 407 308 417 324 417 c 0
 339 417 388 417 403 417 c 0
 418 417 448 423 463 423 c 0
 479 423 487 413 487 403 c 0
 487 393 468 385 453 380 c 0
 442 376 404 351 379 323 c 2
 312 249 l 2
 305 242 295 230 295 220 c 0
 295 205 334 173 374 133 c 0
 414 93 466 53 495 44 c 0
 522 36 538 28 538 18 c 0
 538 8 530 -2 504 -2 c 0
 482 -2 432 4 416 4 c 0
 396 4 361 -2 339 -2 c 0
 313 -2 304 8 304 18 c 0
 304 28 341 40 341 45 c 0
 341 50 330 66 315 82 c 2
 252 148 l 2
 229 172 211 192 201 192 c 0
 186 192 180 177 180 155 c 2
 180 108 l 2
 180 83 191 52 218 44 c 0
 245 36 251 28 251 18 c 0
 251 8 243 -2 217 -2 c 0
 195 -2 155 4 139 4 c 0
 119 4 72 -2 50 -2 c 0
 24 -2 15 8 15 18 c 0
 15 28 32 36 59 44 c 0
 86 52 97 83 97 108 c 2
 97 302 l 2
EndSplineSet
Validated: 1
Substitution2: "Smallcaps1 subtable" kgreenlandic.sc
EndChar

StartChar: Tbar
Encoding: 358 358 759
Width: 592
VWidth: 982
Flags: HMW
LayerCount: 2
Fore
SplineSet
157 304 m 2
 143 304 121 305 121 316 c 0
 121 334 142 352 174 352 c 2
 472 352 l 2
 497 352 514 350 514 342 c 0
 514 327 501 304 471 304 c 2
 157 304 l 2
EndSplineSet
Refer: 52 84 N 1 0 0 1 0 0 2
Validated: 622597
Substitution2: "c2sc subtable" Tbar.sc
EndChar

StartChar: tbar
Encoding: 359 359 760
Width: 325
VWidth: 982
Flags: HMW
LayerCount: 2
Fore
SplineSet
52 222 m 2
 38 222 16 223 16 234 c 0
 16 252 37 270 69 270 c 2
 240 270 l 2
 265 270 282 268 282 260 c 0
 282 245 269 222 239 222 c 2
 52 222 l 2
EndSplineSet
Refer: 84 116 N 1 0 0 1 0 0 2
Validated: 98309
Substitution2: "Smallcaps1 subtable" tbar.sc
EndChar

StartChar: uni01E4
Encoding: 484 484 761
Width: 710
VWidth: 982
Flags: HMW
LayerCount: 2
Fore
SplineSet
433 107 m 2
 419 107 397 108 397 119 c 0
 397 137 418 155 450 155 c 2
 668 155 l 2
 693 155 710 153 710 145 c 0
 710 130 697 107 667 107 c 2
 433 107 l 2
EndSplineSet
Refer: 39 71 N 1 0 0 1 0 0 2
Validated: 98309
EndChar

StartChar: uni01E5
Encoding: 485 485 762
Width: 479
VWidth: 982
Flags: HMW
LayerCount: 2
Fore
SplineSet
-37 -149 m 2
 -51 -149 -73 -148 -73 -137 c 0
 -73 -119 -52 -101 -20 -101 c 2
 432 -101 l 2
 457 -101 474 -103 474 -111 c 0
 474 -126 461 -149 431 -149 c 2
 -37 -149 l 2
EndSplineSet
Refer: 71 103 N 1 0 0 1 0 0 2
Validated: 622597
EndChar

StartChar: guilsinglleft
Encoding: 8249 8249 785
Width: 430
Flags: MW
LayerCount: 2
Fore
SplineSet
212 217 m 0
 206 211 206 209 212 203 c 0
 254 161 288 115 324 50 c 0
 326 47 328 41 328 38 c 0
 328 32 323 19 318 19 c 0
 305 19 293 32 288 37 c 0
 243 84 185 137 118 182 c 0
 109 188 100 202 100 211 c 0
 100 214 101 217 103 218 c 0
 180 270 231 318 296 388 c 0
 301 393 308 400 320 400 c 0
 324 400 330 386 330 381 c 0
 330 376 327 370 324 365 c 0
 268 280 249 254 212 217 c 0
EndSplineSet
Validated: 1
Substitution2: "guillemet_var subtable" guilsinglleft.alt
EndChar

StartChar: guilsinglright
Encoding: 8250 8250 786
Width: 430
Flags: MW
LayerCount: 2
Fore
SplineSet
218 202 m 0
 224 208 224 210 218 216 c 0
 176 258 142 304 106 369 c 0
 104 372 102 378 102 381 c 0
 102 387 107 400 112 400 c 0
 125 400 137 387 142 382 c 0
 187 335 245 282 312 237 c 0
 321 231 330 217 330 208 c 0
 330 205 329 202 327 201 c 0
 250 149 199 101 134 31 c 0
 129 26 122 19 110 19 c 0
 106 19 100 33 100 38 c 0
 100 43 103 49 106 54 c 0
 162 139 181 165 218 202 c 0
EndSplineSet
Validated: 1
Substitution2: "guillemet_var subtable" guilsinglright.alt
EndChar

